{
.appVersion = "1352";
DisplayStrings = (
"HHOOHEHHOHO\012HOHHH/Upsilondieresis HHOHH\012HHOOHHOOHH/space",
"nn/o-cy nuonnuxnnvnonnon\012oonunou/omegatonos nnnononn\012nnnnonononno\012/space",
"HHOHHHHOHOOHH\012hohhohhhohh\012hhohh/iotadieresistonos.sc hhoohohh\012hohoohohoohh/space",
"/dcaron l",
"/zhe-cy.sc/che-cy/caron.alt/tcaron lltll7/U-cy",
"(/Iotatonos )/space (/Iotadieresis )/space (/Upsilontonos )/space (/Upsilondieresis )/space (/Omicrontonos )/space (/Omegatonos )/space (/Alphatonos )/space (/Epsilontonos )/space (/Etatonos )\012\012\012[/Iotatonos ]/space [/Iotadieresis ]/space [/Upsilontonos ]/space [/Upsilondieresis ]/space [/Omicrontonos ]/space [/Omegatonos ]/space [/Alphatonos ]/space [/Epsilontonos ]/space [/Etatonos ]\012\012{/Iotatonos }/space {/Iotadieresis }/space {/Upsilontonos }/space {/Upsilondieresis }/space {/Omicrontonos }/space {/Omegatonos }/space {/Alphatonos }/space {/Epsilontonos }/space {/Etatonos",
"/De-cy.loclRUS/El-cy.loclRUS/Lje-cy.loclRUS",
"/el-cy.loclRUS.sc",
Hamburgefonvstiv,
"/hardsign-cy.loclRUS",
"/hardsign-cy.sc",
"/Ii-cy/Ii-cy/Ii-cy/Ii-cy/Ii-cy/Ii-cy",
"/n.sc/n.sc/n.sc/n.sc/n.sc/n.sc",
"9",

glyphs = (
{
glyphname = A;
lastChange = "2019-08-22 23:01:14 +0000";
layers = (
{
anchors = (
{
name = bottom;
position = "{280, 0}";
},
{
name = ogonek;
position = "{563, 10}";
},
{
name = top;
position = "{279, 655}";
},
{
name = topleft;
position = "{170, 655}";
}
);
layerId = "9E4B8FD8-F8AF-4AA7-8E0D-0C907FFB2BDD";
paths = (
{
closed = 1;
nodes = (
"76 0 LINE SMOOTH",
"81 0 OFFCURVE",
"86 3 OFFCURVE",
"88 8 CURVE SMOOTH",
"236 461 LINE SMOOTH",
"249 500 OFFCURVE",
"263 539 OFFCURVE",
"276 578 CURVE",
"277 578 LINE",
"291 538 OFFCURVE",
"304 498 OFFCURVE",
"318 458 CURVE SMOOTH",
"468 8 LINE SMOOTH",
"470 3 OFFCURVE",
"475 0 OFFCURVE",
"480 0 CURVE SMOOTH",
"551 0 LINE SMOOTH",
"558 0 OFFCURVE",
"561 4 OFFCURVE",
"559 11 CURVE SMOOTH",
"335 647 LINE SMOOTH",
"333 653 OFFCURVE",
"328 655 OFFCURVE",
"323 655 CURVE SMOOTH",
"234 655 LINE SMOOTH",
"229 655 OFFCURVE",
"224 652 OFFCURVE",
"222 647 CURVE SMOOTH",
"1 11 LINE SMOOTH",
"-1 4 OFFCURVE",
"2 0 OFFCURVE",
"9 0 CURVE SMOOTH"
);
},
{
closed = 1;
nodes = (
"435 153 LINE",
"413 227 LINE",
"141 227 LINE",
"120 153 LINE"
);
}
);
width = 560;
},
{
anchors = (
{
name = bottom;
position = "{277, 0}";
},
{
name = ogonek;
position = "{537, 10}";
},
{
name = top;
position = "{271, 655}";
},
{
name = topleft;
position = "{164, 655}";
}
);
layerId = "8E001827-4555-4882-9710-42A9586BB804";
paths = (
{
closed = 1;
nodes = (
"25 0 LINE SMOOTH",
"27 0 OFFCURVE",
"28 0 OFFCURVE",
"29 2 CURVE SMOOTH",
"237 546 LINE SMOOTH",
"249 577 OFFCURVE",
"259 609 OFFCURVE",
"270 640 CURVE",
"271 640 LINE",
"282 610 OFFCURVE",
"292 579 OFFCURVE",
"303 549 CURVE SMOOTH",
"511 2 LINE SMOOTH",
"512 0 OFFCURVE",
"513 0 OFFCURVE",
"515 0 CURVE SMOOTH",
"525 0 LINE SMOOTH",
"527 0 OFFCURVE",
"529 1 OFFCURVE",
"528 3 CURVE SMOOTH",
"283 653 LINE SMOOTH",
"282 655 OFFCURVE",
"281 655 OFFCURVE",
"279 655 CURVE SMOOTH",
"262 655 LINE SMOOTH",
"260 655 OFFCURVE",
"259 655 OFFCURVE",
"258 653 CURVE SMOOTH",
"12 3 LINE SMOOTH",
"11 1 OFFCURVE",
"13 0 OFFCURVE",
"15 0 CURVE SMOOTH"
);
},
{
closed = 1;
nodes = (
"444 191 LINE",
"438 207 LINE",
"101 207 LINE",
"94 191 LINE"
);
}
);
width = 540;
},
{
anchors = (
{
name = bottom;
position = "{319, 0}";
},
{
name = ogonek;
position = "{633, 10}";
},
{
name = top;
position = "{319, 655}";
},
{
name = topleft;
position = "{151, 655}";
}
);
layerId = "39FE7167-BE3C-4E72-AD2E-460E8E32521A";
paths = (
{
closed = 1;
nodes = (
"179 0 LINE SMOOTH",
"188 0 OFFCURVE",
"194 4 OFFCURVE",
"196 13 CURVE SMOOTH",
"282 348 LINE SMOOTH",
"295 399 OFFCURVE",
"307 449 OFFCURVE",
"316 500 CURVE",
"319 500 LINE",
"328 450 OFFCURVE",
"340 400 OFFCURVE",
"353 350 CURVE SMOOTH",
"442 12 LINE SMOOTH",
"444 5 OFFCURVE",
"449 0 OFFCURVE",
"458 0 CURVE SMOOTH",
"630 0 LINE SMOOTH",
"640 0 OFFCURVE",
"644 7 OFFCURVE",
"641 17 CURVE SMOOTH",
"436 643 LINE SMOOTH",
"433 652 OFFCURVE",
"426 655 OFFCURVE",
"419 655 CURVE SMOOTH",
"218 655 LINE SMOOTH",
"210 655 OFFCURVE",
"204 652 OFFCURVE",
"201 643 CURVE SMOOTH",
"-4 17 LINE SMOOTH",
"-7 7 OFFCURVE",
"-3 0 OFFCURVE",
"8 0 CURVE SMOOTH"
);
},
{
closed = 1;
nodes = (
"439 107 LINE",
"410 251 LINE",
"221 251 LINE",
"194 107 LINE"
);
}
);
width = 637;
}
);
leftKerningGroup = A;
rightKerningGroup = A;
unicode = 0041;
},
{
glyphname = Aring;
lastChange = "2019-08-22 23:01:14 +0000";
layers = (
{
layerId = "9E4B8FD8-F8AF-4AA7-8E0D-0C907FFB2BDD";
paths = (
{
closed = 1;
nodes = (
"344 621 LINE",
"374 636 OFFCURVE",
"391 664 OFFCURVE",
"391 703 CURVE SMOOTH",
"391 766 OFFCURVE",
"347 799 OFFCURVE",
"280 799 CURVE SMOOTH",
"212 799 OFFCURVE",
"169 765 OFFCURVE",
"169 703 CURVE SMOOTH",
"169 665 OFFCURVE",
"185 638 OFFCURVE",
"213 622 CURVE",
"1 11 LINE",
"-1 4 OFFCURVE",
"2 0 OFFCURVE",
"9 0 CURVE SMOOTH",
"76 0 LINE SMOOTH",
"81 0 OFFCURVE",
"86 3 OFFCURVE",
"88 8 CURVE",
"135 153 LINE",
"420 153 LINE",
"468 8 LINE",
"470 3 OFFCURVE",
"475 0 OFFCURVE",
"480 0 CURVE SMOOTH",
"551 0 LINE SMOOTH",
"558 0 OFFCURVE",
"561 4 OFFCURVE",
"559 11 CURVE"
);
},
{
closed = 1;
nodes = (
"229 730 OFFCURVE",
"243 749 OFFCURVE",
"280 749 CURVE SMOOTH",
"317 749 OFFCURVE",
"331 730 OFFCURVE",
"331 703 CURVE SMOOTH",
"331 676 OFFCURVE",
"317 657 OFFCURVE",
"280 657 CURVE SMOOTH",
"243 657 OFFCURVE",
"229 676 OFFCURVE",
"229 703 CURVE SMOOTH"
);
},
{
closed = 1;
nodes = (
"236 461 LINE SMOOTH",
"249 500 OFFCURVE",
"263 539 OFFCURVE",
"276 578 CURVE",
"277 578 LINE",
"291 538 OFFCURVE",
"304 498 OFFCURVE",
"318 458 CURVE SMOOTH",
"395 227 LINE",
"160 227 LINE"
);
}
);
width = 560;
},
{
layerId = "8E001827-4555-4882-9710-42A9586BB804";
paths = (
{
closed = 1;
nodes = (
"287 642 LINE",
"331 648 OFFCURVE",
"358 677 OFFCURVE",
"358 722 CURVE SMOOTH",
"358 773 OFFCURVE",
"324 803 OFFCURVE",
"270 803 CURVE SMOOTH",
"216 803 OFFCURVE",
"182 773 OFFCURVE",
"182 722 CURVE SMOOTH",
"182 676 OFFCURVE",
"209 647 OFFCURVE",
"254 642 CURVE",
"12 3 LINE",
"11 1 OFFCURVE",
"13 0 OFFCURVE",
"15 0 CURVE SMOOTH",
"25 0 LINE SMOOTH",
"27 0 OFFCURVE",
"28 0 OFFCURVE",
"29 2 CURVE",
"101 191 LINE",
"439 191 LINE",
"511 2 LINE",
"512 0 OFFCURVE",
"513 0 OFFCURVE",
"515 0 CURVE SMOOTH",
"525 0 LINE SMOOTH",
"527 0 OFFCURVE",
"529 1 OFFCURVE",
"528 3 CURVE"
);
},
{
closed = 1;
nodes = (
"198 761 OFFCURVE",
"219 787 OFFCURVE",
"270 787 CURVE SMOOTH",
"321 787 OFFCURVE",
"342 761 OFFCURVE",
"342 722 CURVE SMOOTH",
"342 683 OFFCURVE",
"321 657 OFFCURVE",
"270 657 CURVE SMOOTH",
"219 657 OFFCURVE",
"198 683 OFFCURVE",
"198 722 CURVE SMOOTH"
);
},
{
closed = 1;
nodes = (
"237 546 LINE SMOOTH",
"249 577 OFFCURVE",
"259 609 OFFCURVE",
"270 640 CURVE",
"271 640 LINE",
"282 610 OFFCURVE",
"292 579 OFFCURVE",
"303 549 CURVE SMOOTH",
"433 207 LINE",
"107 207 LINE"
);
}
);
width = 540;
},
{
layerId = "39FE7167-BE3C-4E72-AD2E-460E8E32521A";
paths = (
{
closed = 1;
nodes = (
"446 612 LINE",
"455 629 OFFCURVE",
"459 650 OFFCURVE",
"459 674 CURVE SMOOTH",
"459 755 OFFCURVE",
"408 799 OFFCURVE",
"319 799 CURVE SMOOTH",
"229 799 OFFCURVE",
"179 755 OFFCURVE",
"179 674 CURVE SMOOTH",
"179 651 OFFCURVE",
"183 630 OFFCURVE",
"191 613 CURVE",
"-4 17 LINE SMOOTH",
"-7 7 OFFCURVE",
"-3 0 OFFCURVE",
"8 0 CURVE SMOOTH",
"179 0 LINE SMOOTH",
"188 0 OFFCURVE",
"194 4 OFFCURVE",
"196 13 CURVE SMOOTH",
"220 107 LINE",
"417 107 LINE",
"442 12 LINE SMOOTH",
"444 5 OFFCURVE",
"449 0 OFFCURVE",
"458 0 CURVE SMOOTH",
"630 0 LINE SMOOTH",
"640 0 OFFCURVE",
"644 7 OFFCURVE",
"641 17 CURVE SMOOTH"
);
},
{
closed = 1;
nodes = (
"284 701 OFFCURVE",
"297 718 OFFCURVE",
"319 718 CURVE SMOOTH",
"341 718 OFFCURVE",
"354 701 OFFCURVE",
"354 672 CURVE SMOOTH",
"354 643 OFFCURVE",
"341 626 OFFCURVE",
"319 626 CURVE SMOOTH",
"297 626 OFFCURVE",
"284 643 OFFCURVE",
"284 672 CURVE SMOOTH"
);
},
{
closed = 1;
nodes = (
"282 348 LINE SMOOTH",
"295 399 OFFCURVE",
"307 454 OFFCURVE",
"316 505 CURVE",
"319 505 LINE",
"328 455 OFFCURVE",
"340 400 OFFCURVE",
"353 350 CURVE SMOOTH",
"379 251 LINE",
"257 251 LINE"
);
}
);
width = 637;
}
);
leftKerningGroup = A;
leftMetricsKey = A;
rightKerningGroup = A;
rightMetricsKey = A;
unicode = 00C5;
},
{
glyphname = AE;
lastChange = "2019-08-22 23:01:14 +0000";
layers = (
{
anchors = (
{
name = bottom;
position = "{417, 0}";
},
{
name = top;
position = "{567, 655}";
}
);
layerId = "9E4B8FD8-F8AF-4AA7-8E0D-0C907FFB2BDD";
paths = (
{
closed = 1;
nodes = (
"78 0 LINE SMOOTH",
"83 0 OFFCURVE",
"87 2 OFFCURVE",
"90 7 CURVE",
"164 153 LINE",
"386 153 LINE",
"386 10 LINE SMOOTH",
"386 4 OFFCURVE",
"390 0 OFFCURVE",
"396 0 CURVE SMOOTH",
"752 0 LINE SMOOTH",
"758 0 OFFCURVE",
"762 4 OFFCURVE",
"762 10 CURVE SMOOTH",
"762 67 LINE SMOOTH",
"762 73 OFFCURVE",
"758 77 OFFCURVE",
"752 77 CURVE SMOOTH",
"471 77 LINE",
"471 296 LINE",
"728 296 LINE SMOOTH",
"734 296 OFFCURVE",
"738 300 OFFCURVE",
"738 306 CURVE SMOOTH",
"738 360 LINE SMOOTH",
"738 366 OFFCURVE",
"734 370 OFFCURVE",
"728 370 CURVE SMOOTH",
"471 370 LINE",
"471 578 LINE",
"752 578 LINE SMOOTH",
"758 578 OFFCURVE",
"762 582 OFFCURVE",
"762 588 CURVE SMOOTH",
"762 645 LINE SMOOTH",
"762 651 OFFCURVE",
"758 655 OFFCURVE",
"752 655 CURVE SMOOTH",
"344 655 LINE SMOOTH",
"339 655 OFFCURVE",
"335 653 OFFCURVE",
"332 648 CURVE",
"2 12 LINE",
"-2 5 OFFCURVE",
"2 0 OFFCURVE",
"9 0 CURVE SMOOTH"
);
},
{
closed = 1;
nodes = (
"342 503 LINE SMOOTH",
"357 533 OFFCURVE",
"371 563 OFFCURVE",
"385 593 CURVE",
"387 593 LINE",
"386 552 OFFCURVE",
"386 531 OFFCURVE",
"386 500 CURVE SMOOTH",
"386 227 LINE",
"202 227 LINE"
);
}
);
width = 834;
},
{
anchors = (
{
name = bottom;
position = "{420, 0}";
},
{
name = top;
position = "{550, 655}";
}
);
layerId = "8E001827-4555-4882-9710-42A9586BB804";
paths = (
{
closed = 1;
nodes = (
"25 0 LINE SMOOTH",
"27 0 OFFCURVE",
"28 0 OFFCURVE",
"29 2 CURVE",
"137 191 LINE",
"394 191 LINE",
"394 3 LINE SMOOTH",
"394 1 OFFCURVE",
"395 0 OFFCURVE",
"397 0 CURVE SMOOTH",
"744 0 LINE SMOOTH",
"746 0 OFFCURVE",
"747 1 OFFCURVE",
"747 3 CURVE SMOOTH",
"747 13 LINE SMOOTH",
"747 15 OFFCURVE",
"746 16 OFFCURVE",
"744 16 CURVE SMOOTH",
"410 16 LINE",
"410 328 LINE",
"722 328 LINE SMOOTH",
"724 328 OFFCURVE",
"725 329 OFFCURVE",
"725 331 CURVE SMOOTH",
"725 341 LINE SMOOTH",
"725 343 OFFCURVE",
"724 344 OFFCURVE",
"722 344 CURVE SMOOTH",
"410 344 LINE",
"410 639 LINE",
"744 639 LINE SMOOTH",
"746 639 OFFCURVE",
"747 640 OFFCURVE",
"747 642 CURVE SMOOTH",
"747 652 LINE SMOOTH",
"747 654 OFFCURVE",
"746 655 OFFCURVE",
"744 655 CURVE SMOOTH",
"386 655 LINE SMOOTH",
"384 655 OFFCURVE",
"383 655 OFFCURVE",
"382 653 CURVE SMOOTH",
"12 3 LINE",
"11 1 OFFCURVE",
"13 0 OFFCURVE",
"15 0 CURVE SMOOTH"
);
},
{
closed = 1;
nodes = (
"338 543 LINE SMOOTH",
"363 587 OFFCURVE",
"377 611 OFFCURVE",
"393 639 CURVE",
"394 639 LINE",
"394 609 OFFCURVE",
"394 580 OFFCURVE",
"394 550 CURVE SMOOTH",
"394 207 LINE",
"146 207 LINE"
);
}
);
width = 839;
},
{
anchors = (
{
name = bottom;
position = "{419, 0}";
},
{
name = top;
position = "{550, 655}";
}
);
layerId = "39FE7167-BE3C-4E72-AD2E-460E8E32521A";
paths = (
{
closed = 1;
nodes = (
"183 0 LINE SMOOTH",
"191 0 OFFCURVE",
"197 3 OFFCURVE",
"200 12 CURVE SMOOTH",
"233 107 LINE",
"374 107 LINE",
"374 15 LINE SMOOTH",
"374 6 OFFCURVE",
"380 0 OFFCURVE",
"389 0 CURVE SMOOTH",
"816 0 LINE SMOOTH",
"824 0 OFFCURVE",
"830 6 OFFCURVE",
"830 15 CURVE SMOOTH",
"830 146 LINE SMOOTH",
"830 154 OFFCURVE",
"824 160 OFFCURVE",
"816 160 CURVE SMOOTH",
"555 160 LINE",
"555 253 LINE",
"792 253 LINE SMOOTH",
"800 253 OFFCURVE",
"806 259 OFFCURVE",
"806 268 CURVE SMOOTH",
"806 389 LINE SMOOTH",
"806 398 OFFCURVE",
"800 404 OFFCURVE",
"792 404 CURVE SMOOTH",
"555 404 LINE",
"555 495 LINE",
"816 495 LINE SMOOTH",
"824 495 OFFCURVE",
"830 501 OFFCURVE",
"830 509 CURVE SMOOTH",
"830 640 LINE SMOOTH",
"830 649 OFFCURVE",
"824 655 OFFCURVE",
"816 655 CURVE SMOOTH",
"254 655 LINE SMOOTH",
"246 655 OFFCURVE",
"240 652 OFFCURVE",
"237 643 CURVE",
"-4 17 LINE SMOOTH",
"-8 6 OFFCURVE",
"-3 0 OFFCURVE",
"8 0 CURVE SMOOTH"
);
},
{
closed = 1;
nodes = (
"328 379 LINE SMOOTH",
"344 426 OFFCURVE",
"358 470 OFFCURVE",
"372 520 CURVE",
"374 520 LINE",
"374 474 OFFCURVE",
"374 428 OFFCURVE",
"374 382 CURVE SMOOTH",
"374 251 LINE",
"283 251 LINE"
);
}
);
width = 870;
}
);
leftKerningGroup = AE;
leftMetricsKey = A;
rightKerningGroup = E;
rightMetricsKey = E;
unicode = 00C6;
},
{
glyphname = B;
lastChange = "2019-08-22 23:01:14 +0000";
layers = (
{
anchors = (
{
name = bottom;
position = "{287, 0}";
},
{
name = top;
position = "{287, 655}";
}
);
layerId = "9E4B8FD8-F8AF-4AA7-8E0D-0C907FFB2BDD";
paths = (
{
closed = 1;
nodes = (
"274 0 LINE SMOOTH",
"448 0 OFFCURVE",
"528 57 OFFCURVE",
"528 180 CURVE SMOOTH",
"528 272 OFFCURVE",
"482 329 OFFCURVE",
"389 346 CURVE",
"389 348 LINE",
"467 377 OFFCURVE",
"500 419 OFFCURVE",
"500 491 CURVE SMOOTH",
"500 601 OFFCURVE",
"425 655 OFFCURVE",
"273 655 CURVE SMOOTH",
"95 655 LINE SMOOTH",
"89 655 OFFCURVE",
"85 651 OFFCURVE",
"85 645 CURVE SMOOTH",
"85 10 LINE SMOOTH",
"85 4 OFFCURVE",
"89 0 OFFCURVE",
"95 0 CURVE SMOOTH"
);
},
{
closed = 1;
nodes = (
"170 305 LINE",
"276 305 LINE SMOOTH",
"393 305 OFFCURVE",
"443 269 OFFCURVE",
"443 186 CURVE SMOOTH",
"443 106 OFFCURVE",
"395 74 OFFCURVE",
"273 74 CURVE SMOOTH",
"170 74 LINE"
);
},
{
closed = 1;
nodes = (
"170 582 LINE",
"260 582 LINE SMOOTH",
"372 582 OFFCURVE",
"415 554 OFFCURVE",
"415 480 CURVE SMOOTH",
"415 406 OFFCURVE",
"370 374 OFFCURVE",
"269 374 CURVE SMOOTH",
"170 374 LINE"
);
}
);
width = 573;
},
{
anchors = (
{
name = bottom;
position = "{289, 0}";
},
{
name = top;
position = "{289, 655}";
}
);
layerId = "8E001827-4555-4882-9710-42A9586BB804";
paths = (
{
closed = 1;
nodes = (
"279 0 LINE SMOOTH",
"445 0 OFFCURVE",
"512 57 OFFCURVE",
"512 182 CURVE SMOOTH",
"512 275 OFFCURVE",
"452 325 OFFCURVE",
"361 339 CURVE",
"361 340 LINE",
"441 359 OFFCURVE",
"481 416 OFFCURVE",
"481 496 CURVE SMOOTH",
"481 603 OFFCURVE",
"414 655 OFFCURVE",
"276 655 CURVE SMOOTH",
"108 655 LINE SMOOTH",
"106 655 OFFCURVE",
"105 654 OFFCURVE",
"105 652 CURVE SMOOTH",
"105 3 LINE SMOOTH",
"105 1 OFFCURVE",
"106 0 OFFCURVE",
"108 0 CURVE SMOOTH"
);
},
{
closed = 1;
nodes = (
"121 330 LINE",
"308 330 LINE SMOOTH",
"419 330 OFFCURVE",
"496 278 OFFCURVE",
"496 182 CURVE SMOOTH",
"496 67 OFFCURVE",
"433 16 OFFCURVE",
"279 16 CURVE SMOOTH",
"121 16 LINE"
);
},
{
closed = 1;
nodes = (
"121 639 LINE",
"274 639 LINE SMOOTH",
"403 639 OFFCURVE",
"465 593 OFFCURVE",
"465 495 CURVE SMOOTH",
"465 407 OFFCURVE",
"404 346 OFFCURVE",
"309 346 CURVE SMOOTH",
"121 346 LINE"
);
}
);
width = 577;
},
{
anchors = (
{
name = bottom;
position = "{299, 0}";
},
{
name = top;
position = "{299, 655}";
}
);
layerId = "39FE7167-BE3C-4E72-AD2E-460E8E32521A";
paths = (
{
closed = 1;
nodes = (
"302 0 LINE SMOOTH",
"507 0 OFFCURVE",
"589 56 OFFCURVE",
"589 200 CURVE SMOOTH",
"589 285 OFFCURVE",
"539 328 OFFCURVE",
"459 343 CURVE",
"459 347 LINE",
"527 369 OFFCURVE",
"561 414 OFFCURVE",
"561 496 CURVE SMOOTH",
"561 603 OFFCURVE",
"473 655 OFFCURVE",
"304 655 CURVE SMOOTH",
"67 655 LINE SMOOTH",
"58 655 OFFCURVE",
"52 649 OFFCURVE",
"52 640 CURVE SMOOTH",
"52 15 LINE SMOOTH",
"52 6 OFFCURVE",
"58 0 OFFCURVE",
"67 0 CURVE SMOOTH"
);
},
{
closed = 1;
nodes = (
"238 263 LINE",
"311 263 LINE SMOOTH",
"375 263 OFFCURVE",
"403 245 OFFCURVE",
"403 209 CURVE SMOOTH",
"403 165 OFFCURVE",
"376 149 OFFCURVE",
"313 149 CURVE SMOOTH",
"238 149 LINE"
);
},
{
closed = 1;
nodes = (
"238 506 LINE",
"298 506 LINE SMOOTH",
"349 506 OFFCURVE",
"375 486 OFFCURVE",
"375 453 CURVE SMOOTH",
"375 416 OFFCURVE",
"353 395 OFFCURVE",
"303 395 CURVE SMOOTH",
"238 395 LINE"
);
}
);
width = 616;
}
);
leftKerningGroup = H;
leftMetricsKey = H;
rightKerningGroup = B;
unicode = 0042;
},
{
glyphname = C;
lastChange = "2019-08-22 23:01:14 +0000";
layers = (
{
anchors = (
{
name = bottom;
position = "{330, 0}";
},
{
name = top;
position = "{317, 655}";
}
);
layerId = "9E4B8FD8-F8AF-4AA7-8E0D-0C907FFB2BDD";
paths = (
{
closed = 1;
nodes = (
"474 -12 OFFCURVE",
"576 75 OFFCURVE",
"564 209 CURVE SMOOTH",
"563 218 OFFCURVE",
"561 223 OFFCURVE",
"552 223 CURVE SMOOTH",
"488 223 LINE SMOOTH",
"482 223 OFFCURVE",
"478 219 OFFCURVE",
"479 213 CURVE SMOOTH",
"489 118 OFFCURVE",
"427 63 OFFCURVE",
"322 63 CURVE SMOOTH",
"216 63 OFFCURVE",
"158 119 OFFCURVE",
"158 222 CURVE SMOOTH",
"158 433 LINE SMOOTH",
"158 536 OFFCURVE",
"216 592 OFFCURVE",
"322 592 CURVE SMOOTH",
"427 592 OFFCURVE",
"483 538 OFFCURVE",
"479 442 CURVE SMOOTH",
"478 436 OFFCURVE",
"482 432 OFFCURVE",
"488 432 CURVE SMOOTH",
"553 432 LINE SMOOTH",
"561 432 OFFCURVE",
"563 439 OFFCURVE",
"564 446 CURVE SMOOTH",
"584 584 OFFCURVE",
"474 667 OFFCURVE",
"321 667 CURVE SMOOTH",
"159 667 OFFCURVE",
"73 583 OFFCURVE",
"73 432 CURVE SMOOTH",
"73 223 LINE SMOOTH",
"73 72 OFFCURVE",
"157 -12 OFFCURVE",
"320 -12 CURVE SMOOTH"
);
}
);
width = 633;
},
{
anchors = (
{
name = bottom;
position = "{318, 0}";
},
{
name = top;
position = "{318, 655}";
}
);
layerId = "8E001827-4555-4882-9710-42A9586BB804";
paths = (
{
closed = 1;
nodes = (
"473 -12 OFFCURVE",
"554 61 OFFCURVE",
"550 196 CURVE",
"550 198 OFFCURVE",
"549 199 OFFCURVE",
"547 199 CURVE SMOOTH",
"537 199 LINE SMOOTH",
"535 199 OFFCURVE",
"534 198 OFFCURVE",
"534 196 CURVE SMOOTH",
"534 66 OFFCURVE",
"461 4 OFFCURVE",
"321 4 CURVE SMOOTH",
"182 4 OFFCURVE",
"104 77 OFFCURVE",
"104 204 CURVE SMOOTH",
"104 451 LINE SMOOTH",
"104 578 OFFCURVE",
"182 651 OFFCURVE",
"321 651 CURVE SMOOTH",
"456 651 OFFCURVE",
"544 584 OFFCURVE",
"534 459 CURVE",
"534 457 OFFCURVE",
"535 456 OFFCURVE",
"537 456 CURVE SMOOTH",
"547 456 LINE SMOOTH",
"549 456 OFFCURVE",
"550 457 OFFCURVE",
"550 459 CURVE",
"560 592 OFFCURVE",
"468 667 OFFCURVE",
"321 667 CURVE SMOOTH",
"172 667 OFFCURVE",
"88 588 OFFCURVE",
"88 452 CURVE SMOOTH",
"88 203 LINE SMOOTH",
"88 67 OFFCURVE",
"172 -12 OFFCURVE",
"321 -12 CURVE SMOOTH"
);
}
);
width = 633;
},
{
anchors = (
{
name = bottom;
position = "{355, 0}";
},
{
name = top;
position = "{332, 655}";
}
);
layerId = "39FE7167-BE3C-4E72-AD2E-460E8E32521A";
paths = (
{
closed = 1;
nodes = (
"531 -12 OFFCURVE",
"637 85 OFFCURVE",
"622 237 CURVE SMOOTH",
"621 246 OFFCURVE",
"616 251 OFFCURVE",
"607 251 CURVE SMOOTH",
"450 251 LINE SMOOTH",
"440 251 OFFCURVE",
"436 245 OFFCURVE",
"436 235 CURVE SMOOTH",
"436 190 OFFCURVE",
"414 148 OFFCURVE",
"334 148 CURVE SMOOTH",
"267 148 OFFCURVE",
"226 182 OFFCURVE",
"226 267 CURVE SMOOTH",
"226 388 LINE SMOOTH",
"226 473 OFFCURVE",
"267 507 OFFCURVE",
"334 507 CURVE SMOOTH",
"408 507 OFFCURVE",
"436 471 OFFCURVE",
"436 420 CURVE SMOOTH",
"436 410 OFFCURVE",
"440 404 OFFCURVE",
"450 404 CURVE SMOOTH",
"607 404 LINE SMOOTH",
"616 404 OFFCURVE",
"621 410 OFFCURVE",
"622 418 CURVE SMOOTH",
"641 567 OFFCURVE",
"535 667 OFFCURVE",
"331 667 CURVE SMOOTH",
"150 667 OFFCURVE",
"40 584 OFFCURVE",
"40 395 CURVE SMOOTH",
"40 257 LINE SMOOTH",
"40 71 OFFCURVE",
"150 -12 OFFCURVE",
"331 -12 CURVE SMOOTH"
);
}
);
width = 663;
}
);
leftKerningGroup = O;
leftMetricsKey = O;
rightKerningGroup = C;
unicode = 0043;
},
{
glyphname = D;
lastChange = "2019-08-22 23:01:14 +0000";
layers = (
{
anchors = (
{
name = bottom;
position = "{293, 0}";
},
{
name = center;
position = "{295, 328}";
},
{
name = top;
position = "{293, 655}";
}
);
layerId = "9E4B8FD8-F8AF-4AA7-8E0D-0C907FFB2BDD";
paths = (
{
closed = 1;
nodes = (
"270 0 LINE SMOOTH",
"476 0 OFFCURVE",
"576 104 OFFCURVE",
"576 317 CURVE SMOOTH",
"576 367 LINE SMOOTH",
"576 560 OFFCURVE",
"475 655 OFFCURVE",
"270 655 CURVE SMOOTH",
"95 655 LINE SMOOTH",
"89 655 OFFCURVE",
"85 651 OFFCURVE",
"85 645 CURVE SMOOTH",
"85 10 LINE SMOOTH",
"85 4 OFFCURVE",
"89 0 OFFCURVE",
"95 0 CURVE SMOOTH"
);
},
{
closed = 1;
nodes = (
"170 583 LINE",
"264 583 LINE SMOOTH",
"420 583 OFFCURVE",
"491 517 OFFCURVE",
"491 373 CURVE SMOOTH",
"491 311 LINE SMOOTH",
"491 147 OFFCURVE",
"420 72 OFFCURVE",
"264 72 CURVE SMOOTH",
"170 72 LINE"
);
}
);
width = 641;
},
{
anchors = (
{
name = bottom;
position = "{274, 0}";
},
{
name = center;
position = "{316, 328}";
},
{
name = top;
position = "{278, 655}";
}
);
layerId = "8E001827-4555-4882-9710-42A9586BB804";
paths = (
{
closed = 1;
nodes = (
"272 0 LINE SMOOTH",
"463 0 OFFCURVE",
"559 87 OFFCURVE",
"559 280 CURVE SMOOTH",
"559 375 LINE SMOOTH",
"559 567 OFFCURVE",
"464 655 OFFCURVE",
"272 655 CURVE SMOOTH",
"108 655 LINE SMOOTH",
"106 655 OFFCURVE",
"105 654 OFFCURVE",
"105 652 CURVE SMOOTH",
"105 3 LINE SMOOTH",
"105 1 OFFCURVE",
"106 0 OFFCURVE",
"108 0 CURVE SMOOTH"
);
},
{
closed = 1;
nodes = (
"121 639 LINE",
"272 639 LINE SMOOTH",
"453 639 OFFCURVE",
"543 557 OFFCURVE",
"543 374 CURVE SMOOTH",
"543 281 LINE SMOOTH",
"543 98 OFFCURVE",
"453 16 OFFCURVE",
"272 16 CURVE SMOOTH",
"121 16 LINE"
);
}
);
width = 632;
},
{
anchors = (
{
name = bottom;
position = "{302, 0}";
},
{
name = center;
position = "{325, 345}";
},
{
name = top;
position = "{302, 655}";
}
);
layerId = "39FE7167-BE3C-4E72-AD2E-460E8E32521A";
paths = (
{
closed = 1;
nodes = (
"318 0 LINE SMOOTH",
"530 0 OFFCURVE",
"629 99 OFFCURVE",
"629 289 CURVE SMOOTH",
"629 368 LINE SMOOTH",
"629 556 OFFCURVE",
"530 655 OFFCURVE",
"318 655 CURVE SMOOTH",
"67 655 LINE SMOOTH",
"58 655 OFFCURVE",
"52 649 OFFCURVE",
"52 640 CURVE SMOOTH",
"52 15 LINE SMOOTH",
"52 6 OFFCURVE",
"58 0 OFFCURVE",
"67 0 CURVE SMOOTH"
);
},
{
closed = 1;
nodes = (
"238 495 LINE",
"306 495 LINE SMOOTH",
"401 495 OFFCURVE",
"443 444 OFFCURVE",
"443 359 CURVE SMOOTH",
"443 298 LINE SMOOTH",
"443 211 OFFCURVE",
"401 160 OFFCURVE",
"306 160 CURVE SMOOTH",
"238 160 LINE"
);
}
);
width = 664;
}
);
leftKerningGroup = H;
leftMetricsKey = H;
rightKerningGroup = D;
unicode = 0044;
},
{
glyphname = Eth;
lastChange = "2019-08-22 23:01:14 +0000";
layers = (
{
components = (
{
name = D;
}
);
layerId = "9E4B8FD8-F8AF-4AA7-8E0D-0C907FFB2BDD";
paths = (
{
closed = 1;
nodes = (
"317 298 LINE SMOOTH",
"323 298 OFFCURVE",
"327 302 OFFCURVE",
"327 308 CURVE SMOOTH",
"327 358 LINE SMOOTH",
"327 364 OFFCURVE",
"323 368 OFFCURVE",
"317 368 CURVE SMOOTH",
"85 368 LINE",
"15 368 LINE SMOOTH",
"9 368 OFFCURVE",
"5 364 OFFCURVE",
"5 358 CURVE SMOOTH",
"5 308 LINE SMOOTH",
"5 302 OFFCURVE",
"9 298 OFFCURVE",
"15 298 CURVE SMOOTH"
);
}
);
width = 641;
},
{
components = (
{
name = D;
}
);
layerId = "8E001827-4555-4882-9710-42A9586BB804";
paths = (
{
closed = 1;
nodes = (
"320 328 LINE SMOOTH",
"322 328 OFFCURVE",
"323 329 OFFCURVE",
"323 331 CURVE SMOOTH",
"323 341 LINE SMOOTH",
"323 343 OFFCURVE",
"322 344 OFFCURVE",
"320 344 CURVE SMOOTH",
"105 344 LINE",
"13 344 LINE SMOOTH",
"11 344 OFFCURVE",
"10 343 OFFCURVE",
"10 341 CURVE SMOOTH",
"10 331 LINE SMOOTH",
"10 329 OFFCURVE",
"11 328 OFFCURVE",
"13 328 CURVE SMOOTH"
);
}
);
width = 632;
},
{
components = (
{
name = D;
}
);
layerId = "39FE7167-BE3C-4E72-AD2E-460E8E32521A";
paths = (
{
closed = 1;
nodes = (
"302 261 LINE SMOOTH",
"311 261 OFFCURVE",
"317 267 OFFCURVE",
"317 276 CURVE SMOOTH",
"317 379 LINE SMOOTH",
"317 388 OFFCURVE",
"311 394 OFFCURVE",
"302 394 CURVE SMOOTH",
"52 394 LINE",
"10 394 LINE SMOOTH",
"1 394 OFFCURVE",
"-5 388 OFFCURVE",
"-5 379 CURVE SMOOTH",
"-5 276 LINE SMOOTH",
"-5 267 OFFCURVE",
"1 261 OFFCURVE",
"10 261 CURVE SMOOTH"
);
}
);
width = 664;
}
);
leftKerningGroup = Eth;
rightKerningGroup = D;
rightMetricsKey = D;
unicode = 00D0;
},
{
glyphname = E;
lastChange = "2019-08-22 23:01:14 +0000";
layers = (
{
anchors = (
{
name = bottom;
position = "{282, 0}";
},
{
name = ogonek;
position = "{449, 10}";
},
{
name = top;
position = "{280, 655}";
},
{
name = topleft;
position = "{40, 655}";
}
);
guideLines = (
{
angle = 90;
position = "{461, 613}";
}
);
layerId = "9E4B8FD8-F8AF-4AA7-8E0D-0C907FFB2BDD";
paths = (
{
closed = 1;
nodes = (
"451 0 LINE SMOOTH",
"457 0 OFFCURVE",
"461 4 OFFCURVE",
"461 10 CURVE SMOOTH",
"461 67 LINE SMOOTH",
"461 73 OFFCURVE",
"457 77 OFFCURVE",
"451 77 CURVE SMOOTH",
"170 77 LINE",
"170 296 LINE",
"427 296 LINE SMOOTH",
"433 296 OFFCURVE",
"437 300 OFFCURVE",
"437 306 CURVE SMOOTH",
"437 360 LINE SMOOTH",
"437 366 OFFCURVE",
"433 370 OFFCURVE",
"427 370 CURVE SMOOTH",
"170 370 LINE",
"170 578 LINE",
"451 578 LINE SMOOTH",
"457 578 OFFCURVE",
"461 582 OFFCURVE",
"461 588 CURVE SMOOTH",
"461 645 LINE SMOOTH",
"461 651 OFFCURVE",
"457 655 OFFCURVE",
"451 655 CURVE SMOOTH",
"95 655 LINE SMOOTH",
"89 655 OFFCURVE",
"85 651 OFFCURVE",
"85 645 CURVE SMOOTH",
"85 10 LINE SMOOTH",
"85 4 OFFCURVE",
"89 0 OFFCURVE",
"95 0 CURVE SMOOTH"
);
}
);
width = 533;
},
{
anchors = (
{
name = bottom;
position = "{272, 0}";
},
{
name = ogonek;
position = "{436, 10}";
},
{
name = top;
position = "{272, 655}";
},
{
name = topleft;
position = "{24, 655}";
}
);
guideLines = (
{
angle = 90;
position = "{448, 599}";
}
);
layerId = "8E001827-4555-4882-9710-42A9586BB804";
paths = (
{
closed = 1;
nodes = (
"455 0 LINE SMOOTH",
"457 0 OFFCURVE",
"458 1 OFFCURVE",
"458 3 CURVE SMOOTH",
"458 13 LINE SMOOTH",
"458 15 OFFCURVE",
"457 16 OFFCURVE",
"455 16 CURVE SMOOTH",
"121 16 LINE",
"121 328 LINE",
"433 328 LINE SMOOTH",
"435 328 OFFCURVE",
"436 329 OFFCURVE",
"436 331 CURVE SMOOTH",
"436 341 LINE SMOOTH",
"436 343 OFFCURVE",
"435 344 OFFCURVE",
"433 344 CURVE SMOOTH",
"121 344 LINE",
"121 639 LINE",
"455 639 LINE SMOOTH",
"457 639 OFFCURVE",
"458 640 OFFCURVE",
"458 642 CURVE SMOOTH",
"458 652 LINE SMOOTH",
"458 654 OFFCURVE",
"457 655 OFFCURVE",
"455 655 CURVE SMOOTH",
"108 655 LINE SMOOTH",
"106 655 OFFCURVE",
"105 654 OFFCURVE",
"105 652 CURVE SMOOTH",
"105 3 LINE SMOOTH",
"105 1 OFFCURVE",
"106 0 OFFCURVE",
"108 0 CURVE SMOOTH"
);
}
);
width = 550;
},
{
anchors = (
{
name = bottom;
position = "{284, 0}";
},
{
name = ogonek;
position = "{485, 10}";
},
{
name = top;
position = "{273, 655}";
},
{
name = topleft;
position = "{34, 655}";
}
);
guideLines = (
{
angle = 90;
position = "{516, 260}";
}
);
layerId = "39FE7167-BE3C-4E72-AD2E-460E8E32521A";
paths = (
{
closed = 1;
nodes = (
"499 0 LINE SMOOTH",
"507 0 OFFCURVE",
"513 6 OFFCURVE",
"513 15 CURVE SMOOTH",
"513 146 LINE SMOOTH",
"513 154 OFFCURVE",
"507 160 OFFCURVE",
"499 160 CURVE SMOOTH",
"238 160 LINE",
"238 253 LINE",
"475 253 LINE SMOOTH",
"483 253 OFFCURVE",
"489 259 OFFCURVE",
"489 268 CURVE SMOOTH",
"489 389 LINE SMOOTH",
"489 398 OFFCURVE",
"483 404 OFFCURVE",
"475 404 CURVE SMOOTH",
"238 404 LINE",
"238 495 LINE",
"499 495 LINE SMOOTH",
"507 495 OFFCURVE",
"513 501 OFFCURVE",
"513 509 CURVE SMOOTH",
"513 640 LINE SMOOTH",
"513 649 OFFCURVE",
"507 655 OFFCURVE",
"499 655 CURVE SMOOTH",
"67 655 LINE SMOOTH",
"58 655 OFFCURVE",
"52 649 OFFCURVE",
"52 640 CURVE SMOOTH",
"52 15 LINE SMOOTH",
"52 6 OFFCURVE",
"58 0 OFFCURVE",
"67 0 CURVE SMOOTH"
);
}
);
width = 553;
}
);
leftKerningGroup = H;
leftMetricsKey = H;
rightKerningGroup = E;
unicode = 0045;
},
{
glyphname = F;
lastChange = "2019-08-22 23:01:14 +0000";
layers = (
{
anchors = (
{
name = bottom;
position = "{253, 0}";
},
{
name = top;
position = "{253, 655}";
}
);
layerId = "9E4B8FD8-F8AF-4AA7-8E0D-0C907FFB2BDD";
paths = (
{
closed = 1;
nodes = (
"160 0 LINE SMOOTH",
"166 0 OFFCURVE",
"170 4 OFFCURVE",
"170 10 CURVE SMOOTH",
"170 286 LINE",
"413 286 LINE SMOOTH",
"419 286 OFFCURVE",
"423 290 OFFCURVE",
"423 296 CURVE SMOOTH",
"423 350 LINE SMOOTH",
"423 356 OFFCURVE",
"419 360 OFFCURVE",
"413 360 CURVE SMOOTH",
"170 360 LINE",
"170 578 LINE",
"451 578 LINE SMOOTH",
"457 578 OFFCURVE",
"461 582 OFFCURVE",
"461 588 CURVE SMOOTH",
"461 645 LINE SMOOTH",
"461 651 OFFCURVE",
"457 655 OFFCURVE",
"451 655 CURVE SMOOTH",
"95 655 LINE SMOOTH",
"89 655 OFFCURVE",
"85 651 OFFCURVE",
"85 645 CURVE SMOOTH",
"85 10 LINE SMOOTH",
"85 4 OFFCURVE",
"89 0 OFFCURVE",
"95 0 CURVE SMOOTH"
);
}
);
width = 504;
},
{
anchors = (
{
name = bottom;
position = "{255, 0}";
},
{
name = top;
position = "{255, 655}";
}
);
layerId = "8E001827-4555-4882-9710-42A9586BB804";
paths = (
{
closed = 1;
nodes = (
"118 0 LINE SMOOTH",
"120 0 OFFCURVE",
"121 1 OFFCURVE",
"121 3 CURVE SMOOTH",
"121 320 LINE",
"421 320 LINE SMOOTH",
"423 320 OFFCURVE",
"424 321 OFFCURVE",
"424 323 CURVE SMOOTH",
"424 333 LINE SMOOTH",
"424 335 OFFCURVE",
"423 336 OFFCURVE",
"421 336 CURVE SMOOTH",
"121 336 LINE",
"121 639 LINE",
"455 639 LINE SMOOTH",
"457 639 OFFCURVE",
"458 640 OFFCURVE",
"458 642 CURVE SMOOTH",
"458 652 LINE SMOOTH",
"458 654 OFFCURVE",
"457 655 OFFCURVE",
"455 655 CURVE SMOOTH",
"108 655 LINE SMOOTH",
"106 655 OFFCURVE",
"105 654 OFFCURVE",
"105 652 CURVE SMOOTH",
"105 3 LINE SMOOTH",
"105 1 OFFCURVE",
"106 0 OFFCURVE",
"108 0 CURVE SMOOTH"
);
}
);
width = 518;
},
{
anchors = (
{
name = bottom;
position = "{282, 0}";
},
{
name = top;
position = "{282, 655}";
}
);
layerId = "39FE7167-BE3C-4E72-AD2E-460E8E32521A";
paths = (
{
closed = 1;
nodes = (
"224 0 LINE SMOOTH",
"232 0 OFFCURVE",
"238 6 OFFCURVE",
"238 15 CURVE SMOOTH",
"238 239 LINE",
"461 239 LINE SMOOTH",
"469 239 OFFCURVE",
"475 245 OFFCURVE",
"475 253 CURVE SMOOTH",
"475 380 LINE SMOOTH",
"475 389 OFFCURVE",
"469 395 OFFCURVE",
"461 395 CURVE SMOOTH",
"238 395 LINE",
"238 495 LINE",
"499 495 LINE SMOOTH",
"507 495 OFFCURVE",
"513 501 OFFCURVE",
"513 509 CURVE SMOOTH",
"513 640 LINE SMOOTH",
"513 649 OFFCURVE",
"507 655 OFFCURVE",
"499 655 CURVE SMOOTH",
"67 655 LINE SMOOTH",
"58 655 OFFCURVE",
"52 649 OFFCURVE",
"52 640 CURVE SMOOTH",
"52 15 LINE SMOOTH",
"52 6 OFFCURVE",
"58 0 OFFCURVE",
"67 0 CURVE SMOOTH"
);
}
);
width = 538;
}
);
leftKerningGroup = H;
leftMetricsKey = H;
rightKerningGroup = F;
unicode = 0046;
},
{
glyphname = G;
lastChange = "2019-08-22 23:01:14 +0000";
layers = (
{
anchors = (
{
name = bottom;
position = "{320, 0}";
},
{
name = top;
position = "{310, 655}";
},
{
name = topleft;
position = "{73, 655}";
}
);
guideLines = (
{
angle = 90;
position = "{568, 376}";
}
);
layerId = "9E4B8FD8-F8AF-4AA7-8E0D-0C907FFB2BDD";
paths = (
{
closed = 1;
nodes = (
"387 -12 OFFCURVE",
"455 15 OFFCURVE",
"494 71 CURVE",
"495 71 LINE",
"496 47 OFFCURVE",
"499 25 OFFCURVE",
"502 8 CURVE SMOOTH",
"503 3 OFFCURVE",
"507 0 OFFCURVE",
"513 0 CURVE SMOOTH",
"566 0 LINE SMOOTH",
"572 0 OFFCURVE",
"576 4 OFFCURVE",
"575 11 CURVE SMOOTH",
"570 48 OFFCURVE",
"568 85 OFFCURVE",
"568 127 CURVE SMOOTH",
"568 324 LINE SMOOTH",
"568 330 OFFCURVE",
"564 334 OFFCURVE",
"558 334 CURVE SMOOTH",
"333 334 LINE SMOOTH",
"327 334 OFFCURVE",
"323 330 OFFCURVE",
"323 324 CURVE SMOOTH",
"323 270 LINE SMOOTH",
"323 264 OFFCURVE",
"327 260 OFFCURVE",
"333 260 CURVE SMOOTH",
"489 260 LINE",
"489 222 LINE SMOOTH",
"489 118.688 OFFCURVE",
"429.459 63 OFFCURVE",
"319 63 CURVE SMOOTH",
"211.371 63 OFFCURVE",
"158 115.708 OFFCURVE",
"158 222 CURVE SMOOTH",
"158 433 LINE SMOOTH",
"158 537.909 OFFCURVE",
"215.19 592 OFFCURVE",
"326.111 592 CURVE SMOOTH",
"432 592 OFFCURVE",
"485 543 OFFCURVE",
"480 452 CURVE SMOOTH",
"479 446 OFFCURVE",
"483 442 OFFCURVE",
"489 442 CURVE SMOOTH",
"554 442 LINE SMOOTH",
"560 442 OFFCURVE",
"564 445 OFFCURVE",
"565 452 CURVE SMOOTH",
"584 583 OFFCURVE",
"481 667 OFFCURVE",
"324.137 667 CURVE SMOOTH",
"167.536 667 OFFCURVE",
"73 578.538 OFFCURVE",
"73 432 CURVE SMOOTH",
"73 223 LINE SMOOTH",
"73 75.794 OFFCURVE",
"160.082 -12 OFFCURVE",
"306.094 -12 CURVE SMOOTH"
);
}
);
width = 653;
},
{
anchors = (
{
name = bottom;
position = "{324, 0}";
},
{
name = top;
position = "{326, 655}";
},
{
name = topleft;
position = "{73, 655}";
}
);
guideLines = (
{
position = "{606, 466}";
}
);
layerId = "8E001827-4555-4882-9710-42A9586BB804";
paths = (
{
closed = 1;
nodes = (
"460 -12 OFFCURVE",
"514 62 OFFCURVE",
"535 138 CURVE",
"536 138 LINE",
"535 94 OFFCURVE",
"538 43 OFFCURVE",
"542 9 CURVE SMOOTH",
"543 0 OFFCURVE",
"545 0 OFFCURVE",
"547 0 CURVE SMOOTH",
"556 0 LINE SMOOTH",
"558 0 OFFCURVE",
"559 1 OFFCURVE",
"559 3 CURVE SMOOTH",
"554 45 OFFCURVE",
"550 88 OFFCURVE",
"550 140 CURVE SMOOTH",
"550 314 LINE SMOOTH",
"550 316 OFFCURVE",
"549 317 OFFCURVE",
"547 317 CURVE SMOOTH",
"343 317 LINE SMOOTH",
"341 317 OFFCURVE",
"340 316 OFFCURVE",
"340 314 CURVE SMOOTH",
"340 304 LINE SMOOTH",
"340 302 OFFCURVE",
"341 301 OFFCURVE",
"343 301 CURVE SMOOTH",
"534 301 LINE",
"534 248 LINE SMOOTH",
"534 82 OFFCURVE",
"460 4 OFFCURVE",
"321 4 CURVE SMOOTH",
"182 4 OFFCURVE",
"104 77 OFFCURVE",
"104 204 CURVE SMOOTH",
"104 451 LINE SMOOTH",
"104 578 OFFCURVE",
"182 651 OFFCURVE",
"321 651 CURVE SMOOTH",
"456 651 OFFCURVE",
"544 584 OFFCURVE",
"534 469 CURVE SMOOTH",
"534 467 OFFCURVE",
"535 466 OFFCURVE",
"537 466 CURVE SMOOTH",
"547 466 LINE SMOOTH",
"549 466 OFFCURVE",
"550 467 OFFCURVE",
"550 469 CURVE SMOOTH",
"560 592 OFFCURVE",
"468 667 OFFCURVE",
"321 667 CURVE SMOOTH",
"172 667 OFFCURVE",
"88 588 OFFCURVE",
"88 452 CURVE SMOOTH",
"88 203 LINE SMOOTH",
"88 67 OFFCURVE",
"172 -12 OFFCURVE",
"321 -12 CURVE SMOOTH"
);
}
);
width = 652;
},
{
anchors = (
{
name = bottom;
position = "{336, 0}";
},
{
name = top;
position = "{337, 655}";
},
{
name = topleft;
position = "{73, 655}";
}
);
layerId = "39FE7167-BE3C-4E72-AD2E-460E8E32521A";
paths = (
{
closed = 1;
nodes = (
"395 -12 OFFCURVE",
"439 28 OFFCURVE",
"466 75 CURVE",
"468 75 LINE",
"470 57 OFFCURVE",
"470 29 OFFCURVE",
"474 14 CURVE SMOOTH",
"477 4 OFFCURVE",
"481 0 OFFCURVE",
"489 0 CURVE SMOOTH",
"614 0 LINE SMOOTH",
"623 0 OFFCURVE",
"630 6 OFFCURVE",
"628 16 CURVE SMOOTH",
"619 63 OFFCURVE",
"618 133 OFFCURVE",
"618 184 CURVE SMOOTH",
"618 343 LINE SMOOTH",
"618 352 OFFCURVE",
"612 358 OFFCURVE",
"604 358 CURVE SMOOTH",
"341 358 LINE SMOOTH",
"332 358 OFFCURVE",
"326 352 OFFCURVE",
"326 343 CURVE SMOOTH",
"326 253 LINE SMOOTH",
"326 244 OFFCURVE",
"332 238 OFFCURVE",
"341 238 CURVE SMOOTH",
"438 238 LINE",
"438 217 LINE SMOOTH",
"438 172 OFFCURVE",
"405 148 OFFCURVE",
"342 148 CURVE SMOOTH",
"267 148 OFFCURVE",
"226 182 OFFCURVE",
"226 267 CURVE SMOOTH",
"226 388 LINE SMOOTH",
"226 473 OFFCURVE",
"263 507 OFFCURVE",
"334 507 CURVE SMOOTH",
"405 507 OFFCURVE",
"432 479 OFFCURVE",
"432 443 CURVE SMOOTH",
"432 433 OFFCURVE",
"435 427 OFFCURVE",
"445 427 CURVE SMOOTH",
"602 426 LINE SMOOTH",
"611 426 OFFCURVE",
"616 431 OFFCURVE",
"617 440 CURVE SMOOTH",
"631 563 OFFCURVE",
"539 667 OFFCURVE",
"331 667 CURVE SMOOTH",
"150 667 OFFCURVE",
"40 582 OFFCURVE",
"40 398 CURVE SMOOTH",
"40 257 LINE SMOOTH",
"40 73 OFFCURVE",
"153 -12 OFFCURVE",
"304 -12 CURVE SMOOTH"
);
}
);
width = 673;
}
);
leftKerningGroup = O;
leftMetricsKey = O;
rightKerningGroup = G;
unicode = 0047;
},
{
glyphname = H;
lastChange = "2019-08-22 23:01:14 +0000";
layers = (
{
anchors = (
{
name = bottom;
position = "{331, 0}";
},
{
name = center;
position = "{330, 328}";
},
{
name = top;
position = "{330, 655}";
},
{
name = topleft;
position = "{20, 655}";
}
);
layerId = "9E4B8FD8-F8AF-4AA7-8E0D-0C907FFB2BDD";
paths = (
{
closed = 1;
nodes = (
"160 0 LINE SMOOTH",
"166 0 OFFCURVE",
"170 4 OFFCURVE",
"170 10 CURVE SMOOTH",
"170 301 LINE",
"491 301 LINE",
"491 10 LINE SMOOTH",
"491 4 OFFCURVE",
"495 0 OFFCURVE",
"501 0 CURVE SMOOTH",
"566 0 LINE SMOOTH",
"572 0 OFFCURVE",
"576 4 OFFCURVE",
"576 10 CURVE SMOOTH",
"576 645 LINE SMOOTH",
"576 651 OFFCURVE",
"572 655 OFFCURVE",
"566 655 CURVE SMOOTH",
"501 655 LINE SMOOTH",
"495 655 OFFCURVE",
"491 651 OFFCURVE",
"491 645 CURVE SMOOTH",
"491 375 LINE",
"170 375 LINE",
"170 645 LINE SMOOTH",
"170 651 OFFCURVE",
"166 655 OFFCURVE",
"160 655 CURVE SMOOTH",
"95 655 LINE SMOOTH",
"89 655 OFFCURVE",
"85 651 OFFCURVE",
"85 645 CURVE SMOOTH",
"85 10 LINE SMOOTH",
"85 4 OFFCURVE",
"89 0 OFFCURVE",
"95 0 CURVE SMOOTH"
);
}
);
width = 661;
},
{
anchors = (
{
name = bottom;
position = "{329, 0}";
},
{
name = center;
position = "{333, 328}";
},
{
name = top;
position = "{329, 655}";
},
{
name = topleft;
position = "{61, 655}";
}
);
guideLines = (
{
angle = 90;
position = "{554, 378}";
}
);
layerId = "8E001827-4555-4882-9710-42A9586BB804";
paths = (
{
closed = 1;
nodes = (
"118 0 LINE SMOOTH",
"120 0 OFFCURVE",
"121 1 OFFCURVE",
"121 3 CURVE SMOOTH",
"121 331 LINE",
"540 331 LINE",
"540 3 LINE SMOOTH",
"540 1 OFFCURVE",
"541 0 OFFCURVE",
"543 0 CURVE SMOOTH",
"553 0 LINE SMOOTH",
"555 0 OFFCURVE",
"556 1 OFFCURVE",
"556 3 CURVE SMOOTH",
"556 652 LINE SMOOTH",
"556 654 OFFCURVE",
"555 655 OFFCURVE",
"553 655 CURVE SMOOTH",
"543 655 LINE SMOOTH",
"541 655 OFFCURVE",
"540 654 OFFCURVE",
"540 652 CURVE SMOOTH",
"540 347 LINE",
"121 347 LINE",
"121 652 LINE SMOOTH",
"121 654 OFFCURVE",
"120 655 OFFCURVE",
"118 655 CURVE SMOOTH",
"108 655 LINE SMOOTH",
"106 655 OFFCURVE",
"105 654 OFFCURVE",
"105 652 CURVE SMOOTH",
"105 3 LINE SMOOTH",
"105 1 OFFCURVE",
"106 0 OFFCURVE",
"108 0 CURVE SMOOTH"
);
}
);
width = 661;
},
{
anchors = (
{
name = bottom;
position = "{341, 0}";
},
{
name = center;
position = "{341, 328}";
},
{
name = top;
position = "{341, 655}";
},
{
name = topleft;
position = "{39, 655}";
}
);
layerId = "39FE7167-BE3C-4E72-AD2E-460E8E32521A";
paths = (
{
closed = 1;
nodes = (
"224 0 LINE SMOOTH",
"232 0 OFFCURVE",
"238 6 OFFCURVE",
"238 15 CURVE SMOOTH",
"238 247 LINE",
"443 247 LINE",
"443 15 LINE SMOOTH",
"443 6 OFFCURVE",
"449 0 OFFCURVE",
"458 0 CURVE SMOOTH",
"614 0 LINE SMOOTH",
"623 0 OFFCURVE",
"629 6 OFFCURVE",
"629 15 CURVE SMOOTH",
"629 640 LINE SMOOTH",
"629 649 OFFCURVE",
"623 655 OFFCURVE",
"614 655 CURVE SMOOTH",
"458 655 LINE SMOOTH",
"449 655 OFFCURVE",
"443 649 OFFCURVE",
"443 640 CURVE SMOOTH",
"443 407 LINE",
"238 407 LINE",
"238 640 LINE SMOOTH",
"238 649 OFFCURVE",
"232 655 OFFCURVE",
"224 655 CURVE SMOOTH",
"67 655 LINE SMOOTH",
"58 655 OFFCURVE",
"52 649 OFFCURVE",
"52 640 CURVE SMOOTH",
"52 15 LINE SMOOTH",
"52 6 OFFCURVE",
"58 0 OFFCURVE",
"67 0 CURVE SMOOTH"
);
}
);
width = 681;
}
);
leftKerningGroup = H;
rightKerningGroup = H;
unicode = 0048;
},
{
glyphname = Hbar;
lastChange = "2019-08-22 23:01:14 +0000";
layers = (
{
components = (
{
name = H;
}
);
layerId = "9E4B8FD8-F8AF-4AA7-8E0D-0C907FFB2BDD";
paths = (
{
closed = 1;
nodes = (
"85 516 LINE",
"576 516 LINE",
"622 516 LINE SMOOTH",
"628 516 OFFCURVE",
"632 520 OFFCURVE",
"632 526 CURVE SMOOTH",
"632 577 LINE SMOOTH",
"632 583 OFFCURVE",
"628 587 OFFCURVE",
"622 587 CURVE",
"39 587 LINE",
"33 587 OFFCURVE",
"29 583 OFFCURVE",
"29 577 CURVE SMOOTH",
"29 526 LINE SMOOTH",
"29 520 OFFCURVE",
"33 516 OFFCURVE",
"39 516 CURVE SMOOTH"
);
}
);
width = 661;
},
{
components = (
{
name = H;
}
);
layerId = "8E001827-4555-4882-9710-42A9586BB804";
paths = (
{
closed = 1;
nodes = (
"105 545 LINE",
"556 545 LINE",
"649 545 LINE SMOOTH",
"651 545 OFFCURVE",
"652 546 OFFCURVE",
"652 548 CURVE SMOOTH",
"652 558 LINE SMOOTH",
"652 560 OFFCURVE",
"651 561 OFFCURVE",
"649 561 CURVE SMOOTH",
"12 561 LINE SMOOTH",
"10 561 OFFCURVE",
"9 560 OFFCURVE",
"9 558 CURVE SMOOTH",
"9 548 LINE SMOOTH",
"9 546 OFFCURVE",
"10 545 OFFCURVE",
"12 545 CURVE SMOOTH"
);
}
);
width = 661;
},
{
components = (
{
name = H;
}
);
layerId = "39FE7167-BE3C-4E72-AD2E-460E8E32521A";
paths = (
{
closed = 1;
nodes = (
"52 482 LINE",
"629 482 LINE",
"668 482 LINE SMOOTH",
"677 482 OFFCURVE",
"683 488 OFFCURVE",
"683 497 CURVE SMOOTH",
"683 580 LINE SMOOTH",
"683 589 OFFCURVE",
"677 595 OFFCURVE",
"668 595 CURVE SMOOTH",
"12 595 LINE SMOOTH",
"3 595 OFFCURVE",
"-3 589 OFFCURVE",
"-3 580 CURVE SMOOTH",
"-3 497 LINE SMOOTH",
"-3 488 OFFCURVE",
"3 482 OFFCURVE",
"12 482 CURVE SMOOTH"
);
}
);
width = 680;
}
);
leftKerningGroup = H;
rightKerningGroup = H;
unicode = 0126;
},
{
glyphname = I;
lastChange = "2019-08-22 23:01:14 +0000";
layers = (
{
anchors = (
{
name = bottom;
position = "{128, 0}";
},
{
name = ogonek;
position = "{181, 10}";
},
{
name = top;
position = "{128, 655}";
},
{
name = topleft;
position = "{20, 655}";
}
);
layerId = "9E4B8FD8-F8AF-4AA7-8E0D-0C907FFB2BDD";
paths = (
{
closed = 1;
nodes = (
"160 0 LINE SMOOTH",
"166 0 OFFCURVE",
"170 4 OFFCURVE",
"170 10 CURVE SMOOTH",
"170 645 LINE SMOOTH",
"170 651 OFFCURVE",
"166 655 OFFCURVE",
"160 655 CURVE SMOOTH",
"95 655 LINE SMOOTH",
"89 655 OFFCURVE",
"85 651 OFFCURVE",
"85 645 CURVE SMOOTH",
"85 10 LINE SMOOTH",
"85 4 OFFCURVE",
"89 0 OFFCURVE",
"95 0 CURVE SMOOTH"
);
}
);
width = 255;
},
{
anchors = (
{
name = bottom;
position = "{113, 0}";
},
{
name = ogonek;
position = "{134, 10}";
},
{
name = top;
position = "{113, 655}";
},
{
name = topleft;
position = "{43, 655}";
}
);
layerId = "8E001827-4555-4882-9710-42A9586BB804";
paths = (
{
closed = 1;
nodes = (
"118 0 LINE SMOOTH",
"120 0 OFFCURVE",
"121 1 OFFCURVE",
"121 3 CURVE SMOOTH",
"121 652 LINE SMOOTH",
"121 654 OFFCURVE",
"120 655 OFFCURVE",
"118 655 CURVE SMOOTH",
"108 655 LINE SMOOTH",
"106 655 OFFCURVE",
"105 654 OFFCURVE",
"105 652 CURVE SMOOTH",
"105 3 LINE SMOOTH",
"105 1 OFFCURVE",
"106 0 OFFCURVE",
"108 0 CURVE SMOOTH"
);
}
);
width = 226;
},
{
anchors = (
{
name = bottom;
position = "{145, 0}";
},
{
name = ogonek;
position = "{241, 10}";
},
{
name = top;
position = "{147, 655}";
},
{
name = topleft;
position = "{20, 655}";
}
);
layerId = "39FE7167-BE3C-4E72-AD2E-460E8E32521A";
paths = (
{
closed = 1;
nodes = (
"223 0 LINE SMOOTH",
"232 0 OFFCURVE",
"238 6 OFFCURVE",
"238 15 CURVE SMOOTH",
"238 640 LINE SMOOTH",
"238 649 OFFCURVE",
"232 655 OFFCURVE",
"223 655 CURVE SMOOTH",
"67 655 LINE SMOOTH",
"58 655 OFFCURVE",
"52 649 OFFCURVE",
"52 640 CURVE SMOOTH",
"52 15 LINE SMOOTH",
"52 6 OFFCURVE",
"58 0 OFFCURVE",
"67 0 CURVE SMOOTH"
);
}
);
width = 290;
}
);
leftKerningGroup = H;
leftMetricsKey = H;
rightKerningGroup = H;
rightMetricsKey = H;
unicode = 0049;
},
{
glyphname = J;
lastChange = "2019-08-22 23:01:14 +0000";
layers = (
{
anchors = (
{
name = bottom;
position = "{133, 0}";
},
{
name = top;
position = "{138, 655}";
}
);
layerId = "9E4B8FD8-F8AF-4AA7-8E0D-0C907FFB2BDD";
paths = (
{
closed = 1;
nodes = (
"130 -117 OFFCURVE",
"180 -43 OFFCURVE",
"180 86 CURVE SMOOTH",
"180 645 LINE SMOOTH",
"180 651 OFFCURVE",
"176 655 OFFCURVE",
"170 655 CURVE SMOOTH",
"105 655 LINE SMOOTH",
"99 655 OFFCURVE",
"95 651 OFFCURVE",
"95 645 CURVE SMOOTH",
"95 82 LINE SMOOTH",
"95 2 OFFCURVE",
"67 -47 OFFCURVE",
"13 -60 CURVE SMOOTH",
"-2 -64 OFFCURVE",
"-7 -68 OFFCURVE",
"-5 -76 CURVE SMOOTH",
"12 -135 LINE SMOOTH",
"14 -142 OFFCURVE",
"20 -143 OFFCURVE",
"37 -139 CURVE SMOOTH"
);
}
);
width = 265;
},
{
anchors = (
{
name = bottom;
position = "{113, 0}";
},
{
name = top;
position = "{113, 655}";
}
);
layerId = "8E001827-4555-4882-9710-42A9586BB804";
paths = (
{
closed = 1;
nodes = (
"95 -125 OFFCURVE",
"121 -62 OFFCURVE",
"121 68 CURVE SMOOTH",
"121 652 LINE SMOOTH",
"121 654 OFFCURVE",
"120 655 OFFCURVE",
"118 655 CURVE SMOOTH",
"108 655 LINE SMOOTH",
"106 655 OFFCURVE",
"105 654 OFFCURVE",
"105 652 CURVE SMOOTH",
"105 68 LINE SMOOTH",
"105 -59 OFFCURVE",
"79 -111 OFFCURVE",
"5 -125 CURVE SMOOTH",
"3 -125 OFFCURVE",
"1 -127 OFFCURVE",
"2 -129 CURVE SMOOTH",
"4 -137 LINE SMOOTH",
"5 -139 OFFCURVE",
"5 -141 OFFCURVE",
"8 -140 CURVE SMOOTH"
);
}
);
width = 226;
},
{
anchors = (
{
name = bottom;
position = "{157, 0}";
},
{
name = top;
position = "{157, 655}";
}
);
layerId = "39FE7167-BE3C-4E72-AD2E-460E8E32521A";
paths = (
{
closed = 1;
nodes = (
"181 -158 OFFCURVE",
"248 -60 OFFCURVE",
"248 127 CURVE SMOOTH",
"248 640 LINE SMOOTH",
"248 649 OFFCURVE",
"242 655 OFFCURVE",
"233 655 CURVE SMOOTH",
"77 655 LINE SMOOTH",
"68 655 OFFCURVE",
"62 649 OFFCURVE",
"62 640 CURVE SMOOTH",
"62 112 LINE SMOOTH",
"62 30 OFFCURVE",
"37 -12 OFFCURVE",
"-9 -21 CURVE SMOOTH",
"-18 -23 OFFCURVE",
"-23 -31 OFFCURVE",
"-20 -40 CURVE SMOOTH",
"19 -163 LINE SMOOTH",
"22 -171 OFFCURVE",
"29 -175 OFFCURVE",
"38 -174 CURVE SMOOTH"
);
}
);
width = 300;
}
);
leftKerningGroup = J;
rightKerningGroup = J;
rightMetricsKey = H;
unicode = 004A;
},
{
glyphname = K;
lastChange = "2019-08-22 23:01:14 +0000";
layers = (
{
anchors = (
{
name = bottom;
position = "{318, 0}";
},
{
name = top;
position = "{295, 655}";
}
);
layerId = "9E4B8FD8-F8AF-4AA7-8E0D-0C907FFB2BDD";
paths = (
{
closed = 1;
nodes = (
"160 0 LINE SMOOTH",
"166 0 OFFCURVE",
"170 4 OFFCURVE",
"170 10 CURVE SMOOTH",
"170 220 LINE",
"266 324 LINE",
"477 7 LINE",
"480 3 OFFCURVE",
"484 0 OFFCURVE",
"489 0 CURVE SMOOTH",
"572 0 LINE SMOOTH",
"580 0 OFFCURVE",
"582 5 OFFCURVE",
"578 12 CURVE",
"325 389 LINE",
"560 643 LINE",
"566 650 OFFCURVE",
"562 655 OFFCURVE",
"554 655 CURVE SMOOTH",
"469 655 LINE SMOOTH",
"464 655 OFFCURVE",
"460 654 OFFCURVE",
"457 650 CURVE",
"262 433 LINE SMOOTH",
"231 398 OFFCURVE",
"200 365 OFFCURVE",
"170 331 CURVE",
"169 331 LINE",
"170 371 OFFCURVE",
"170 412 OFFCURVE",
"170 452 CURVE SMOOTH",
"170 645 LINE SMOOTH",
"170 651 OFFCURVE",
"166 655 OFFCURVE",
"160 655 CURVE SMOOTH",
"95 655 LINE SMOOTH",
"89 655 OFFCURVE",
"85 651 OFFCURVE",
"85 645 CURVE SMOOTH",
"85 10 LINE SMOOTH",
"85 4 OFFCURVE",
"89 0 OFFCURVE",
"95 0 CURVE SMOOTH"
);
}
);
width = 595;
},
{
anchors = (
{
name = bottom;
position = "{289, 0}";
},
{
name = top;
position = "{284, 655}";
}
);
layerId = "8E001827-4555-4882-9710-42A9586BB804";
paths = (
{
closed = 1;
nodes = (
"118 0 LINE SMOOTH",
"120 0 OFFCURVE",
"121 1 OFFCURVE",
"121 3 CURVE SMOOTH",
"121 213 LINE",
"264 370 LINE",
"527 2 LINE",
"528 0 OFFCURVE",
"529 0 OFFCURVE",
"531 0 CURVE SMOOTH",
"544 0 LINE SMOOTH",
"546 0 OFFCURVE",
"546 2 OFFCURVE",
"545 4 CURVE",
"275 382 LINE",
"519 651 LINE",
"521 653 OFFCURVE",
"521 655 OFFCURVE",
"519 655 CURVE SMOOTH",
"503 655 LINE SMOOTH",
"501 655 OFFCURVE",
"500 654 OFFCURVE",
"499 653 CURVE",
"257 386 LINE SMOOTH",
"212 336 OFFCURVE",
"166 286 OFFCURVE",
"121 236 CURVE",
"121 237 LINE",
"121 294 OFFCURVE",
"121 350 OFFCURVE",
"121 407 CURVE SMOOTH",
"121 652 LINE SMOOTH",
"121 654 OFFCURVE",
"120 655 OFFCURVE",
"118 655 CURVE SMOOTH",
"108 655 LINE SMOOTH",
"106 655 OFFCURVE",
"105 654 OFFCURVE",
"105 652 CURVE SMOOTH",
"105 3 LINE SMOOTH",
"105 1 OFFCURVE",
"106 0 OFFCURVE",
"108 0 CURVE SMOOTH"
);
}
);
width = 568;
},
{
anchors = (
{
name = bottom;
position = "{327, 0}";
},
{
name = top;
position = "{326, 655}";
}
);
layerId = "39FE7167-BE3C-4E72-AD2E-460E8E32521A";
paths = (
{
closed = 1;
nodes = (
"223 0 LINE SMOOTH",
"232 0 OFFCURVE",
"238 6 OFFCURVE",
"238 15 CURVE SMOOTH",
"238 166 LINE",
"301 242 LINE",
"428 10 LINE SMOOTH",
"432 2 OFFCURVE",
"438 0 OFFCURVE",
"446 0 CURVE SMOOTH",
"635 0 LINE SMOOTH",
"646 0 OFFCURVE",
"651 7 OFFCURVE",
"645 18 CURVE SMOOTH",
"428 390 LINE",
"620 637 LINE SMOOTH",
"628 647 OFFCURVE",
"623 655 OFFCURVE",
"611 655 CURVE SMOOTH",
"424 655 LINE SMOOTH",
"417 655 OFFCURVE",
"410 652 OFFCURVE",
"406 646 CURVE SMOOTH",
"306 510 LINE SMOOTH",
"278 471 OFFCURVE",
"256 431 OFFCURVE",
"236 392 CURVE",
"233 392 LINE",
"237 431 OFFCURVE",
"238 469 OFFCURVE",
"238 508 CURVE SMOOTH",
"238 640 LINE SMOOTH",
"238 649 OFFCURVE",
"232 655 OFFCURVE",
"223 655 CURVE SMOOTH",
"67 655 LINE SMOOTH",
"58 655 OFFCURVE",
"52 649 OFFCURVE",
"52 640 CURVE SMOOTH",
"52 15 LINE SMOOTH",
"52 6 OFFCURVE",
"58 0 OFFCURVE",
"67 0 CURVE SMOOTH"
);
}
);
width = 653;
}
);
leftKerningGroup = H;
leftMetricsKey = H;
rightKerningGroup = K;
unicode = 004B;
},
{
glyphname = L;
lastChange = "2019-08-22 23:01:14 +0000";
layers = (
{
anchors = (
{
name = bottom;
position = "{278, 0}";
},
{
name = center;
position = "{238, 328}";
},
{
name = top;
position = "{127, 655}";
},
{
name = topright;
position = "{456, 655}";
}
);
layerId = "9E4B8FD8-F8AF-4AA7-8E0D-0C907FFB2BDD";
paths = (
{
closed = 1;
nodes = (
"446 0 LINE SMOOTH",
"452 0 OFFCURVE",
"456 4 OFFCURVE",
"456 10 CURVE SMOOTH",
"456 67 LINE SMOOTH",
"456 73 OFFCURVE",
"452 77 OFFCURVE",
"446 77 CURVE SMOOTH",
"170 77 LINE",
"170 645 LINE SMOOTH",
"170 651 OFFCURVE",
"166 655 OFFCURVE",
"160 655 CURVE SMOOTH",
"95 655 LINE SMOOTH",
"89 655 OFFCURVE",
"85 651 OFFCURVE",
"85 645 CURVE SMOOTH",
"85 10 LINE SMOOTH",
"85 4 OFFCURVE",
"89 0 OFFCURVE",
"95 0 CURVE SMOOTH"
);
}
);
width = 476;
},
{
anchors = (
{
name = bottom;
position = "{281, 0}";
},
{
name = center;
position = "{270, 328}";
},
{
name = top;
position = "{113, 655}";
},
{
name = topright;
position = "{487, 655}";
}
);
layerId = "8E001827-4555-4882-9710-42A9586BB804";
paths = (
{
closed = 1;
nodes = (
"450 0 LINE SMOOTH",
"452 0 OFFCURVE",
"453 1 OFFCURVE",
"453 3 CURVE SMOOTH",
"453 13 LINE SMOOTH",
"453 15 OFFCURVE",
"452 16 OFFCURVE",
"450 16 CURVE SMOOTH",
"121 16 LINE",
"121 652 LINE SMOOTH",
"121 654 OFFCURVE",
"120 655 OFFCURVE",
"118 655 CURVE SMOOTH",
"108 655 LINE SMOOTH",
"106 655 OFFCURVE",
"105 654 OFFCURVE",
"105 652 CURVE SMOOTH",
"105 3 LINE SMOOTH",
"105 1 OFFCURVE",
"106 0 OFFCURVE",
"108 0 CURVE SMOOTH"
);
}
);
width = 483;
},
{
anchors = (
{
name = bottom;
position = "{274, 0}";
},
{
name = center;
position = "{282, 328}";
},
{
name = top;
position = "{147, 655}";
},
{
name = topright;
position = "{504, 655}";
}
);
layerId = "39FE7167-BE3C-4E72-AD2E-460E8E32521A";
paths = (
{
closed = 1;
nodes = (
"479 0 LINE SMOOTH",
"487 0 OFFCURVE",
"493 6 OFFCURVE",
"493 15 CURVE SMOOTH",
"493 146 LINE SMOOTH",
"493 154 OFFCURVE",
"487 160 OFFCURVE",
"479 160 CURVE SMOOTH",
"238 160 LINE",
"238 640 LINE SMOOTH",
"238 648 OFFCURVE",
"234 655 OFFCURVE",
"227 655 CURVE SMOOTH",
"67 655 LINE SMOOTH",
"58 655 OFFCURVE",
"52 649 OFFCURVE",
"52 640 CURVE SMOOTH",
"52 15 LINE SMOOTH",
"52 6 OFFCURVE",
"58 0 OFFCURVE",
"67 0 CURVE SMOOTH"
);
}
);
width = 508;
}
);
leftKerningGroup = H;
leftMetricsKey = H;
rightKerningGroup = L;
unicode = 004C;
},
{
glyphname = Lslash;
lastChange = "2019-08-22 23:01:14 +0000";
layers = (
{
components = (
{
name = L;
}
);
layerId = "9E4B8FD8-F8AF-4AA7-8E0D-0C907FFB2BDD";
paths = (
{
closed = 1;
nodes = (
"300 389 LINE SMOOTH",
"305 391 OFFCURVE",
"308 395 OFFCURVE",
"308 400 CURVE SMOOTH",
"308 455 LINE SMOOTH",
"308 462 OFFCURVE",
"303 466 OFFCURVE",
"296 463 CURVE SMOOTH",
"-5 339 LINE SMOOTH",
"-10 337 OFFCURVE",
"-13 333 OFFCURVE",
"-13 328 CURVE SMOOTH",
"-13 272 LINE SMOOTH",
"-13 265 OFFCURVE",
"-8 261 OFFCURVE",
"-1 264 CURVE SMOOTH"
);
}
);
width = 476;
},
{
components = (
{
name = L;
}
);
layerId = "8E001827-4555-4882-9710-42A9586BB804";
paths = (
{
closed = 1;
nodes = (
"297 404 LINE SMOOTH",
"299 405 OFFCURVE",
"299 406 OFFCURVE",
"299 408 CURVE SMOOTH",
"299 419 LINE SMOOTH",
"299 421 OFFCURVE",
"298 422 OFFCURVE",
"296 421 CURVE SMOOTH",
"2 296 LINE SMOOTH",
"0 295 OFFCURVE",
"0 294 OFFCURVE",
"0 292 CURVE SMOOTH",
"0 281 LINE SMOOTH",
"0 279 OFFCURVE",
"1 278 OFFCURVE",
"3 279 CURVE SMOOTH"
);
}
);
width = 483;
},
{
components = (
{
name = L;
}
);
layerId = "39FE7167-BE3C-4E72-AD2E-460E8E32521A";
rightMetricsKey = "=L";
paths = (
{
closed = 1;
nodes = (
"345 327 LINE SMOOTH",
"353 329 OFFCURVE",
"358 335 OFFCURVE",
"358 344 CURVE SMOOTH",
"358 450 LINE SMOOTH",
"358 460 OFFCURVE",
"351 465 OFFCURVE",
"341 462 CURVE SMOOTH",
"11 370 LINE SMOOTH",
"3 368 OFFCURVE",
"-2 362 OFFCURVE",
"-2 353 CURVE SMOOTH",
"-2 248 LINE SMOOTH",
"-2 238 OFFCURVE",
"5 233 OFFCURVE",
"15 236 CURVE SMOOTH"
);
}
);
width = 508;
}
);
leftKerningGroup = Lslash;
rightKerningGroup = L;
rightMetricsKey = "=L";
unicode = 0141;
},
{
glyphname = M;
lastChange = "2019-08-22 23:01:14 +0000";
layers = (
{
anchors = (
{
name = bottom;
position = "{385, 0}";
},
{
name = top;
position = "{385, 655}";
}
);
layerId = "9E4B8FD8-F8AF-4AA7-8E0D-0C907FFB2BDD";
paths = (
{
closed = 1;
nodes = (
"143 0 LINE SMOOTH",
"149 0 OFFCURVE",
"153 3 OFFCURVE",
"153 10 CURVE SMOOTH",
"163 416 LINE SMOOTH",
"164 463 OFFCURVE",
"163 511 OFFCURVE",
"161 558 CURVE",
"163 558 LINE",
"182 511 OFFCURVE",
"200 464 OFFCURVE",
"222 417 CURVE SMOOTH",
"372 91 LINE SMOOTH",
"374 86 OFFCURVE",
"378 84 OFFCURVE",
"383 84 CURVE SMOOTH",
"385 84 LINE SMOOTH",
"390 84 OFFCURVE",
"394 86 OFFCURVE",
"396 91 CURVE SMOOTH",
"544 412 LINE SMOOTH",
"566 461 OFFCURVE",
"587 509 OFFCURVE",
"607 558 CURVE",
"609 558 LINE",
"607 509 OFFCURVE",
"605 461 OFFCURVE",
"606 412 CURVE SMOOTH",
"616 10 LINE SMOOTH",
"616 3 OFFCURVE",
"620 0 OFFCURVE",
"626 0 CURVE SMOOTH",
"689 0 LINE SMOOTH",
"695 0 OFFCURVE",
"699 4 OFFCURVE",
"699 10 CURVE SMOOTH",
"685 645 LINE SMOOTH",
"685 652 OFFCURVE",
"681 655 OFFCURVE",
"675 655 CURVE SMOOTH",
"569 655 LINE SMOOTH",
"564 655 OFFCURVE",
"561 653 OFFCURVE",
"558 647 CURVE SMOOTH",
"386 254 LINE",
"211 647 LINE SMOOTH",
"208 653 OFFCURVE",
"205 655 OFFCURVE",
"200 655 CURVE SMOOTH",
"94 655 LINE SMOOTH",
"88 655 OFFCURVE",
"84 652 OFFCURVE",
"84 645 CURVE SMOOTH",
"70 10 LINE SMOOTH",
"70 4 OFFCURVE",
"74 0 OFFCURVE",
"80 0 CURVE SMOOTH"
);
}
);
width = 769;
},
{
anchors = (
{
name = bottom;
position = "{379, 0}";
},
{
name = top;
position = "{379, 655}";
}
);
layerId = "8E001827-4555-4882-9710-42A9586BB804";
paths = (
{
closed = 1;
nodes = (
"102 0 LINE SMOOTH",
"104 0 OFFCURVE",
"105 1 OFFCURVE",
"105 3 CURVE SMOOTH",
"119 535 LINE SMOOTH",
"120 568 OFFCURVE",
"121 600 OFFCURVE",
"122 633 CURVE",
"123 633 LINE",
"137 604 OFFCURVE",
"152 574 OFFCURVE",
"167 545 CURVE SMOOTH",
"381 130 LINE SMOOTH",
"382 128 OFFCURVE",
"383 128 OFFCURVE",
"384 128 CURVE SMOOTH",
"386 128 LINE SMOOTH",
"387 128 OFFCURVE",
"388 128 OFFCURVE",
"389 130 CURVE SMOOTH",
"603 545 LINE SMOOTH",
"618 574 OFFCURVE",
"633 604 OFFCURVE",
"647 633 CURVE",
"648 633 LINE",
"649 600 OFFCURVE",
"650 568 OFFCURVE",
"651 535 CURVE SMOOTH",
"665 3 LINE SMOOTH",
"665 1 OFFCURVE",
"666 0 OFFCURVE",
"668 0 CURVE SMOOTH",
"679 0 LINE SMOOTH",
"681 0 OFFCURVE",
"682 1 OFFCURVE",
"682 3 CURVE SMOOTH",
"664 652 LINE SMOOTH",
"664 654 OFFCURVE",
"663 655 OFFCURVE",
"661 655 CURVE SMOOTH",
"642 655 LINE SMOOTH",
"641 655 OFFCURVE",
"640 655 OFFCURVE",
"639 653 CURVE SMOOTH",
"385 156 LINE",
"131 653 LINE SMOOTH",
"130 655 OFFCURVE",
"129 655 OFFCURVE",
"128 655 CURVE SMOOTH",
"109 655 LINE SMOOTH",
"107 655 OFFCURVE",
"106 654 OFFCURVE",
"106 652 CURVE SMOOTH",
"88 3 LINE SMOOTH",
"88 1 OFFCURVE",
"89 0 OFFCURVE",
"91 0 CURVE SMOOTH"
);
}
);
width = 758;
},
{
anchors = (
{
name = bottom;
position = "{408, 0}";
},
{
name = top;
position = "{408, 655}";
}
);
layerId = "39FE7167-BE3C-4E72-AD2E-460E8E32521A";
paths = (
{
closed = 1;
nodes = (
"208 0 LINE SMOOTH",
"217 0 OFFCURVE",
"223 6 OFFCURVE",
"223 15 CURVE SMOOTH",
"227 190 LINE SMOOTH",
"228 249 OFFCURVE",
"225 317 OFFCURVE",
"222 376 CURVE",
"226 376 LINE",
"250 321 OFFCURVE",
"280 256 OFFCURVE",
"310 201 CURVE SMOOTH",
"387 60 LINE SMOOTH",
"391 52 OFFCURVE",
"397 50 OFFCURVE",
"404 50 CURVE SMOOTH",
"412 50 LINE SMOOTH",
"420 50 OFFCURVE",
"426 52 OFFCURVE",
"430 60 CURVE SMOOTH",
"507 201 LINE SMOOTH",
"537 256 OFFCURVE",
"567 321 OFFCURVE",
"591 376 CURVE",
"595 376 LINE",
"592 318 OFFCURVE",
"589 249 OFFCURVE",
"590 191 CURVE SMOOTH",
"594 15 LINE SMOOTH",
"594 6 OFFCURVE",
"600 0 OFFCURVE",
"609 0 CURVE SMOOTH",
"762 0 LINE SMOOTH",
"770 0 OFFCURVE",
"776 6 OFFCURVE",
"776 15 CURVE SMOOTH",
"763 640 LINE SMOOTH",
"763 649 OFFCURVE",
"757 655 OFFCURVE",
"749 655 CURVE SMOOTH",
"577 655 LINE SMOOTH",
"569 655 OFFCURVE",
"563 652 OFFCURVE",
"559 644 CURVE SMOOTH",
"408 334 LINE",
"257 644 LINE SMOOTH",
"253 652 OFFCURVE",
"248 655 OFFCURVE",
"240 655 CURVE SMOOTH",
"68 655 LINE SMOOTH",
"59 655 OFFCURVE",
"53 649 OFFCURVE",
"53 640 CURVE SMOOTH",
"40 15 LINE SMOOTH",
"40 6 OFFCURVE",
"46 0 OFFCURVE",
"55 0 CURVE SMOOTH"
);
}
);
width = 816;
}
);
leftKerningGroup = M;
rightKerningGroup = M;
unicode = 004D;
},
{
glyphname = N;
lastChange = "2022-10-25 01:21:35 +0000";
layers = (
{
anchors = (
{
name = bottom;
position = "{331, 0}";
},
{
name = top;
position = "{331, 655}";
}
);
guideLines = (
{
position = "{282, 270}";
},
{
position = "{190, 372}";
}
);
layerId = "9E4B8FD8-F8AF-4AA7-8E0D-0C907FFB2BDD";
paths = (
{
closed = 1;
nodes = (
"159 0 LINE SMOOTH",
"165 0 OFFCURVE",
"169 4 OFFCURVE",
"169 10 CURVE SMOOTH",
"169 371 LINE SMOOTH",
"169 440 OFFCURVE",
"168 494 OFFCURVE",
"168 563 CURVE",
"170 563 LINE",
"196 503 OFFCURVE",
"225 444 OFFCURVE",
"257 379 CURVE SMOOTH",
"442 7 LINE SMOOTH",
"444 2 OFFCURVE",
"449 0 OFFCURVE",
"454 0 CURVE SMOOTH",
"567 0 LINE SMOOTH",
"573 0 OFFCURVE",
"577 4 OFFCURVE",
"577 10 CURVE SMOOTH",
"577 645 LINE SMOOTH",
"577 651 OFFCURVE",
"573 655 OFFCURVE",
"567 655 CURVE SMOOTH",
"503 655 LINE SMOOTH",
"497 655 OFFCURVE",
"493 651 OFFCURVE",
"493 645 CURVE SMOOTH",
"493 270 LINE SMOOTH",
"493 215 OFFCURVE",
"494 147 OFFCURVE",
"494 92 CURVE",
"492 92 LINE",
"472 142 OFFCURVE",
"448 192 OFFCURVE",
"411 266 CURVE SMOOTH",
"223 648 LINE SMOOTH",
"221 653 OFFCURVE",
"216 655 OFFCURVE",
"211 655 CURVE SMOOTH",
"95 655 LINE SMOOTH",
"89 655 OFFCURVE",
"85 651 OFFCURVE",
"85 645 CURVE SMOOTH",
"85 10 LINE SMOOTH",
"85 4 OFFCURVE",
"89 0 OFFCURVE",
"95 0 CURVE SMOOTH"
);
}
);
width = 662;
},
{
anchors = (
{
name = bottom;
position = "{330, 0}";
},
{
name = top;
position = "{334, 655}";
}
);
guideLines = (
{
position = "{282, 270}";
},
{
position = "{190, 372}";
}
);
layerId = "8E001827-4555-4882-9710-42A9586BB804";
paths = (
{
closed = 1;
nodes = (
"118 0 LINE SMOOTH",
"120 0 OFFCURVE",
"121 1 OFFCURVE",
"121 3 CURVE SMOOTH",
"121 372 LINE SMOOTH",
"121 459 OFFCURVE",
"121 546 OFFCURVE",
"121 633 CURVE",
"122 633 LINE",
"179 546 OFFCURVE",
"237 459 OFFCURVE",
"294 372 CURVE SMOOTH",
"538 2 LINE SMOOTH",
"539 0 OFFCURVE",
"540 0 OFFCURVE",
"541 0 CURVE SMOOTH",
"559 0 LINE SMOOTH",
"561 0 OFFCURVE",
"562 1 OFFCURVE",
"562 3 CURVE SMOOTH",
"562 652 LINE SMOOTH",
"562 654 OFFCURVE",
"561 655 OFFCURVE",
"559 655 CURVE SMOOTH",
"549 655 LINE SMOOTH",
"547 655 OFFCURVE",
"546 654 OFFCURVE",
"546 652 CURVE SMOOTH",
"546 270 LINE SMOOTH",
"546 187 OFFCURVE",
"546 105 OFFCURVE",
"546 22 CURVE",
"545 22 LINE",
"491 104 OFFCURVE",
"436 186 OFFCURVE",
"382 268 CURVE SMOOTH",
"128 653 LINE SMOOTH",
"127 655 OFFCURVE",
"126 655 OFFCURVE",
"125 655 CURVE SMOOTH",
"108 655 LINE SMOOTH",
"106 655 OFFCURVE",
"105 654 OFFCURVE",
"105 652 CURVE SMOOTH",
"105 3 LINE SMOOTH",
"105 1 OFFCURVE",
"106 0 OFFCURVE",
"108 0 CURVE SMOOTH"
);
}
);
width = 667;
},
{
anchors = (
{
name = bottom;
position = "{342, 0}";
},
{
name = top;
position = "{342, 655}";
}
);
layerId = "39FE7167-BE3C-4E72-AD2E-460E8E32521A";
rightMetricsKey = "=H";
paths = (
{
closed = 1;
nodes = (
"216 0 LINE SMOOTH",
"225 0 OFFCURVE",
"231 6 OFFCURVE",
"231 15 CURVE SMOOTH",
"231 208 LINE SMOOTH",
"231 260 OFFCURVE",
"231 346 OFFCURVE",
"226 397 CURVE",
"230 397 LINE",
"250 348 OFFCURVE",
"279 266 OFFCURVE",
"305 214 CURVE SMOOTH",
"408 11 LINE SMOOTH",
"412 4 OFFCURVE",
"417 0 OFFCURVE",
"425 0 CURVE SMOOTH",
"617 0 LINE SMOOTH",
"625 0 OFFCURVE",
"631 6 OFFCURVE",
"631 15 CURVE SMOOTH",
"631 640 LINE SMOOTH",
"631 649 OFFCURVE",
"625 655 OFFCURVE",
"617 655 CURVE SMOOTH",
"466 655 LINE SMOOTH",
"458 655 OFFCURVE",
"452 649 OFFCURVE",
"452 640 CURVE SMOOTH",
"452 435 LINE SMOOTH",
"452 384 OFFCURVE",
"456 300 OFFCURVE",
"464 249 CURVE",
"460 249 LINE",
"445 297 OFFCURVE",
"410 376 OFFCURVE",
"384 428 CURVE SMOOTH",
"275 644 LINE SMOOTH",
"271 651 OFFCURVE",
"266 655 OFFCURVE",
"258 655 CURVE SMOOTH",
"67 655 LINE SMOOTH",
"58 655 OFFCURVE",
"52 649 OFFCURVE",
"52 640 CURVE SMOOTH",
"52 15 LINE SMOOTH",
"52 6 OFFCURVE",
"58 0 OFFCURVE",
"67 0 CURVE SMOOTH"
);
}
);
width = 683;
}
);
leftKerningGroup = H;
leftMetricsKey = H;
rightKerningGroup = H;
rightMetricsKey = H;
unicode = 004E;
},
{
glyphname = Eng;
lastChange = "2022-10-25 01:21:35 +0000";
layers = (
{
layerId = "9E4B8FD8-F8AF-4AA7-8E0D-0C907FFB2BDD";
paths = (
{
closed = 1;
nodes = (
"449 -193 OFFCURVE",
"455 -192 OFFCURVE",
"471 -182 CURVE SMOOTH",
"540 -139 OFFCURVE",
"577 -57 OFFCURVE",
"577 60 CURVE SMOOTH",
"577 645 LINE SMOOTH",
"577 651 OFFCURVE",
"573 655 OFFCURVE",
"567 655 CURVE SMOOTH",
"503 655 LINE SMOOTH",
"497 655 OFFCURVE",
"493 651 OFFCURVE",
"493 645 CURVE SMOOTH",
"493 270 LINE SMOOTH",
"493 215 OFFCURVE",
"494 147 OFFCURVE",
"494 92 CURVE",
"492 92 LINE",
"472 142 OFFCURVE",
"448 192 OFFCURVE",
"411 266 CURVE SMOOTH",
"223 648 LINE",
"221 653 OFFCURVE",
"216 655 OFFCURVE",
"211 655 CURVE SMOOTH",
"95 655 LINE SMOOTH",
"89 655 OFFCURVE",
"85 651 OFFCURVE",
"85 645 CURVE SMOOTH",
"85 10 LINE SMOOTH",
"85 4 OFFCURVE",
"89 0 OFFCURVE",
"95 0 CURVE SMOOTH",
"159 0 LINE SMOOTH",
"165 0 OFFCURVE",
"169 4 OFFCURVE",
"169 10 CURVE SMOOTH",
"169 371 LINE SMOOTH",
"169 440 OFFCURVE",
"168 494 OFFCURVE",
"168 563 CURVE",
"170 563 LINE",
"196 503 OFFCURVE",
"225 444 OFFCURVE",
"257 379 CURVE SMOOTH",
"442 7 LINE",
"444 2 OFFCURVE",
"449 0 OFFCURVE",
"454 0 CURVE SMOOTH",
"488 0 LINE",
"479 -51 OFFCURVE",
"452 -95 OFFCURVE",
"415 -120 CURVE",
"403 -127 OFFCURVE",
"400 -132 OFFCURVE",
"405 -138 CURVE SMOOTH",
"444 -187 LINE SMOOTH"
);
}
);
width = 662;
},
{
layerId = "8E001827-4555-4882-9710-42A9586BB804";
paths = (
{
closed = 1;
nodes = (
"466 -170 OFFCURVE",
"468 -170 OFFCURVE",
"469 -169 CURVE SMOOTH",
"534 -104 OFFCURVE",
"562 -59 OFFCURVE",
"562 38 CURVE SMOOTH",
"562 652 LINE SMOOTH",
"562 654 OFFCURVE",
"561 655 OFFCURVE",
"559 655 CURVE SMOOTH",
"549 655 LINE SMOOTH",
"547 655 OFFCURVE",
"546 654 OFFCURVE",
"546 652 CURVE SMOOTH",
"546 270 LINE SMOOTH",
"546 187 OFFCURVE",
"546 105 OFFCURVE",
"546 22 CURVE",
"545 22 LINE",
"491 104 OFFCURVE",
"436 186 OFFCURVE",
"382 268 CURVE SMOOTH",
"128 653 LINE",
"127 655 OFFCURVE",
"126 655 OFFCURVE",
"125 655 CURVE SMOOTH",
"108 655 LINE SMOOTH",
"106 655 OFFCURVE",
"105 654 OFFCURVE",
"105 652 CURVE SMOOTH",
"105 3 LINE SMOOTH",
"105 1 OFFCURVE",
"106 0 OFFCURVE",
"108 0 CURVE SMOOTH",
"118 0 LINE SMOOTH",
"120 0 OFFCURVE",
"121 1 OFFCURVE",
"121 3 CURVE SMOOTH",
"121 372 LINE SMOOTH",
"121 459 OFFCURVE",
"121 546 OFFCURVE",
"121 633 CURVE",
"122 633 LINE",
"179 546 OFFCURVE",
"237 459 OFFCURVE",
"294 372 CURVE SMOOTH",
"538 2 LINE",
"539 0 OFFCURVE",
"540 0 OFFCURVE",
"541 0 CURVE SMOOTH",
"544 0 LINE",
"538 -67 OFFCURVE",
"511 -102 OFFCURVE",
"458 -155 CURVE SMOOTH",
"457 -156 OFFCURVE",
"457 -158 OFFCURVE",
"458 -159 CURVE",
"465 -169 LINE"
);
}
);
width = 667;
},
{
layerId = "39FE7167-BE3C-4E72-AD2E-460E8E32521A";
paths = (
{
closed = 1;
nodes = (
"478 -194 OFFCURVE",
"485 -195 OFFCURVE",
"490 -192 CURVE SMOOTH",
"598 -127 OFFCURVE",
"631 -45 OFFCURVE",
"631 100 CURVE SMOOTH",
"631 640 LINE SMOOTH",
"631 649 OFFCURVE",
"625 655 OFFCURVE",
"617 655 CURVE SMOOTH",
"466 655 LINE SMOOTH",
"458 655 OFFCURVE",
"452 649 OFFCURVE",
"452 640 CURVE SMOOTH",
"452 435 LINE SMOOTH",
"452 384 OFFCURVE",
"456 300 OFFCURVE",
"464 249 CURVE",
"460 249 LINE",
"445 297 OFFCURVE",
"410 376 OFFCURVE",
"384 428 CURVE SMOOTH",
"275 644 LINE",
"271 651 OFFCURVE",
"266 655 OFFCURVE",
"258 655 CURVE SMOOTH",
"67 655 LINE SMOOTH",
"58 655 OFFCURVE",
"52 649 OFFCURVE",
"52 640 CURVE SMOOTH",
"52 15 LINE SMOOTH",
"52 6 OFFCURVE",
"58 0 OFFCURVE",
"67 0 CURVE SMOOTH",
"216 0 LINE SMOOTH",
"225 0 OFFCURVE",
"231 6 OFFCURVE",
"231 15 CURVE SMOOTH",
"231 208 LINE SMOOTH",
"231 260 OFFCURVE",
"231 346 OFFCURVE",
"226 397 CURVE",
"230 397 LINE",
"250 348 OFFCURVE",
"279 266 OFFCURVE",
"305 214 CURVE SMOOTH",
"408 11 LINE",
"412 4 OFFCURVE",
"417 0 OFFCURVE",
"425 0 CURVE SMOOTH",
"437 0 LINE",
"426 -28 OFFCURVE",
"410 -50 OFFCURVE",
"387 -67 CURVE SMOOTH",
"379 -73 OFFCURVE",
"379 -84 OFFCURVE",
"385 -90 CURVE",
"474 -189 LINE"
);
}
);
width = 683;
}
);
leftKerningGroup = H;
leftMetricsKey = H;
rightKerningGroup = H;
rightMetricsKey = H;
unicode = 014A;
},
{
glyphname = O;
lastChange = "2019-08-22 23:01:14 +0000";
layers = (
{
anchors = (
{
name = bottom;
position = "{321, 0}";
},
{
name = center;
position = "{321, 328}";
},
{
name = ogonek;
position = "{578, 10}";
},
{
name = top;
position = "{321, 655}";
},
{
name = topleft;
position = "{71, 655}";
},
{
name = topright;
position = "{622, 655}";
}
);
layerId = "9E4B8FD8-F8AF-4AA7-8E0D-0C907FFB2BDD";
paths = (
{
closed = 1;
nodes = (
"488 -12 OFFCURVE",
"569 73 OFFCURVE",
"569 223 CURVE SMOOTH",
"569 432 LINE SMOOTH",
"569 582 OFFCURVE",
"488 667 OFFCURVE",
"321 667 CURVE SMOOTH",
"154 667 OFFCURVE",
"73 582 OFFCURVE",
"73 432 CURVE SMOOTH",
"73 223 LINE SMOOTH",
"73 73 OFFCURVE",
"154 -12 OFFCURVE",
"321 -12 CURVE SMOOTH"
);
},
{
closed = 1;
nodes = (
"215 63 OFFCURVE",
"158 118 OFFCURVE",
"158 224 CURVE SMOOTH",
"158 431 LINE SMOOTH",
"158 537 OFFCURVE",
"215 592 OFFCURVE",
"321 592 CURVE SMOOTH",
"427 592 OFFCURVE",
"484 537 OFFCURVE",
"484 431 CURVE SMOOTH",
"484 224 LINE SMOOTH",
"484 118 OFFCURVE",
"427 63 OFFCURVE",
"321 63 CURVE SMOOTH"
);
}
);
width = 642;
},
{
anchors = (
{
name = bottom;
position = "{322, 0}";
},
{
name = center;
position = "{322, 328}";
},
{
name = ogonek;
position = "{580, 10}";
},
{
name = top;
position = "{321, 655}";
},
{
name = topleft;
position = "{20, 655}";
},
{
name = topright;
position = "{624, 655}";
}
);
guideLines = (
{
angle = 90;
position = "{550, 390}";
},
{
angle = 270;
position = "{94, 328}";
}
);
layerId = "8E001827-4555-4882-9710-42A9586BB804";
paths = (
{
closed = 1;
nodes = (
"470 -12 OFFCURVE",
"554 67 OFFCURVE",
"554 203 CURVE SMOOTH",
"554 452 LINE SMOOTH",
"554 588 OFFCURVE",
"470 667 OFFCURVE",
"321 667 CURVE SMOOTH",
"172 667 OFFCURVE",
"88 588 OFFCURVE",
"88 452 CURVE SMOOTH",
"88 203 LINE SMOOTH",
"88 67 OFFCURVE",
"172 -12 OFFCURVE",
"321 -12 CURVE SMOOTH"
);
},
{
closed = 1;
nodes = (
"182 4 OFFCURVE",
"104 77 OFFCURVE",
"104 204 CURVE SMOOTH",
"104 451 LINE SMOOTH",
"104 578 OFFCURVE",
"182 651 OFFCURVE",
"321 651 CURVE SMOOTH",
"460 651 OFFCURVE",
"538 578 OFFCURVE",
"538 451 CURVE SMOOTH",
"538 204 LINE SMOOTH",
"538 77 OFFCURVE",
"460 4 OFFCURVE",
"321 4 CURVE SMOOTH"
);
}
);
width = 642;
},
{
anchors = (
{
name = bottom;
position = "{334, 0}";
},
{
name = center;
position = "{334, 328}";
},
{
name = ogonek;
position = "{602, 10}";
},
{
name = top;
position = "{334, 655}";
},
{
name = topleft;
position = "{23, 655}";
},
{
name = topright;
position = "{649, 655}";
}
);
layerId = "39FE7167-BE3C-4E72-AD2E-460E8E32521A";
paths = (
{
closed = 1;
nodes = (
"526 -12 OFFCURVE",
"628 78 OFFCURVE",
"628 256 CURVE SMOOTH",
"628 399 LINE SMOOTH",
"628 577 OFFCURVE",
"526 667 OFFCURVE",
"334 667 CURVE SMOOTH",
"142 667 OFFCURVE",
"40 577 OFFCURVE",
"40 399 CURVE SMOOTH",
"40 256 LINE SMOOTH",
"40 78 OFFCURVE",
"142 -12 OFFCURVE",
"334 -12 CURVE SMOOTH"
);
},
{
closed = 1;
nodes = (
"260 150 OFFCURVE",
"226 193 OFFCURVE",
"226 270 CURVE SMOOTH",
"226 385 LINE SMOOTH",
"226 462 OFFCURVE",
"260 505 OFFCURVE",
"334 505 CURVE SMOOTH",
"408 505 OFFCURVE",
"442 462 OFFCURVE",
"442 385 CURVE SMOOTH",
"442 270 LINE SMOOTH",
"442 193 OFFCURVE",
"408 150 OFFCURVE",
"334 150 CURVE SMOOTH"
);
}
);
width = 668;
}
);
leftKerningGroup = O;
rightKerningGroup = O;
unicode = 004F;
},
{
glyphname = Oslash;
lastChange = "2019-08-22 23:01:14 +0000";
layers = (
{
anchors = (
{
name = top;
position = "{321, 655}";
}
);
components = (
{
name = O;
}
);
layerId = "9E4B8FD8-F8AF-4AA7-8E0D-0C907FFB2BDD";
paths = (
{
closed = 1;
nodes = (
"115 -50 LINE SMOOTH",
"120 -50 OFFCURVE",
"124 -49 OFFCURVE",
"127 -44 CURVE",
"182 43 LINE",
"202 75 LINE",
"489 524 LINE",
"512 561 LINE",
"596 693 LINE",
"600 700 OFFCURVE",
"598 705 OFFCURVE",
"590 705 CURVE SMOOTH",
"527 705 LINE SMOOTH",
"522 705 OFFCURVE",
"518 704 OFFCURVE",
"515 699 CURVE",
"461 614 LINE",
"446 590 LINE",
"158 137 LINE",
"128 90 LINE",
"46 -38 LINE",
"42 -45 OFFCURVE",
"44 -50 OFFCURVE",
"52 -50 CURVE SMOOTH"
);
}
);
width = 642;
},
{
anchors = (
{
name = top;
position = "{321, 655}";
}
);
components = (
{
name = O;
}
);
layerId = "8E001827-4555-4882-9710-42A9586BB804";
paths = (
{
closed = 1;
nodes = (
"84 -48 LINE SMOOTH",
"85 -48 OFFCURVE",
"86 -48 OFFCURVE",
"87 -46 CURVE",
"151 52 LINE",
"154 57 LINE",
"499 587 LINE",
"503 593 LINE",
"572 699 LINE",
"573 701 OFFCURVE",
"572 703 OFFCURVE",
"570 703 CURVE SMOOTH",
"558 703 LINE SMOOTH",
"557 703 OFFCURVE",
"556 703 OFFCURVE",
"555 701 CURVE",
"492 604 LINE",
"488 598 LINE",
"143 68 LINE",
"139 61 LINE",
"70 -44 LINE",
"69 -46 OFFCURVE",
"70 -48 OFFCURVE",
"72 -48 CURVE SMOOTH"
);
}
);
width = 642;
},
{
anchors = (
{
name = top;
position = "{335, 655}";
}
);
components = (
{
name = O;
}
);
layerId = "39FE7167-BE3C-4E72-AD2E-460E8E32521A";
paths = (
{
closed = 1;
nodes = (
"191 -50 LINE SMOOTH",
"199 -50 OFFCURVE",
"205 -48 OFFCURVE",
"209 -40 CURVE SMOOTH",
"233 3 LINE",
"293 148 LINE",
"454 446 LINE",
"549 579 LINE",
"608 687 LINE SMOOTH",
"613 697 OFFCURVE",
"609 705 OFFCURVE",
"598 705 CURVE SMOOTH",
"479 705 LINE SMOOTH",
"471 705 OFFCURVE",
"465 702 OFFCURVE",
"461 694 CURVE SMOOTH",
"436 647 LINE",
"379 505 LINE",
"208 191 LINE",
"125 81 LINE",
"61 -32 LINE SMOOTH",
"55 -43 OFFCURVE",
"61 -50 OFFCURVE",
"72 -50 CURVE SMOOTH"
);
}
);
width = 668;
}
);
leftKerningGroup = O;
rightKerningGroup = O;
unicode = 00D8;
},
{
glyphname = OE;
lastChange = "2019-08-22 23:01:14 +0000";
layers = (
{
layerId = "9E4B8FD8-F8AF-4AA7-8E0D-0C907FFB2BDD";
paths = (
{
closed = 1;
nodes = (
"356 -12 OFFCURVE",
"398 -8 OFFCURVE",
"426 0 CURVE",
"792 0 LINE SMOOTH",
"798 0 OFFCURVE",
"802 4 OFFCURVE",
"802 10 CURVE SMOOTH",
"802 67 LINE SMOOTH",
"802 73 OFFCURVE",
"798 77 OFFCURVE",
"792 77 CURVE SMOOTH",
"511 77 LINE",
"511 296 LINE",
"768 296 LINE SMOOTH",
"774 296 OFFCURVE",
"778 300 OFFCURVE",
"778 306 CURVE SMOOTH",
"778 360 LINE SMOOTH",
"778 366 OFFCURVE",
"774 370 OFFCURVE",
"768 370 CURVE SMOOTH",
"511 370 LINE",
"511 578 LINE",
"792 578 LINE SMOOTH",
"798 578 OFFCURVE",
"802 582 OFFCURVE",
"802 588 CURVE SMOOTH",
"802 645 LINE SMOOTH",
"802 651 OFFCURVE",
"798 655 OFFCURVE",
"792 655 CURVE SMOOTH",
"426 655 LINE",
"398 663 OFFCURVE",
"356 667 OFFCURVE",
"321 667 CURVE SMOOTH",
"155 667 OFFCURVE",
"73 580 OFFCURVE",
"73 432 CURVE SMOOTH",
"73 223 LINE SMOOTH",
"73 75 OFFCURVE",
"155 -12 OFFCURVE",
"321 -12 CURVE SMOOTH"
);
},
{
closed = 1;
nodes = (
"215 63 OFFCURVE",
"158 119 OFFCURVE",
"158 222 CURVE SMOOTH",
"158 433 LINE SMOOTH",
"158 536 OFFCURVE",
"215 592 OFFCURVE",
"321 592 CURVE SMOOTH",
"359 592 OFFCURVE",
"401 589 OFFCURVE",
"426 583 CURVE",
"426 72 LINE",
"401 66 OFFCURVE",
"359 63 OFFCURVE",
"321 63 CURVE SMOOTH"
);
}
);
width = 874;
},
{
layerId = "8E001827-4555-4882-9710-42A9586BB804";
paths = (
{
closed = 1;
nodes = (
"360 -12 OFFCURVE",
"410 -5 OFFCURVE",
"435 0 CURVE",
"784 0 LINE SMOOTH",
"786 0 OFFCURVE",
"787 1 OFFCURVE",
"787 3 CURVE SMOOTH",
"787 13 LINE SMOOTH",
"787 15 OFFCURVE",
"786 16 OFFCURVE",
"784 16 CURVE SMOOTH",
"450 16 LINE",
"450 328 LINE",
"762 328 LINE SMOOTH",
"764 328 OFFCURVE",
"765 329 OFFCURVE",
"765 331 CURVE SMOOTH",
"765 341 LINE SMOOTH",
"765 343 OFFCURVE",
"764 344 OFFCURVE",
"762 344 CURVE SMOOTH",
"450 344 LINE",
"450 639 LINE",
"784 639 LINE SMOOTH",
"786 639 OFFCURVE",
"787 640 OFFCURVE",
"787 642 CURVE SMOOTH",
"787 652 LINE SMOOTH",
"787 654 OFFCURVE",
"786 655 OFFCURVE",
"784 655 CURVE SMOOTH",
"434 655 LINE",
"402 662 OFFCURVE",
"360 667 OFFCURVE",
"321 667 CURVE SMOOTH",
"172 667 OFFCURVE",
"88 588 OFFCURVE",
"88 452 CURVE SMOOTH",
"88 203 LINE SMOOTH",
"88 67 OFFCURVE",
"172 -12 OFFCURVE",
"321 -12 CURVE SMOOTH"
);
},
{
closed = 1;
nodes = (
"182 4 OFFCURVE",
"104 77 OFFCURVE",
"104 204 CURVE SMOOTH",
"104 451 LINE SMOOTH",
"104 578 OFFCURVE",
"182 651 OFFCURVE",
"321 651 CURVE SMOOTH",
"361 651 OFFCURVE",
"405 646 OFFCURVE",
"434 638 CURVE",
"434 16 LINE",
"405 9 OFFCURVE",
"357 4 OFFCURVE",
"321 4 CURVE SMOOTH"
);
}
);
width = 879;
},
{
layerId = "39FE7167-BE3C-4E72-AD2E-460E8E32521A";
paths = (
{
closed = 1;
nodes = (
"365 -12 OFFCURVE",
"403 -7 OFFCURVE",
"429 0 CURVE",
"850 0 LINE SMOOTH",
"858 0 OFFCURVE",
"864 6 OFFCURVE",
"864 15 CURVE SMOOTH",
"864 146 LINE SMOOTH",
"864 154 OFFCURVE",
"858 160 OFFCURVE",
"850 160 CURVE SMOOTH",
"589 160 LINE",
"589 253 LINE",
"826 253 LINE SMOOTH",
"834 253 OFFCURVE",
"840 259 OFFCURVE",
"840 268 CURVE SMOOTH",
"840 389 LINE SMOOTH",
"840 398 OFFCURVE",
"834 404 OFFCURVE",
"826 404 CURVE SMOOTH",
"589 404 LINE",
"589 495 LINE",
"850 495 LINE SMOOTH",
"858 495 OFFCURVE",
"864 501 OFFCURVE",
"864 509 CURVE SMOOTH",
"864 640 LINE SMOOTH",
"864 649 OFFCURVE",
"858 655 OFFCURVE",
"850 655 CURVE SMOOTH",
"428 655 LINE",
"402 662 OFFCURVE",
"359 667 OFFCURVE",
"332 667 CURVE SMOOTH",
"137 667 OFFCURVE",
"40 577 OFFCURVE",
"40 399 CURVE SMOOTH",
"40 256 LINE SMOOTH",
"40 78 OFFCURVE",
"136 -12 OFFCURVE",
"331 -12 CURVE SMOOTH"
);
},
{
closed = 1;
nodes = (
"260 148 OFFCURVE",
"226 190 OFFCURVE",
"226 268 CURVE SMOOTH",
"226 387 LINE SMOOTH",
"226 465 OFFCURVE",
"260 507 OFFCURVE",
"337 507 CURVE SMOOTH",
"359 507 OFFCURVE",
"386 502 OFFCURVE",
"403 495 CURVE",
"403 156 LINE",
"387 151 OFFCURVE",
"366 148 OFFCURVE",
"337 148 CURVE SMOOTH"
);
}
);
width = 904;
}
);
leftKerningGroup = O;
leftMetricsKey = O;
rightKerningGroup = E;
rightMetricsKey = E;
unicode = 0152;
},
{
glyphname = P;
lastChange = "2019-08-22 23:01:14 +0000";
layers = (
{
anchors = (
{
name = bottom;
position = "{273, 0}";
},
{
name = top;
position = "{273, 655}";
}
);
layerId = "9E4B8FD8-F8AF-4AA7-8E0D-0C907FFB2BDD";
paths = (
{
closed = 1;
nodes = (
"160 0 LINE SMOOTH",
"166 0 OFFCURVE",
"170 4 OFFCURVE",
"170 10 CURVE SMOOTH",
"170 247 LINE",
"262 247 LINE SMOOTH",
"422 247 OFFCURVE",
"505 318 OFFCURVE",
"505 451 CURVE SMOOTH",
"505 585 OFFCURVE",
"423 655 OFFCURVE",
"262 655 CURVE SMOOTH",
"95 655 LINE SMOOTH",
"89 655 OFFCURVE",
"85 651 OFFCURVE",
"85 645 CURVE SMOOTH",
"85 10 LINE SMOOTH",
"85 4 OFFCURVE",
"89 0 OFFCURVE",
"95 0 CURVE SMOOTH"
);
},
{
closed = 1;
nodes = (
"170 583 LINE",
"258 583 LINE SMOOTH",
"369 583 OFFCURVE",
"420 542 OFFCURVE",
"420 448 CURVE SMOOTH",
"420 360 OFFCURVE",
"372 319 OFFCURVE",
"260 319 CURVE SMOOTH",
"170 319 LINE"
);
}
);
width = 545;
},
{
anchors = (
{
name = bottom;
position = "{275, 0}";
},
{
name = top;
position = "{275, 655}";
}
);
layerId = "8E001827-4555-4882-9710-42A9586BB804";
paths = (
{
closed = 1;
nodes = (
"118 0 LINE SMOOTH",
"120 0 OFFCURVE",
"121 1 OFFCURVE",
"121 3 CURVE SMOOTH",
"121 277 LINE",
"256 277 LINE SMOOTH",
"417 277 OFFCURVE",
"489 342 OFFCURVE",
"489 465 CURVE SMOOTH",
"489 600 OFFCURVE",
"407 655 OFFCURVE",
"260 655 CURVE SMOOTH",
"108 655 LINE SMOOTH",
"106 655 OFFCURVE",
"105 654 OFFCURVE",
"105 652 CURVE SMOOTH",
"105 3 LINE SMOOTH",
"105 1 OFFCURVE",
"106 0 OFFCURVE",
"108 0 CURVE SMOOTH"
);
},
{
closed = 1;
nodes = (
"121 639 LINE",
"262 639 LINE SMOOTH",
"400 639 OFFCURVE",
"473 587 OFFCURVE",
"473 465 CURVE SMOOTH",
"473 356 OFFCURVE",
"413 293 OFFCURVE",
"256 293 CURVE SMOOTH",
"121 293 LINE"
);
}
);
width = 549;
},
{
anchors = (
{
name = bottom;
position = "{286, 0}";
},
{
name = top;
position = "{286, 655}";
}
);
layerId = "39FE7167-BE3C-4E72-AD2E-460E8E32521A";
paths = (
{
closed = 1;
nodes = (
"223 0 LINE SMOOTH",
"232 0 OFFCURVE",
"238 6 OFFCURVE",
"238 15 CURVE SMOOTH",
"238 195 LINE",
"290 195 LINE SMOOTH",
"474 195 OFFCURVE",
"561 279 OFFCURVE",
"561 423 CURVE SMOOTH",
"561 574 OFFCURVE",
"484 655 OFFCURVE",
"288 655 CURVE SMOOTH",
"67 655 LINE SMOOTH",
"58 655 OFFCURVE",
"52 649 OFFCURVE",
"52 640 CURVE SMOOTH",
"52 15 LINE SMOOTH",
"52 6 OFFCURVE",
"58 0 OFFCURVE",
"67 0 CURVE SMOOTH"
);
},
{
closed = 1;
nodes = (
"238 495 LINE",
"289 495 LINE SMOOTH",
"346 495 OFFCURVE",
"375 476 OFFCURVE",
"375 424 CURVE SMOOTH",
"375 371 OFFCURVE",
"341 353 OFFCURVE",
"288 353 CURVE SMOOTH",
"238 353 LINE"
);
}
);
width = 584;
}
);
leftKerningGroup = H;
leftMetricsKey = H;
rightKerningGroup = P;
unicode = 0050;
},
{
glyphname = Thorn;
lastChange = "2019-08-22 23:01:14 +0000";
layers = (
{
layerId = "9E4B8FD8-F8AF-4AA7-8E0D-0C907FFB2BDD";
paths = (
{
closed = 1;
nodes = (
"160 0 LINE SMOOTH",
"166 0 OFFCURVE",
"170 4 OFFCURVE",
"170 10 CURVE SMOOTH",
"170 136 LINE",
"262 136 LINE SMOOTH",
"422 136 OFFCURVE",
"505 207 OFFCURVE",
"505 340 CURVE SMOOTH",
"505 474 OFFCURVE",
"423 544 OFFCURVE",
"262 544 CURVE SMOOTH",
"170 544 LINE",
"170 645 LINE SMOOTH",
"170 651 OFFCURVE",
"166 655 OFFCURVE",
"160 655 CURVE SMOOTH",
"95 655 LINE SMOOTH",
"89 655 OFFCURVE",
"85 651 OFFCURVE",
"85 645 CURVE SMOOTH",
"85 10 LINE SMOOTH",
"85 4 OFFCURVE",
"89 0 OFFCURVE",
"95 0 CURVE SMOOTH"
);
},
{
closed = 1;
nodes = (
"170 472 LINE",
"258 472 LINE SMOOTH",
"369 472 OFFCURVE",
"420 431 OFFCURVE",
"420 337 CURVE SMOOTH",
"420 249 OFFCURVE",
"372 208 OFFCURVE",
"260 208 CURVE SMOOTH",
"170 208 LINE"
);
}
);
width = 545;
},
{
layerId = "8E001827-4555-4882-9710-42A9586BB804";
paths = (
{
closed = 1;
nodes = (
"118 0 LINE SMOOTH",
"120 0 OFFCURVE",
"121 1 OFFCURVE",
"121 3 CURVE SMOOTH",
"121 150 LINE",
"256 150 LINE SMOOTH",
"417 150 OFFCURVE",
"489 215 OFFCURVE",
"489 338 CURVE SMOOTH",
"489 473 OFFCURVE",
"407 528 OFFCURVE",
"260 528 CURVE SMOOTH",
"121 528 LINE",
"121 652 LINE SMOOTH",
"121 654 OFFCURVE",
"120 655 OFFCURVE",
"118 655 CURVE SMOOTH",
"108 655 LINE SMOOTH",
"106 655 OFFCURVE",
"105 654 OFFCURVE",
"105 652 CURVE SMOOTH",
"105 3 LINE SMOOTH",
"105 1 OFFCURVE",
"106 0 OFFCURVE",
"108 0 CURVE SMOOTH"
);
},
{
closed = 1;
nodes = (
"121 512 LINE",
"262 512 LINE SMOOTH",
"400 512 OFFCURVE",
"473 460 OFFCURVE",
"473 338 CURVE SMOOTH",
"473 229 OFFCURVE",
"413 166 OFFCURVE",
"256 166 CURVE SMOOTH",
"121 166 LINE"
);
}
);
width = 549;
},
{
layerId = "39FE7167-BE3C-4E72-AD2E-460E8E32521A";
paths = (
{
closed = 1;
nodes = (
"223 0 LINE SMOOTH",
"232 0 OFFCURVE",
"238 6 OFFCURVE",
"238 15 CURVE SMOOTH",
"238 108 LINE",
"290 108 LINE SMOOTH",
"474 108 OFFCURVE",
"561 192 OFFCURVE",
"561 336 CURVE SMOOTH",
"561 487 OFFCURVE",
"484 568 OFFCURVE",
"288 568 CURVE SMOOTH",
"238 568 LINE",
"238 640 LINE SMOOTH",
"238 649 OFFCURVE",
"232 655 OFFCURVE",
"223 655 CURVE SMOOTH",
"67 655 LINE SMOOTH",
"58 655 OFFCURVE",
"52 649 OFFCURVE",
"52 640 CURVE SMOOTH",
"52 15 LINE SMOOTH",
"52 6 OFFCURVE",
"58 0 OFFCURVE",
"67 0 CURVE SMOOTH"
);
},
{
closed = 1;
nodes = (
"238 408 LINE",
"289 408 LINE SMOOTH",
"346 408 OFFCURVE",
"375 389 OFFCURVE",
"375 337 CURVE SMOOTH",
"375 284 OFFCURVE",
"341 266 OFFCURVE",
"288 266 CURVE SMOOTH",
"238 266 LINE"
);
}
);
width = 584;
}
);
leftKerningGroup = H;
leftMetricsKey = H;
rightKerningGroup = Thorn;
rightMetricsKey = P;
unicode = 00DE;
},
{
glyphname = Q;
lastChange = "2019-08-22 23:01:14 +0000";
layers = (
{
anchors = (
{
name = bottom;
position = "{321, 0}";
},
{
name = top;
position = "{321, 655}";
}
);
components = (
{
name = O;
}
);
guideLines = (
{
angle = 90;
position = "{492, -145}";
}
);
layerId = "9E4B8FD8-F8AF-4AA7-8E0D-0C907FFB2BDD";
paths = (
{
closed = 1;
nodes = (
"457 -182 OFFCURVE",
"476 -179 OFFCURVE",
"487 -176 CURVE SMOOTH",
"496 -173 OFFCURVE",
"499 -169 OFFCURVE",
"499 -163 CURVE SMOOTH",
"499 -108 LINE SMOOTH",
"499 -101 OFFCURVE",
"495 -98 OFFCURVE",
"488 -99 CURVE SMOOTH",
"477 -101 OFFCURVE",
"466 -104 OFFCURVE",
"457 -104 CURVE SMOOTH",
"412 -104 OFFCURVE",
"392 -70 OFFCURVE",
"395 29 CURVE SMOOTH",
"395 36 OFFCURVE",
"391 40 OFFCURVE",
"385 40 CURVE SMOOTH",
"324 44 LINE SMOOTH",
"318 44 OFFCURVE",
"314 41 OFFCURVE",
"314 34 CURVE SMOOTH",
"307 -115 OFFCURVE",
"355 -182 OFFCURVE",
"441 -182 CURVE SMOOTH"
);
}
);
width = 642;
},
{
anchors = (
{
name = bottom;
position = "{321, 0}";
},
{
name = top;
position = "{321, 655}";
}
);
components = (
{
name = O;
}
);
layerId = "8E001827-4555-4882-9710-42A9586BB804";
paths = (
{
closed = 1;
nodes = (
"458 -172 OFFCURVE",
"475 -171 OFFCURVE",
"488 -165 CURVE SMOOTH",
"490 -164 OFFCURVE",
"490 -163 OFFCURVE",
"490 -161 CURVE SMOOTH",
"490 -151 LINE SMOOTH",
"490 -148 OFFCURVE",
"489 -147 OFFCURVE",
"487 -148 CURVE SMOOTH",
"475 -154 OFFCURVE",
"461 -156 OFFCURVE",
"445 -156 CURVE SMOOTH",
"389 -156 OFFCURVE",
"365 -93 OFFCURVE",
"365 -3 CURVE SMOOTH",
"365 -1 OFFCURVE",
"364 0 OFFCURVE",
"362 0 CURVE SMOOTH",
"352 0 LINE SMOOTH",
"350 0 OFFCURVE",
"349 -1 OFFCURVE",
"349 -3 CURVE SMOOTH",
"349 -99 OFFCURVE",
"372 -172 OFFCURVE",
"445 -172 CURVE SMOOTH"
);
}
);
width = 642;
},
{
anchors = (
{
name = bottom;
position = "{334, 0}";
},
{
name = top;
position = "{334, 655}";
}
);
components = (
{
name = O;
}
);
layerId = "39FE7167-BE3C-4E72-AD2E-460E8E32521A";
paths = (
{
closed = 1;
nodes = (
"514 -185 OFFCURVE",
"542 -176 OFFCURVE",
"560 -166 CURVE SMOOTH",
"567 -162 OFFCURVE",
"569 -156 OFFCURVE",
"569 -148 CURVE SMOOTH",
"569 -59 LINE SMOOTH",
"569 -49 OFFCURVE",
"564 -42 OFFCURVE",
"553 -46 CURVE SMOOTH",
"542 -50 OFFCURVE",
"530 -53 OFFCURVE",
"513 -53 CURVE SMOOTH",
"470 -53 OFFCURVE",
"462 -11 OFFCURVE",
"462 46 CURVE SMOOTH",
"462 56 OFFCURVE",
"456 61 OFFCURVE",
"448 61 CURVE SMOOTH",
"326 59 LINE SMOOTH",
"317 59 OFFCURVE",
"311 54 OFFCURVE",
"311 44 CURVE SMOOTH",
"305 -112 OFFCURVE",
"370 -185 OFFCURVE",
"476 -185 CURVE SMOOTH"
);
}
);
width = 668;
}
);
leftKerningGroup = O;
leftMetricsKey = O;
rightKerningGroup = O;
rightMetricsKey = O;
unicode = 0051;
},
{
glyphname = R;
lastChange = "2019-08-22 23:01:14 +0000";
layers = (
{
anchors = (
{
name = bottom;
position = "{302, 0}";
},
{
name = top;
position = "{277, 655}";
}
);
guideLines = (
{
angle = 90;
position = "{522, 312}";
}
);
layerId = "9E4B8FD8-F8AF-4AA7-8E0D-0C907FFB2BDD";
paths = (
{
closed = 1;
nodes = (
"160 0 LINE SMOOTH",
"166 0 OFFCURVE",
"170 4 OFFCURVE",
"170 10 CURVE SMOOTH",
"170 279 LINE",
"298 279 LINE",
"461 7 LINE SMOOTH",
"464 2 OFFCURVE",
"469 0 OFFCURVE",
"473 0 CURVE SMOOTH",
"550 0 LINE SMOOTH",
"558 0 OFFCURVE",
"561 5 OFFCURVE",
"557 12 CURVE SMOOTH",
"390 289 LINE",
"390 290 LINE",
"474 314 OFFCURVE",
"522 379 OFFCURVE",
"522 475 CURVE SMOOTH",
"522 595 OFFCURVE",
"446 655 OFFCURVE",
"288 655 CURVE SMOOTH",
"95 655 LINE SMOOTH",
"89 655 OFFCURVE",
"85 651 OFFCURVE",
"85 645 CURVE SMOOTH",
"85 10 LINE SMOOTH",
"85 4 OFFCURVE",
"89 0 OFFCURVE",
"95 0 CURVE SMOOTH"
);
},
{
closed = 1;
nodes = (
"170 583 LINE",
"285 583 LINE SMOOTH",
"395 583 OFFCURVE",
"437 552 OFFCURVE",
"437 469 CURVE SMOOTH",
"437 383 OFFCURVE",
"391 347 OFFCURVE",
"279 347 CURVE SMOOTH",
"170 347 LINE"
);
}
);
width = 604;
},
{
anchors = (
{
name = bottom;
position = "{295, 0}";
},
{
name = top;
position = "{275, 655}";
}
);
layerId = "8E001827-4555-4882-9710-42A9586BB804";
paths = (
{
closed = 1;
nodes = (
"118 0 LINE SMOOTH",
"120 0 OFFCURVE",
"121 1 OFFCURVE",
"121 3 CURVE SMOOTH",
"121 303 LINE",
"324 303 LINE",
"513 2 LINE",
"514 0 OFFCURVE",
"515 0 OFFCURVE",
"516 0 CURVE SMOOTH",
"529 0 LINE SMOOTH",
"531 0 OFFCURVE",
"532 2 OFFCURVE",
"531 4 CURVE",
"342 305 LINE",
"342 306 LINE",
"449 321 OFFCURVE",
"502 383 OFFCURVE",
"502 478 CURVE SMOOTH",
"502 600 OFFCURVE",
"422 655 OFFCURVE",
"294 655 CURVE SMOOTH",
"108 655 LINE SMOOTH",
"106 655 OFFCURVE",
"105 654 OFFCURVE",
"105 652 CURVE SMOOTH",
"105 3 LINE SMOOTH",
"105 1 OFFCURVE",
"106 0 OFFCURVE",
"108 0 CURVE SMOOTH"
);
},
{
closed = 1;
nodes = (
"121 639 LINE",
"296 639 LINE SMOOTH",
"415 639 OFFCURVE",
"486 587 OFFCURVE",
"486 478 CURVE SMOOTH",
"486 382 OFFCURVE",
"428 319 OFFCURVE",
"288 319 CURVE SMOOTH",
"121 319 LINE"
);
}
);
width = 594;
},
{
anchors = (
{
name = bottom;
position = "{324, 0}";
},
{
name = top;
position = "{282, 655}";
}
);
guideLines = (
{
angle = 90;
position = "{584, 275}";
}
);
layerId = "39FE7167-BE3C-4E72-AD2E-460E8E32521A";
paths = (
{
closed = 1;
nodes = (
"223 0 LINE SMOOTH",
"232 0 OFFCURVE",
"238 6 OFFCURVE",
"238 15 CURVE SMOOTH",
"238 228 LINE",
"287 228 LINE",
"416 10 LINE SMOOTH",
"420 3 OFFCURVE",
"427 0 OFFCURVE",
"434 0 CURVE SMOOTH",
"608 0 LINE SMOOTH",
"620 0 OFFCURVE",
"624 8 OFFCURVE",
"618 18 CURVE SMOOTH",
"467 255 LINE",
"467 257 LINE",
"549 282 OFFCURVE",
"581 348 OFFCURVE",
"581 434 CURVE SMOOTH",
"581 575 OFFCURVE",
"504 655 OFFCURVE",
"308 655 CURVE SMOOTH",
"67 655 LINE SMOOTH",
"58 655 OFFCURVE",
"52 649 OFFCURVE",
"52 640 CURVE SMOOTH",
"52 15 LINE SMOOTH",
"52 6 OFFCURVE",
"58 0 OFFCURVE",
"67 0 CURVE SMOOTH"
);
},
{
closed = 1;
nodes = (
"238 497 LINE",
"314 497 LINE SMOOTH",
"371 497 OFFCURVE",
"395 478 OFFCURVE",
"395 435 CURVE SMOOTH",
"395 392 OFFCURVE",
"365 374 OFFCURVE",
"311 374 CURVE SMOOTH",
"238 374 LINE"
);
}
);
width = 629;
}
);
leftKerningGroup = H;
leftMetricsKey = H;
rightKerningGroup = R;
unicode = 0052;
},
{
glyphname = S;
lastChange = "2019-08-22 23:01:14 +0000";
layers = (
{
anchors = (
{
name = bottom;
position = "{292, 0}";
},
{
name = top;
position = "{281, 655}";
}
);
layerId = "9E4B8FD8-F8AF-4AA7-8E0D-0C907FFB2BDD";
paths = (
{
closed = 1;
nodes = (
"440 -12 OFFCURVE",
"514 55 OFFCURVE",
"514 167 CURVE SMOOTH",
"514 252 OFFCURVE",
"479 297 OFFCURVE",
"387 336 CURVE SMOOTH",
"242 397 LINE SMOOTH",
"170 427 OFFCURVE",
"147 453 OFFCURVE",
"148 502 CURVE SMOOTH",
"149 563 OFFCURVE",
"191 592 OFFCURVE",
"274 592 CURVE SMOOTH",
"367 592 OFFCURVE",
"422 554 OFFCURVE",
"417 486 CURVE SMOOTH",
"416 471 OFFCURVE",
"419 467 OFFCURVE",
"426 467 CURVE SMOOTH",
"490 467 LINE SMOOTH",
"497 467 OFFCURVE",
"500 474 OFFCURVE",
"501 486 CURVE SMOOTH",
"511 601 OFFCURVE",
"418 666 OFFCURVE",
"277 666 CURVE SMOOTH",
"138 666 OFFCURVE",
"64 608 OFFCURVE",
"63 497 CURVE SMOOTH",
"62 418 OFFCURVE",
"99 369 OFFCURVE",
"191 331 CURVE SMOOTH",
"338 270 LINE SMOOTH",
"406 242 OFFCURVE",
"429 217 OFFCURVE",
"429 165 CURVE SMOOTH",
"429 96 OFFCURVE",
"380 62 OFFCURVE",
"285 62 CURVE SMOOTH",
"186 62 OFFCURVE",
"139 95 OFFCURVE",
"139 176 CURVE SMOOTH",
"139 185 OFFCURVE",
"136 192 OFFCURVE",
"127 192 CURVE SMOOTH",
"64 192 LINE SMOOTH",
"57 192 OFFCURVE",
"53 188 OFFCURVE",
"52 174 CURVE SMOOTH",
"44 63 OFFCURVE",
"118 -12 OFFCURVE",
"278 -12 CURVE SMOOTH"
);
}
);
width = 568;
},
{
anchors = (
{
name = bottom;
position = "{271, 0}";
},
{
name = top;
position = "{270, 655}";
}
);
layerId = "8E001827-4555-4882-9710-42A9586BB804";
paths = (
{
closed = 1;
nodes = (
"427 -12 OFFCURVE",
"485 34 OFFCURVE",
"485 142 CURVE SMOOTH",
"485 244 OFFCURVE",
"445 274 OFFCURVE",
"331 325 CURVE SMOOTH",
"217 376 LINE SMOOTH",
"127 416 OFFCURVE",
"92 443 OFFCURVE",
"92 527 CURVE SMOOTH",
"92 612 OFFCURVE",
"163 651 OFFCURVE",
"275 651 CURVE SMOOTH",
"404 651 OFFCURVE",
"459 596 OFFCURVE",
"459 492 CURVE SMOOTH",
"459 490 OFFCURVE",
"460 489 OFFCURVE",
"462 489 CURVE SMOOTH",
"472 489 LINE SMOOTH",
"474 489 OFFCURVE",
"475 490 OFFCURVE",
"475 492 CURVE SMOOTH",
"475 607 OFFCURVE",
"415 667 OFFCURVE",
"274 667 CURVE SMOOTH",
"152 667 OFFCURVE",
"76 622 OFFCURVE",
"76 527 CURVE SMOOTH",
"76 437 OFFCURVE",
"113 404 OFFCURVE",
"208 362 CURVE SMOOTH",
"321 312 LINE SMOOTH",
"424 267 OFFCURVE",
"469 240 OFFCURVE",
"469 142 CURVE SMOOTH",
"469 43 OFFCURVE",
"416 4 OFFCURVE",
"271 4 CURVE SMOOTH",
"133 4 OFFCURVE",
"79 55 OFFCURVE",
"79 167 CURVE SMOOTH",
"79 169 OFFCURVE",
"78 170 OFFCURVE",
"76 170 CURVE SMOOTH",
"66 170 LINE SMOOTH",
"64 170 OFFCURVE",
"63 169 OFFCURVE",
"63 167 CURVE SMOOTH",
"63 43 OFFCURVE",
"121 -12 OFFCURVE",
"271 -12 CURVE SMOOTH"
);
}
);
width = 552;
},
{
anchors = (
{
name = bottom;
position = "{293, 0}";
},
{
name = top;
position = "{285, 655}";
}
);
layerId = "39FE7167-BE3C-4E72-AD2E-460E8E32521A";
paths = (
{
closed = 1;
nodes = (
"467 -12 OFFCURVE",
"546 50 OFFCURVE",
"547 176 CURVE SMOOTH",
"548 268 OFFCURVE",
"517 323 OFFCURVE",
"411 369 CURVE SMOOTH",
"270 430 LINE SMOOTH",
"232 446 OFFCURVE",
"219 458 OFFCURVE",
"219 475 CURVE SMOOTH",
"219 500 OFFCURVE",
"239 514 OFFCURVE",
"281 514 CURVE SMOOTH",
"328 514 OFFCURVE",
"354 490 OFFCURVE",
"351 462 CURVE SMOOTH",
"350 452 OFFCURVE",
"355 446 OFFCURVE",
"365 446 CURVE SMOOTH",
"518 446 LINE SMOOTH",
"527 446 OFFCURVE",
"532 451 OFFCURVE",
"533 462 CURVE SMOOTH",
"546 601 OFFCURVE",
"460 667 OFFCURVE",
"276 667 CURVE SMOOTH",
"113 667 OFFCURVE",
"34 598 OFFCURVE",
"33 481 CURVE SMOOTH",
"32 389 OFFCURVE",
"62 335 OFFCURVE",
"168 288 CURVE SMOOTH",
"310 225 LINE SMOOTH",
"349 208 OFFCURVE",
"361 197 OFFCURVE",
"361 181 CURVE SMOOTH",
"361 155 OFFCURVE",
"339 145 OFFCURVE",
"285 145 CURVE SMOOTH",
"231 145 OFFCURVE",
"206 167 OFFCURVE",
"209 201 CURVE SMOOTH",
"210 211 OFFCURVE",
"205 214 OFFCURVE",
"195 214 CURVE SMOOTH",
"43 214 LINE SMOOTH",
"34 214 OFFCURVE",
"28 209 OFFCURVE",
"27 199 CURVE SMOOTH",
"12 53 OFFCURVE",
"94 -12 OFFCURVE",
"281 -12 CURVE SMOOTH"
);
}
);
width = 579;
}
);
leftKerningGroup = S;
rightKerningGroup = S;
unicode = 0053;
},
{
glyphname = Germandbls;
lastChange = "2019-08-22 23:01:14 +0000";
layers = (
{
layerId = "9E4B8FD8-F8AF-4AA7-8E0D-0C907FFB2BDD";
paths = (
{
closed = 1;
nodes = (
"531 -12 OFFCURVE",
"606 62 OFFCURVE",
"606 197 CURVE SMOOTH",
"606 322 OFFCURVE",
"540 387 OFFCURVE",
"407 395 CURVE",
"559 631 LINE SMOOTH",
"566 643 OFFCURVE",
"563 655 OFFCURVE",
"553 655 CURVE SMOOTH",
"95 655 LINE SMOOTH",
"89 655 OFFCURVE",
"85 651 OFFCURVE",
"85 645 CURVE SMOOTH",
"85 10 LINE SMOOTH",
"85 4 OFFCURVE",
"89 0 OFFCURVE",
"95 0 CURVE SMOOTH",
"160 0 LINE SMOOTH",
"166 0 OFFCURVE",
"170 4 OFFCURVE",
"170 10 CURVE SMOOTH",
"170 578 LINE",
"430 578 LINE",
"310 387 LINE SMOOTH",
"307 382 OFFCURVE",
"306 377 OFFCURVE",
"306 374 CURVE SMOOTH",
"306 337 LINE SMOOTH",
"306 331 OFFCURVE",
"310 327 OFFCURVE",
"316 327 CURVE SMOOTH",
"363 327 LINE SMOOTH",
"476 327 OFFCURVE",
"521 290 OFFCURVE",
"521 195 CURVE SMOOTH",
"521 105 OFFCURVE",
"480 62 OFFCURVE",
"396 62 CURVE SMOOTH",
"337 62 OFFCURVE",
"307 85 OFFCURVE",
"307 126 CURVE SMOOTH",
"307 137 OFFCURVE",
"304 142 OFFCURVE",
"297 142 CURVE SMOOTH",
"238 142 LINE SMOOTH",
"231 142 OFFCURVE",
"226 140 OFFCURVE",
"225 126 CURVE SMOOTH",
"219 44 OFFCURVE",
"283 -12 OFFCURVE",
"395 -12 CURVE SMOOTH"
);
}
);
width = 651;
},
{
layerId = "8E001827-4555-4882-9710-42A9586BB804";
paths = (
{
closed = 1;
nodes = (
"524 -12 OFFCURVE",
"586 58 OFFCURVE",
"586 185 CURVE SMOOTH",
"586 321 OFFCURVE",
"513 375 OFFCURVE",
"339 375 CURVE",
"515 648 LINE SMOOTH",
"517 651 OFFCURVE",
"516 655 OFFCURVE",
"513 655 CURVE SMOOTH",
"108 655 LINE SMOOTH",
"106 655 OFFCURVE",
"105 654 OFFCURVE",
"105 652 CURVE SMOOTH",
"105 4 LINE SMOOTH",
"105 2 OFFCURVE",
"106 1 OFFCURVE",
"108 1 CURVE SMOOTH",
"118 1 LINE SMOOTH",
"120 1 OFFCURVE",
"121 2 OFFCURVE",
"121 4 CURVE SMOOTH",
"121 639 LINE",
"489 639 LINE",
"317 369 LINE",
"316 367 OFFCURVE",
"316 366 OFFCURVE",
"316 365 CURVE SMOOTH",
"316 362 LINE SMOOTH",
"316 360 OFFCURVE",
"317 359 OFFCURVE",
"319 359 CURVE SMOOTH",
"350 359 LINE SMOOTH",
"504 359 OFFCURVE",
"570 308 OFFCURVE",
"570 187 CURVE SMOOTH",
"570 67 OFFCURVE",
"514 4 OFFCURVE",
"399 4 CURVE SMOOTH",
"307 4 OFFCURVE",
"256 44 OFFCURVE",
"256 122 CURVE SMOOTH",
"256 124 OFFCURVE",
"255 125 OFFCURVE",
"253 125 CURVE SMOOTH",
"243 125 LINE SMOOTH",
"241 125 OFFCURVE",
"240 124 OFFCURVE",
"240 122 CURVE SMOOTH",
"240 33 OFFCURVE",
"297 -12 OFFCURVE",
"399 -12 CURVE SMOOTH"
);
}
);
width = 651;
},
{
layerId = "39FE7167-BE3C-4E72-AD2E-460E8E32521A";
paths = (
{
closed = 1;
nodes = (
"592 -12 OFFCURVE",
"671 43 OFFCURVE",
"672 196 CURVE SMOOTH",
"673 314 OFFCURVE",
"624 384 OFFCURVE",
"527 407 CURVE",
"626 630 LINE SMOOTH",
"632 644 OFFCURVE",
"624 655 OFFCURVE",
"611 655 CURVE SMOOTH",
"67 655 LINE SMOOTH",
"58 655 OFFCURVE",
"52 649 OFFCURVE",
"52 640 CURVE SMOOTH",
"52 15 LINE SMOOTH",
"52 6 OFFCURVE",
"58 0 OFFCURVE",
"67 0 CURVE SMOOTH",
"224 0 LINE SMOOTH",
"232 0 OFFCURVE",
"238 6 OFFCURVE",
"238 15 CURVE SMOOTH",
"238 491 LINE",
"383 491 LINE",
"324 355 LINE SMOOTH",
"321 349 OFFCURVE",
"320 343 OFFCURVE",
"320 337 CURVE SMOOTH",
"320 289 LINE SMOOTH",
"320 278 OFFCURVE",
"326 272 OFFCURVE",
"336 272 CURVE SMOOTH",
"422 272 LINE SMOOTH",
"463 272 OFFCURVE",
"486 249 OFFCURVE",
"486 201 CURVE SMOOTH",
"486 160 OFFCURVE",
"477 148 OFFCURVE",
"459 148 CURVE SMOOTH",
"444 148 OFFCURVE",
"438 156 OFFCURVE",
"439 170 CURVE SMOOTH",
"440 184 OFFCURVE",
"436 190 OFFCURVE",
"426 190 CURVE SMOOTH",
"281 193 LINE SMOOTH",
"272 193 OFFCURVE",
"266 188 OFFCURVE",
"265 176 CURVE SMOOTH",
"255 53 OFFCURVE",
"282 -12 OFFCURVE",
"456 -12 CURVE SMOOTH"
);
}
);
width = 690;
}
);
leftKerningGroup = H;
leftMetricsKey = H;
rightKerningGroup = S;
unicode = 1E9E;
},
{
glyphname = T;
lastChange = "2019-08-22 23:01:14 +0000";
layers = (
{
anchors = (
{
name = bottom;
position = "{268, 0}";
},
{
name = center;
position = "{268, 328}";
},
{
name = top;
position = "{268, 655}";
}
);
layerId = "9E4B8FD8-F8AF-4AA7-8E0D-0C907FFB2BDD";
paths = (
{
closed = 1;
nodes = (
"300 0 LINE SMOOTH",
"306 0 OFFCURVE",
"310 4 OFFCURVE",
"310 10 CURVE SMOOTH",
"310 578 LINE",
"490 578 LINE SMOOTH",
"496 578 OFFCURVE",
"500 582 OFFCURVE",
"500 588 CURVE SMOOTH",
"500 645 LINE SMOOTH",
"500 651 OFFCURVE",
"496 655 OFFCURVE",
"490 655 CURVE SMOOTH",
"45 655 LINE SMOOTH",
"39 655 OFFCURVE",
"35 651 OFFCURVE",
"35 645 CURVE SMOOTH",
"35 588 LINE SMOOTH",
"35 582 OFFCURVE",
"39 578 OFFCURVE",
"45 578 CURVE SMOOTH",
"225 578 LINE",
"225 10 LINE SMOOTH",
"225 4 OFFCURVE",
"229 0 OFFCURVE",
"235 0 CURVE SMOOTH"
);
}
);
width = 535;
},
{
anchors = (
{
name = bottom;
position = "{275, 0}";
},
{
name = center;
position = "{273, 328}";
},
{
name = top;
position = "{273, 655}";
}
);
layerId = "8E001827-4555-4882-9710-42A9586BB804";
paths = (
{
closed = 1;
nodes = (
"278 0 LINE SMOOTH",
"280 0 OFFCURVE",
"281 1 OFFCURVE",
"281 3 CURVE SMOOTH",
"281 639 LINE",
"497 639 LINE SMOOTH",
"499 639 OFFCURVE",
"500 640 OFFCURVE",
"500 642 CURVE SMOOTH",
"500 652 LINE SMOOTH",
"500 654 OFFCURVE",
"499 655 OFFCURVE",
"497 655 CURVE SMOOTH",
"49 655 LINE SMOOTH",
"47 655 OFFCURVE",
"46 654 OFFCURVE",
"46 652 CURVE SMOOTH",
"46 642 LINE SMOOTH",
"46 640 OFFCURVE",
"47 639 OFFCURVE",
"49 639 CURVE SMOOTH",
"265 639 LINE",
"265 3 LINE SMOOTH",
"265 1 OFFCURVE",
"266 0 OFFCURVE",
"268 0 CURVE SMOOTH"
);
}
);
width = 546;
},
{
anchors = (
{
name = bottom;
position = "{282, 0}";
},
{
name = center;
position = "{285, 328}";
},
{
name = top;
position = "{285, 655}";
}
);
layerId = "39FE7167-BE3C-4E72-AD2E-460E8E32521A";
paths = (
{
closed = 1;
nodes = (
"360 0 LINE SMOOTH",
"369 0 OFFCURVE",
"375 6 OFFCURVE",
"375 15 CURVE SMOOTH",
"375 495 LINE",
"534 495 LINE SMOOTH",
"543 495 OFFCURVE",
"548 501 OFFCURVE",
"548 509 CURVE SMOOTH",
"548 640 LINE SMOOTH",
"548 649 OFFCURVE",
"543 655 OFFCURVE",
"534 655 CURVE SMOOTH",
"30 655 LINE SMOOTH",
"21 655 OFFCURVE",
"15 649 OFFCURVE",
"15 640 CURVE SMOOTH",
"15 509 LINE SMOOTH",
"15 501 OFFCURVE",
"21 495 OFFCURVE",
"30 495 CURVE SMOOTH",
"189 495 LINE",
"189 15 LINE SMOOTH",
"189 6 OFFCURVE",
"194 0 OFFCURVE",
"203 0 CURVE SMOOTH"
);
}
);
width = 563;
}
);
leftKerningGroup = T;
rightKerningGroup = T;
unicode = 0054;
},
{
glyphname = Tbar;
lastChange = "2019-08-22 23:01:14 +0000";
layers = (
{
components = (
{
name = T;
}
);
layerId = "9E4B8FD8-F8AF-4AA7-8E0D-0C907FFB2BDD";
paths = (
{
closed = 1;
nodes = (
"225 303 LINE",
"310 303 LINE",
"412 303 LINE SMOOTH",
"418 303 OFFCURVE",
"422 307 OFFCURVE",
"422 313 CURVE SMOOTH",
"422 358 LINE SMOOTH",
"422 364 OFFCURVE",
"418 368 OFFCURVE",
"412 368 CURVE SMOOTH",
"123 368 LINE SMOOTH",
"117 368 OFFCURVE",
"113 364 OFFCURVE",
"113 358 CURVE SMOOTH",
"113 313 LINE SMOOTH",
"113 307 OFFCURVE",
"117 303 OFFCURVE",
"123 303 CURVE SMOOTH"
);
}
);
width = 535;
},
{
components = (
{
name = T;
}
);
layerId = "8E001827-4555-4882-9710-42A9586BB804";
paths = (
{
closed = 1;
nodes = (
"265 328 LINE",
"281 328 LINE",
"418 328 LINE SMOOTH",
"420 328 OFFCURVE",
"421 329 OFFCURVE",
"421 331 CURVE SMOOTH",
"421 341 LINE SMOOTH",
"421 343 OFFCURVE",
"420 344 OFFCURVE",
"418 344 CURVE SMOOTH",
"128 344 LINE SMOOTH",
"126 344 OFFCURVE",
"125 343 OFFCURVE",
"125 341 CURVE SMOOTH",
"125 331 LINE SMOOTH",
"125 329 OFFCURVE",
"126 328 OFFCURVE",
"128 328 CURVE SMOOTH"
);
}
);
width = 546;
},
{
components = (
{
name = T;
}
);
layerId = "39FE7167-BE3C-4E72-AD2E-460E8E32521A";
leftMetricsKey = "=T";
rightMetricsKey = "=T";
paths = (
{
closed = 1;
nodes = (
"190 246 LINE",
"376 246 LINE",
"448 246 LINE SMOOTH",
"457 246 OFFCURVE",
"463 252 OFFCURVE",
"463 261 CURVE SMOOTH",
"463 364 LINE SMOOTH",
"463 373 OFFCURVE",
"457 379 OFFCURVE",
"448 379 CURVE SMOOTH",
"118 379 LINE SMOOTH",
"109 379 OFFCURVE",
"103 373 OFFCURVE",
"103 364 CURVE SMOOTH",
"103 261 LINE SMOOTH",
"103 252 OFFCURVE",
"109 246 OFFCURVE",
"118 246 CURVE SMOOTH"
);
}
);
width = 563;
}
);
leftKerningGroup = T;
leftMetricsKey = "=T";
rightKerningGroup = T;
rightMetricsKey = "=T";
unicode = 0166;
},
{
glyphname = U;
lastChange = "2019-08-22 23:01:14 +0000";
layers = (
{
anchors = (
{
name = bottom;
position = "{322, 0}";
},
{
name = ogonek;
position = "{430, 10}";
},
{
name = top;
position = "{322, 655}";
},
{
name = topleft;
position = "{72, 655}";
},
{
name = topright;
position = "{624, 655}";
}
);
layerId = "9E4B8FD8-F8AF-4AA7-8E0D-0C907FFB2BDD";
paths = (
{
closed = 1;
nodes = (
"473 -12 OFFCURVE",
"564 77 OFFCURVE",
"564 223 CURVE SMOOTH",
"564 645 LINE SMOOTH",
"564 651 OFFCURVE",
"560 655 OFFCURVE",
"554 655 CURVE SMOOTH",
"489 655 LINE SMOOTH",
"483 655 OFFCURVE",
"479 651 OFFCURVE",
"479 645 CURVE SMOOTH",
"479 222 LINE SMOOTH",
"479 120 OFFCURVE",
"423 63 OFFCURVE",
"322 63 CURVE SMOOTH",
"221 63 OFFCURVE",
"165 120 OFFCURVE",
"165 222 CURVE SMOOTH",
"165 645 LINE SMOOTH",
"165 651 OFFCURVE",
"161 655 OFFCURVE",
"155 655 CURVE SMOOTH",
"90 655 LINE SMOOTH",
"84 655 OFFCURVE",
"80 651 OFFCURVE",
"80 645 CURVE SMOOTH",
"80 225 LINE SMOOTH",
"80 72 OFFCURVE",
"169 -12 OFFCURVE",
"322 -12 CURVE SMOOTH"
);
}
);
width = 644;
},
{
anchors = (
{
name = bottom;
position = "{324, 0}";
},
{
name = ogonek;
position = "{422, 10}";
},
{
name = top;
position = "{324, 655}";
},
{
name = topleft;
position = "{72, 655}";
},
{
name = topright;
position = "{628, 655}";
}
);
layerId = "8E001827-4555-4882-9710-42A9586BB804";
paths = (
{
closed = 1;
nodes = (
"475.273 -12 OFFCURVE",
"548 66.571 OFFCURVE",
"548 230 CURVE SMOOTH",
"548 652 LINE SMOOTH",
"548 654 OFFCURVE",
"547 655 OFFCURVE",
"545 655 CURVE SMOOTH",
"535 655 LINE SMOOTH",
"533 655 OFFCURVE",
"532 654 OFFCURVE",
"532 652 CURVE SMOOTH",
"532 230 LINE SMOOTH",
"532 76.01 OFFCURVE",
"465.726 4 OFFCURVE",
"324 4 CURVE SMOOTH",
"182.274 4 OFFCURVE",
"116 76.01 OFFCURVE",
"116 230 CURVE SMOOTH",
"116 652 LINE SMOOTH",
"116 654 OFFCURVE",
"115 655 OFFCURVE",
"113 655 CURVE SMOOTH",
"103 655 LINE SMOOTH",
"101 655 OFFCURVE",
"100 654 OFFCURVE",
"100 652 CURVE SMOOTH",
"100 230 LINE SMOOTH",
"100 66.571 OFFCURVE",
"172.727 -12 OFFCURVE",
"324 -12 CURVE SMOOTH"
);
}
);
width = 648;
},
{
anchors = (
{
name = bottom;
position = "{334, 0}";
},
{
name = ogonek;
position = "{479, 10}";
},
{
name = top;
position = "{334, 655}";
},
{
name = topleft;
position = "{73, 655}";
},
{
name = topright;
position = "{645, 655}";
}
);
layerId = "39FE7167-BE3C-4E72-AD2E-460E8E32521A";
paths = (
{
closed = 1;
nodes = (
"523 -12 OFFCURVE",
"618 69 OFFCURVE",
"618 253 CURVE SMOOTH",
"618 640 LINE SMOOTH",
"618 649 OFFCURVE",
"612 655 OFFCURVE",
"603 655 CURVE SMOOTH",
"447 655 LINE SMOOTH",
"438 655 OFFCURVE",
"432 649 OFFCURVE",
"432 640 CURVE SMOOTH",
"432 264 LINE SMOOTH",
"432 190 OFFCURVE",
"407 148 OFFCURVE",
"333 148 CURVE SMOOTH",
"258 148 OFFCURVE",
"233 190 OFFCURVE",
"233 264 CURVE SMOOTH",
"233 640 LINE SMOOTH",
"233 649 OFFCURVE",
"227 655 OFFCURVE",
"219 655 CURVE SMOOTH",
"62 655 LINE SMOOTH",
"53 655 OFFCURVE",
"47 649 OFFCURVE",
"47 640 CURVE SMOOTH",
"47 253 LINE SMOOTH",
"47 69 OFFCURVE",
"142 -12 OFFCURVE",
"333 -12 CURVE SMOOTH"
);
}
);
width = 665;
}
);
leftKerningGroup = U;
rightKerningGroup = U;
unicode = 0055;
},
{
glyphname = V;
lastChange = "2019-08-22 23:01:14 +0000";
layers = (
{
anchors = (
{
name = bottom;
position = "{292, 0}";
},
{
name = top;
position = "{292, 655}";
}
);
layerId = "9E4B8FD8-F8AF-4AA7-8E0D-0C907FFB2BDD";
paths = (
{
closed = 1;
nodes = (
"337 0 LINE SMOOTH",
"342 0 OFFCURVE",
"347 3 OFFCURVE",
"349 8 CURVE SMOOTH",
"568 644 LINE SMOOTH",
"570 651 OFFCURVE",
"567 655 OFFCURVE",
"560 655 CURVE SMOOTH",
"491 655 LINE SMOOTH",
"486 655 OFFCURVE",
"481 652 OFFCURVE",
"479 647 CURVE SMOOTH",
"335 218 LINE SMOOTH",
"320 173 OFFCURVE",
"304 127 OFFCURVE",
"290 82 CURVE",
"288 82 LINE",
"274 128 OFFCURVE",
"259 175 OFFCURVE",
"244 221 CURVE SMOOTH",
"106 647 LINE SMOOTH",
"104 652 OFFCURVE",
"99 655 OFFCURVE",
"94 655 CURVE SMOOTH",
"24 655 LINE SMOOTH",
"17 655 OFFCURVE",
"14 651 OFFCURVE",
"16 644 CURVE SMOOTH",
"230 8 LINE SMOOTH",
"232 3 OFFCURVE",
"237 0 OFFCURVE",
"242 0 CURVE SMOOTH"
);
}
);
width = 584;
},
{
anchors = (
{
name = bottom;
position = "{278, 0}";
},
{
name = top;
position = "{278, 655}";
}
);
layerId = "8E001827-4555-4882-9710-42A9586BB804";
paths = (
{
closed = 1;
nodes = (
"288 0 LINE SMOOTH",
"290 0 OFFCURVE",
"291 0 OFFCURVE",
"292 2 CURVE SMOOTH",
"534 652 LINE SMOOTH",
"535 654 OFFCURVE",
"533 655 OFFCURVE",
"531 655 CURVE SMOOTH",
"521 655 LINE SMOOTH",
"519 655 OFFCURVE",
"518 655 OFFCURVE",
"517 653 CURVE SMOOTH",
"312 106 LINE SMOOTH",
"301 76 OFFCURVE",
"291 46 OFFCURVE",
"280 16 CURVE",
"279 16 LINE",
"269 47 OFFCURVE",
"258 78 OFFCURVE",
"246 109 CURVE SMOOTH",
"41 653 LINE SMOOTH",
"40 655 OFFCURVE",
"39 655 OFFCURVE",
"37 655 CURVE SMOOTH",
"27 655 LINE SMOOTH",
"25 655 OFFCURVE",
"23 654 OFFCURVE",
"24 652 CURVE SMOOTH",
"267 2 LINE SMOOTH",
"268 0 OFFCURVE",
"269 0 OFFCURVE",
"271 0 CURVE SMOOTH"
);
}
);
width = 558;
},
{
anchors = (
{
name = bottom;
position = "{324, 0}";
},
{
name = top;
position = "{324, 655}";
}
);
layerId = "39FE7167-BE3C-4E72-AD2E-460E8E32521A";
paths = (
{
closed = 1;
nodes = (
"425 0 LINE SMOOTH",
"433 0 OFFCURVE",
"439 3 OFFCURVE",
"442 12 CURVE SMOOTH",
"643 638 LINE SMOOTH",
"646 648 OFFCURVE",
"642 655 OFFCURVE",
"631 655 CURVE SMOOTH",
"460 655 LINE SMOOTH",
"451 655 OFFCURVE",
"445 651 OFFCURVE",
"443 642 CURVE SMOOTH",
"359 309 LINE SMOOTH",
"346 257 OFFCURVE",
"335 207 OFFCURVE",
"327 155 CURVE",
"324 155 LINE",
"315 206 OFFCURVE",
"306 255 OFFCURVE",
"293 306 CURVE SMOOTH",
"206 643 LINE SMOOTH",
"204 650 OFFCURVE",
"198 655 OFFCURVE",
"189 655 CURVE SMOOTH",
"18 655 LINE SMOOTH",
"7 655 OFFCURVE",
"3 648 OFFCURVE",
"6 638 CURVE SMOOTH",
"207 12 LINE SMOOTH",
"210 3 OFFCURVE",
"216 0 OFFCURVE",
"224 0 CURVE SMOOTH"
);
}
);
width = 649;
}
);
leftKerningGroup = V;
rightKerningGroup = V;
unicode = 0056;
},
{
glyphname = W;
lastChange = "2019-08-22 23:01:14 +0000";
layers = (
{
anchors = (
{
name = bottom;
position = "{424, 0}";
},
{
name = top;
position = "{424, 655}";
}
);
layerId = "9E4B8FD8-F8AF-4AA7-8E0D-0C907FFB2BDD";
paths = (
{
closed = 1;
nodes = (
"306 0 LINE SMOOTH",
"312 0 OFFCURVE",
"315 3 OFFCURVE",
"317 8 CURVE",
"388 246 LINE SMOOTH",
"401 289 OFFCURVE",
"414 332 OFFCURVE",
"427 375 CURVE",
"428 375 LINE",
"440 331 OFFCURVE",
"452 287 OFFCURVE",
"465 243 CURVE SMOOTH",
"533 8 LINE",
"534 3 OFFCURVE",
"538 0 OFFCURVE",
"544 0 CURVE SMOOTH",
"639 0 LINE SMOOTH",
"645 0 OFFCURVE",
"649 3 OFFCURVE",
"650 8 CURVE",
"826 644 LINE SMOOTH",
"828 651 OFFCURVE",
"824 655 OFFCURVE",
"817 655 CURVE SMOOTH",
"748 655 LINE SMOOTH",
"742 655 OFFCURVE",
"738 652 OFFCURVE",
"737 647 CURVE SMOOTH",
"625 231 LINE SMOOTH",
"613 185 OFFCURVE",
"601 139 OFFCURVE",
"589 93 CURVE",
"588 93 LINE",
"576 136 OFFCURVE",
"565 178 OFFCURVE",
"553 221 CURVE SMOOTH",
"440 636 LINE SMOOTH",
"439 641 OFFCURVE",
"435 645 OFFCURVE",
"429 645 CURVE SMOOTH",
"361 645 LINE SMOOTH",
"354 645 OFFCURVE",
"350 641 OFFCURVE",
"352 634 CURVE SMOOTH",
"388 509 LINE",
"304 230 LINE SMOOTH",
"290 184 OFFCURVE",
"276 139 OFFCURVE",
"262 93 CURVE",
"261 93 LINE",
"248 140 OFFCURVE",
"236 187 OFFCURVE",
"223 234 CURVE SMOOTH",
"107 647 LINE",
"106 652 OFFCURVE",
"102 655 OFFCURVE",
"96 655 CURVE SMOOTH",
"30 655 LINE SMOOTH",
"23 655 OFFCURVE",
"19 651 OFFCURVE",
"21 644 CURVE SMOOTH",
"204 8 LINE",
"205 3 OFFCURVE",
"209 0 OFFCURVE",
"215 0 CURVE SMOOTH"
);
}
);
width = 847;
},
{
anchors = (
{
name = bottom;
position = "{444, 0}";
},
{
name = top;
position = "{426, 655}";
}
);
layerId = "8E001827-4555-4882-9710-42A9586BB804";
paths = (
{
closed = 1;
nodes = (
"271 0 LINE SMOOTH",
"273 0 OFFCURVE",
"275 0 OFFCURVE",
"276 3 CURVE SMOOTH",
"385 332 LINE SMOOTH",
"401 382 OFFCURVE",
"417 431 OFFCURVE",
"433 481 CURVE",
"434 481 LINE",
"448 433 OFFCURVE",
"463 384 OFFCURVE",
"477 336 CURVE SMOOTH",
"576 3 LINE SMOOTH",
"577 0 OFFCURVE",
"579 0 OFFCURVE",
"581 0 CURVE SMOOTH",
"600 0 LINE SMOOTH",
"602 0 OFFCURVE",
"604 0 OFFCURVE",
"605 3 CURVE SMOOTH",
"812 652 LINE SMOOTH",
"813 655 OFFCURVE",
"811 655 OFFCURVE",
"809 655 CURVE SMOOTH",
"798 655 LINE SMOOTH",
"797 655 OFFCURVE",
"795 655 OFFCURVE",
"794 652 CURVE SMOOTH",
"641 173 LINE SMOOTH",
"624 120 OFFCURVE",
"608 68 OFFCURVE",
"591 15 CURVE",
"590 15 LINE",
"575 67 OFFCURVE",
"559 118 OFFCURVE",
"544 170 CURVE SMOOTH",
"403 643 LINE SMOOTH",
"402 645 OFFCURVE",
"401 645 OFFCURVE",
"399 645 CURVE SMOOTH",
"389 645 LINE SMOOTH",
"387 645 OFFCURVE",
"385 645 OFFCURVE",
"386 642 CURVE SMOOTH",
"426 506 LINE",
"313 168 LINE SMOOTH",
"296 117 OFFCURVE",
"279 66 OFFCURVE",
"262 15 CURVE",
"261 15 LINE",
"245 66 OFFCURVE",
"229 116 OFFCURVE",
"213 167 CURVE SMOOTH",
"58 652 LINE SMOOTH",
"57 655 OFFCURVE",
"55 655 OFFCURVE",
"53 655 CURVE SMOOTH",
"43 655 LINE SMOOTH",
"41 655 OFFCURVE",
"39 655 OFFCURVE",
"40 652 CURVE SMOOTH",
"247 3 LINE SMOOTH",
"248 0 OFFCURVE",
"250 0 OFFCURVE",
"252 0 CURVE SMOOTH"
);
}
);
width = 852;
},
{
anchors = (
{
name = bottom;
position = "{460, 0}";
},
{
name = top;
position = "{460, 655}";
}
);
layerId = "39FE7167-BE3C-4E72-AD2E-460E8E32521A";
paths = (
{
closed = 1;
nodes = (
"354 0 LINE SMOOTH",
"362 0 OFFCURVE",
"368 3 OFFCURVE",
"371 12 CURVE SMOOTH",
"419 164 LINE SMOOTH",
"437 221 OFFCURVE",
"449 269 OFFCURVE",
"461 315 CURVE",
"464 315 LINE",
"474 269 OFFCURVE",
"487 218 OFFCURVE",
"502 164 CURVE SMOOTH",
"543 13 LINE SMOOTH",
"545 5 OFFCURVE",
"552 0 OFFCURVE",
"560 0 CURVE SMOOTH",
"729 0 LINE SMOOTH",
"737 0 OFFCURVE",
"742 5 OFFCURVE",
"744 13 CURVE SMOOTH",
"910 638 LINE SMOOTH",
"913 649 OFFCURVE",
"907 655 OFFCURVE",
"897 655 CURVE SMOOTH",
"740 655 LINE SMOOTH",
"731 655 OFFCURVE",
"725 651 OFFCURVE",
"723 642 CURVE SMOOTH",
"668 404 LINE SMOOTH",
"653 341 OFFCURVE",
"643 233 OFFCURVE",
"639 181 CURVE",
"636 181 LINE",
"630 233 OFFCURVE",
"620 285 OFFCURVE",
"606 337 CURVE SMOOTH",
"529 624 LINE SMOOTH",
"527 632 OFFCURVE",
"522 636 OFFCURVE",
"514 636 CURVE SMOOTH",
"362 636 LINE SMOOTH",
"352 636 OFFCURVE",
"345 631 OFFCURVE",
"349 620 CURVE SMOOTH",
"388 504 LINE",
"327 325 LINE SMOOTH",
"311 277 OFFCURVE",
"298 229 OFFCURVE",
"287 181 CURVE",
"284 181 LINE",
"280 228 OFFCURVE",
"271 324 OFFCURVE",
"256 388 CURVE SMOOTH",
"197 642 LINE SMOOTH",
"195 651 OFFCURVE",
"189 655 OFFCURVE",
"180 655 CURVE SMOOTH",
"23 655 LINE SMOOTH",
"13 655 OFFCURVE",
"7 649 OFFCURVE",
"10 638 CURVE SMOOTH",
"176 13 LINE SMOOTH",
"178 5 OFFCURVE",
"183 0 OFFCURVE",
"192 0 CURVE SMOOTH"
);
}
);
width = 920;
}
);
leftKerningGroup = W;
rightKerningGroup = W;
unicode = 0057;
},
{
glyphname = X;
lastChange = "2019-08-22 23:01:14 +0000";
layers = (
{
anchors = (
{
name = bottom;
position = "{276, 0}";
},
{
name = top;
position = "{276, 655}";
}
);
layerId = "9E4B8FD8-F8AF-4AA7-8E0D-0C907FFB2BDD";
paths = (
{
closed = 1;
nodes = (
"92 0 LINE SMOOTH",
"97 0 OFFCURVE",
"101 3 OFFCURVE",
"104 7 CURVE SMOOTH",
"223 191 LINE SMOOTH",
"240 217 OFFCURVE",
"258 246 OFFCURVE",
"274 272 CURVE",
"275 272 LINE",
"291 245 OFFCURVE",
"310 216 OFFCURVE",
"327 189 CURVE SMOOTH",
"446 6 LINE SMOOTH",
"449 2 OFFCURVE",
"453 0 OFFCURVE",
"458 0 CURVE SMOOTH",
"538 0 LINE SMOOTH",
"546 0 OFFCURVE",
"548 5 OFFCURVE",
"544 12 CURVE SMOOTH",
"333 336 LINE",
"532 643 LINE SMOOTH",
"536 650 OFFCURVE",
"534 655 OFFCURVE",
"526 655 CURVE SMOOTH",
"450 655 LINE SMOOTH",
"445 655 OFFCURVE",
"441 653 OFFCURVE",
"438 649 CURVE SMOOTH",
"329 480 LINE SMOOTH",
"312 454 OFFCURVE",
"295 427 OFFCURVE",
"279 401 CURVE",
"278 401 LINE",
"263 425 OFFCURVE",
"246 452 OFFCURVE",
"231 476 CURVE SMOOTH",
"118 649 LINE SMOOTH",
"115 653 OFFCURVE",
"111 655 OFFCURVE",
"107 655 CURVE SMOOTH",
"27 655 LINE SMOOTH",
"19 655 OFFCURVE",
"17 650 OFFCURVE",
"21 643 CURVE SMOOTH",
"221 338 LINE",
"7 12 LINE SMOOTH",
"3 5 OFFCURVE",
"5 0 OFFCURVE",
"13 0 CURVE SMOOTH"
);
}
);
width = 551;
},
{
anchors = (
{
name = bottom;
position = "{266, 0}";
},
{
name = top;
position = "{266, 655}";
}
);
layerId = "8E001827-4555-4882-9710-42A9586BB804";
paths = (
{
closed = 1;
nodes = (
"27 0 LINE SMOOTH",
"29 0 OFFCURVE",
"30 0 OFFCURVE",
"31 2 CURVE",
"177 202 LINE SMOOTH",
"206 242 OFFCURVE",
"236 283 OFFCURVE",
"265 324 CURVE",
"266 324 LINE",
"296 282 OFFCURVE",
"326 241 OFFCURVE",
"357 199 CURVE SMOOTH",
"500 2 LINE",
"501 0 OFFCURVE",
"502 0 OFFCURVE",
"504 0 CURVE SMOOTH",
"517 0 LINE SMOOTH",
"519 0 OFFCURVE",
"520 1 OFFCURVE",
"518 4 CURVE",
"276 336 LINE",
"506 651 LINE",
"507 653 OFFCURVE",
"507 655 OFFCURVE",
"504 655 CURVE SMOOTH",
"491 655 LINE SMOOTH",
"489 655 OFFCURVE",
"488 655 OFFCURVE",
"487 653 CURVE",
"334 442 LINE SMOOTH",
"311 411 OFFCURVE",
"289 380 OFFCURVE",
"266 349 CURVE",
"265 349 LINE",
"242 380 OFFCURVE",
"220 411 OFFCURVE",
"197 442 CURVE SMOOTH",
"44 653 LINE",
"43 655 OFFCURVE",
"42 655 OFFCURVE",
"40 655 CURVE SMOOTH",
"27 655 LINE SMOOTH",
"24 655 OFFCURVE",
"24 653 OFFCURVE",
"25 651 CURVE",
"255 336 LINE",
"13 4 LINE",
"11 1 OFFCURVE",
"12 0 OFFCURVE",
"14 0 CURVE SMOOTH"
);
}
);
width = 531;
},
{
anchors = (
{
name = bottom;
position = "{313, 0}";
},
{
name = top;
position = "{313, 655}";
}
);
layerId = "39FE7167-BE3C-4E72-AD2E-460E8E32521A";
paths = (
{
closed = 1;
nodes = (
"193 0 LINE SMOOTH",
"201 0 OFFCURVE",
"207 2 OFFCURVE",
"211 10 CURVE SMOOTH",
"270 113 LINE SMOOTH",
"281 132 OFFCURVE",
"298 168 OFFCURVE",
"311 198 CURVE",
"314 198 LINE",
"327 166 OFFCURVE",
"344 130 OFFCURVE",
"355 110 CURVE SMOOTH",
"411 10 LINE SMOOTH",
"416 2 OFFCURVE",
"421 0 OFFCURVE",
"429 0 CURVE SMOOTH",
"613 0 LINE SMOOTH",
"625 0 OFFCURVE",
"629 8 OFFCURVE",
"623 18 CURVE SMOOTH",
"419 335 LINE",
"612 637 LINE SMOOTH",
"618 647 OFFCURVE",
"615 655 OFFCURVE",
"603 655 CURVE SMOOTH",
"424 655 LINE SMOOTH",
"417 655 OFFCURVE",
"411 653 OFFCURVE",
"407 645 CURVE SMOOTH",
"357 555 LINE SMOOTH",
"346 535 OFFCURVE",
"328 495 OFFCURVE",
"317 470 CURVE",
"314 470 LINE",
"303 496 OFFCURVE",
"290 526 OFFCURVE",
"276 552 CURVE SMOOTH",
"224 645 LINE SMOOTH",
"220 653 OFFCURVE",
"214 655 OFFCURVE",
"207 655 CURVE SMOOTH",
"24 655 LINE SMOOTH",
"12 655 OFFCURVE",
"9 647 OFFCURVE",
"15 637 CURVE SMOOTH",
"209 334 LINE",
"3 18 LINE SMOOTH",
"-4 7 OFFCURVE",
"1 0 OFFCURVE",
"13 0 CURVE SMOOTH"
);
}
);
width = 626;
}
);
leftKerningGroup = X;
rightKerningGroup = X;
unicode = 0058;
},
{
glyphname = Y;
lastChange = "2019-08-22 23:01:14 +0000";
layers = (
{
anchors = (
{
name = bottom;
position = "{268, 0}";
},
{
name = top;
position = "{268, 655}";
},
{
name = topleft;
position = "{20, 655}";
}
);
layerId = "9E4B8FD8-F8AF-4AA7-8E0D-0C907FFB2BDD";
paths = (
{
closed = 1;
nodes = (
"300 0 LINE SMOOTH",
"306 0 OFFCURVE",
"310 4 OFFCURVE",
"310 10 CURVE SMOOTH",
"310 225 LINE",
"524 643 LINE SMOOTH",
"527 650 OFFCURVE",
"524 655 OFFCURVE",
"517 655 CURVE SMOOTH",
"443 655 LINE SMOOTH",
"438 655 OFFCURVE",
"433 653 OFFCURVE",
"431 648 CURVE SMOOTH",
"322 425 LINE SMOOTH",
"304 388 OFFCURVE",
"287 352 OFFCURVE",
"269 315 CURVE",
"268 315 LINE",
"251 350 OFFCURVE",
"233 387 OFFCURVE",
"216 422 CURVE SMOOTH",
"106 648 LINE SMOOTH",
"104 653 OFFCURVE",
"99 655 OFFCURVE",
"94 655 CURVE SMOOTH",
"18 655 LINE SMOOTH",
"11 655 OFFCURVE",
"8 650 OFFCURVE",
"11 643 CURVE SMOOTH",
"225 225 LINE",
"225 10 LINE SMOOTH",
"225 4 OFFCURVE",
"229 0 OFFCURVE",
"235 0 CURVE SMOOTH"
);
}
);
width = 535;
},
{
anchors = (
{
name = bottom;
position = "{256, 0}";
},
{
name = top;
position = "{256, 655}";
},
{
name = topleft;
position = "{20, 655}";
}
);
layerId = "8E001827-4555-4882-9710-42A9586BB804";
paths = (
{
closed = 1;
nodes = (
"260 0 LINE SMOOTH",
"262 0 OFFCURVE",
"263 1 OFFCURVE",
"263 3 CURVE SMOOTH",
"263 225 LINE",
"493 651 LINE SMOOTH",
"494 653 OFFCURVE",
"493 655 OFFCURVE",
"491 655 CURVE SMOOTH",
"478 655 LINE SMOOTH",
"477 655 OFFCURVE",
"476 655 OFFCURVE",
"475 653 CURVE SMOOTH",
"314 353 LINE SMOOTH",
"294 316 OFFCURVE",
"274 280 OFFCURVE",
"255 244 CURVE",
"254 244 LINE",
"235 281 OFFCURVE",
"216 318 OFFCURVE",
"196 355 CURVE SMOOTH",
"36 653 LINE SMOOTH",
"35 655 OFFCURVE",
"34 655 OFFCURVE",
"33 655 CURVE SMOOTH",
"20 655 LINE SMOOTH",
"18 655 OFFCURVE",
"17 653 OFFCURVE",
"18 651 CURVE SMOOTH",
"247 225 LINE",
"247 3 LINE SMOOTH",
"247 1 OFFCURVE",
"248 0 OFFCURVE",
"250 0 CURVE SMOOTH"
);
}
);
width = 511;
},
{
anchors = (
{
name = bottom;
position = "{308, 0}";
},
{
name = top;
position = "{308, 655}";
},
{
name = topleft;
position = "{10, 655}";
}
);
layerId = "39FE7167-BE3C-4E72-AD2E-460E8E32521A";
paths = (
{
closed = 1;
nodes = (
"387 0 LINE SMOOTH",
"395 0 OFFCURVE",
"401 6 OFFCURVE",
"401 15 CURVE SMOOTH",
"401 227 LINE",
"614 637 LINE SMOOTH",
"619 647 OFFCURVE",
"614 655 OFFCURVE",
"603 655 CURVE SMOOTH",
"431 655 LINE SMOOTH",
"423 655 OFFCURVE",
"417 651 OFFCURVE",
"414 644 CURVE SMOOTH",
"364 524 LINE SMOOTH",
"343 474 OFFCURVE",
"325 430 OFFCURVE",
"310 384 CURVE",
"308 384 LINE",
"293 429 OFFCURVE",
"275 476 OFFCURVE",
"254 526 CURVE SMOOTH",
"204 644 LINE SMOOTH",
"201 652 OFFCURVE",
"195 655 OFFCURVE",
"187 655 CURVE SMOOTH",
"13 655 LINE SMOOTH",
"2 655 OFFCURVE",
"-3 647 OFFCURVE",
"2 637 CURVE SMOOTH",
"215 227 LINE",
"215 15 LINE SMOOTH",
"215 6 OFFCURVE",
"221 0 OFFCURVE",
"230 0 CURVE SMOOTH"
);
}
);
width = 616;
}
);
leftKerningGroup = Y;
rightKerningGroup = Y;
unicode = 0059;
},
{
glyphname = Z;
lastChange = "2019-08-22 23:01:14 +0000";
layers = (
{
anchors = (
{
name = bottom;
position = "{273, 0}";
},
{
name = top;
position = "{268, 655}";
}
);
layerId = "9E4B8FD8-F8AF-4AA7-8E0D-0C907FFB2BDD";
paths = (
{
closed = 1;
nodes = (
"489 0 LINE SMOOTH",
"495 0 OFFCURVE",
"499 4 OFFCURVE",
"499 10 CURVE SMOOTH",
"499 67 LINE SMOOTH",
"499 73 OFFCURVE",
"495 77 OFFCURVE",
"489 77 CURVE SMOOTH",
"284 77 LINE SMOOTH",
"240 77 OFFCURVE",
"196 77 OFFCURVE",
"152 76 CURVE",
"152 77 LINE",
"177 113 OFFCURVE",
"200 149 OFFCURVE",
"224 186 CURVE SMOOTH",
"518 631 LINE SMOOTH",
"520 635 OFFCURVE",
"522 640 OFFCURVE",
"522 644 CURVE SMOOTH",
"522 646 LINE SMOOTH",
"522 651 OFFCURVE",
"518 655 OFFCURVE",
"512 655 CURVE SMOOTH",
"63 655 LINE SMOOTH",
"57 655 OFFCURVE",
"53 651 OFFCURVE",
"53 645 CURVE SMOOTH",
"53 588 LINE SMOOTH",
"53 582 OFFCURVE",
"57 578 OFFCURVE",
"63 578 CURVE SMOOTH",
"272 578 LINE SMOOTH",
"310 578 OFFCURVE",
"349 578 OFFCURVE",
"387 579 CURVE",
"387 578 LINE",
"364 545 OFFCURVE",
"343 512 OFFCURVE",
"322 479 CURVE SMOOTH",
"24 24 LINE SMOOTH",
"22 20 OFFCURVE",
"20 15 OFFCURVE",
"20 11 CURVE SMOOTH",
"20 9 LINE SMOOTH",
"20 4 OFFCURVE",
"24 0 OFFCURVE",
"30 0 CURVE SMOOTH"
);
}
);
width = 545;
},
{
anchors = (
{
name = bottom;
position = "{268, 0}";
},
{
name = top;
position = "{271, 655}";
}
);
layerId = "8E001827-4555-4882-9710-42A9586BB804";
paths = (
{
closed = 1;
nodes = (
"474 0 LINE SMOOTH",
"476 0 OFFCURVE",
"477 1 OFFCURVE",
"477 3 CURVE SMOOTH",
"477 13 LINE SMOOTH",
"477 15 OFFCURVE",
"476 16 OFFCURVE",
"474 16 CURVE SMOOTH",
"165 16 LINE SMOOTH",
"130 16 OFFCURVE",
"95 16 OFFCURVE",
"60 16 CURVE",
"60 17 LINE",
"84 51 OFFCURVE",
"108 85 OFFCURVE",
"131 119 CURVE SMOOTH",
"493 642 LINE SMOOTH",
"495 645 OFFCURVE",
"496 647 OFFCURVE",
"496 649 CURVE SMOOTH",
"496 651 LINE SMOOTH",
"496 653 OFFCURVE",
"496 655 OFFCURVE",
"493 655 CURVE SMOOTH",
"72 655 LINE SMOOTH",
"70 655 OFFCURVE",
"69 654 OFFCURVE",
"69 652 CURVE SMOOTH",
"69 642 LINE SMOOTH",
"69 640 OFFCURVE",
"70 639 OFFCURVE",
"72 639 CURVE SMOOTH",
"357 639 LINE SMOOTH",
"394 639 OFFCURVE",
"432 639 OFFCURVE",
"469 639 CURVE",
"469 638 LINE",
"446 605 OFFCURVE",
"423 571 OFFCURVE",
"400 537 CURVE SMOOTH",
"37 12 LINE SMOOTH",
"35 9 OFFCURVE",
"35 8 OFFCURVE",
"35 6 CURVE SMOOTH",
"35 4 LINE SMOOTH",
"35 1 OFFCURVE",
"36 0 OFFCURVE",
"39 0 CURVE SMOOTH"
);
}
);
width = 536;
},
{
anchors = (
{
name = bottom;
position = "{287, 0}";
},
{
name = top;
position = "{302, 655}";
}
);
layerId = "39FE7167-BE3C-4E72-AD2E-460E8E32521A";
paths = (
{
closed = 1;
nodes = (
"526 0 LINE SMOOTH",
"535 0 OFFCURVE",
"541 6 OFFCURVE",
"541 15 CURVE SMOOTH",
"541 146 LINE SMOOTH",
"541 154 OFFCURVE",
"535 160 OFFCURVE",
"526 160 CURVE SMOOTH",
"392 160 LINE SMOOTH",
"353 160 OFFCURVE",
"319 160 OFFCURVE",
"284 158 CURVE",
"284 161 LINE",
"306 194 OFFCURVE",
"328 228 OFFCURVE",
"348 262 CURVE SMOOTH",
"560 611 LINE SMOOTH",
"563 617 OFFCURVE",
"565 623 OFFCURVE",
"565 630 CURVE SMOOTH",
"565 640 LINE SMOOTH",
"565 649 OFFCURVE",
"559 655 OFFCURVE",
"550 655 CURVE SMOOTH",
"52 655 LINE SMOOTH",
"43 655 OFFCURVE",
"37 649 OFFCURVE",
"37 640 CURVE SMOOTH",
"37 509 LINE SMOOTH",
"37 501 OFFCURVE",
"43 495 OFFCURVE",
"52 495 CURVE SMOOTH",
"178 495 LINE SMOOTH",
"214 495 OFFCURVE",
"249 495 OFFCURVE",
"284 496 CURVE",
"284 493 LINE",
"264 463 OFFCURVE",
"247 435 OFFCURVE",
"229 405 CURVE SMOOTH",
"15 44 LINE SMOOTH",
"11 38 OFFCURVE",
"10 32 OFFCURVE",
"10 25 CURVE SMOOTH",
"10 15 LINE SMOOTH",
"10 6 OFFCURVE",
"16 0 OFFCURVE",
"25 0 CURVE SMOOTH"
);
}
);
width = 578;
}
);
leftKerningGroup = Z;
rightKerningGroup = Z;
unicode = 005A;
},
{
glyphname = a;
lastChange = "2019-08-22 23:01:14 +0000";
layers = (
{
anchors = (
{
name = bottom;
position = "{247, 0}";
},
{
name = ogonek;
position = "{439, 10}";
},
{
name = top;
position = "{243, 488}";
}
);
layerId = "9E4B8FD8-F8AF-4AA7-8E0D-0C907FFB2BDD";
paths = (
{
closed = 1;
nodes = (
"416 0 LINE SMOOTH",
"423 0 OFFCURVE",
"427 4 OFFCURVE",
"426 11 CURVE SMOOTH",
"422 38 OFFCURVE",
"419 74 OFFCURVE",
"419 121 CURVE SMOOTH",
"419 335 LINE SMOOTH",
"419 446 OFFCURVE",
"363 500 OFFCURVE",
"247 500 CURVE SMOOTH",
"134 500 OFFCURVE",
"61 448 OFFCURVE",
"68 372 CURVE SMOOTH",
"69 358 OFFCURVE",
"72 353 OFFCURVE",
"79 353 CURVE SMOOTH",
"145 353 LINE SMOOTH",
"151 353 OFFCURVE",
"154 357 OFFCURVE",
"154 363 CURVE SMOOTH",
"154 404 OFFCURVE",
"184 425 OFFCURVE",
"244 425 CURVE SMOOTH",
"310 425 OFFCURVE",
"334 400 OFFCURVE",
"334 333 CURVE SMOOTH",
"334 134 LINE",
"337 96 LINE",
"338 68 OFFCURVE",
"344 25 OFFCURVE",
"346 14 CURVE SMOOTH",
"348 6 OFFCURVE",
"350 0 OFFCURVE",
"358 0 CURVE SMOOTH"
);
},
{
closed = 1;
nodes = (
"230 -12 OFFCURVE",
"283 18 OFFCURVE",
"353 94 CURVE",
"353 169 LINE",
"274 87 OFFCURVE",
"233 63 OFFCURVE",
"189 63 CURVE SMOOTH",
"151 63 OFFCURVE",
"133 85 OFFCURVE",
"133 131 CURVE SMOOTH",
"133 191 OFFCURVE",
"162 212 OFFCURVE",
"254 220 CURVE SMOOTH",
"350 228 LINE",
"350 293 LINE",
"256 285 LINE SMOOTH",
"104 272 OFFCURVE",
"48 229 OFFCURVE",
"48 125 CURVE SMOOTH",
"48 35 OFFCURVE",
"89 -12 OFFCURVE",
"167 -12 CURVE SMOOTH"
);
}
);
width = 494;
},
{
anchors = (
{
name = bottom;
position = "{238, 0}";
},
{
name = ogonek;
position = "{405, 11}";
},
{
name = top;
position = "{239, 478}";
}
);
layerId = "8E001827-4555-4882-9710-42A9586BB804";
paths = (
{
closed = 1;
nodes = (
"390 0 LINE SMOOTH",
"392 0 OFFCURVE",
"393 1 OFFCURVE",
"393 3 CURVE",
"390 38 OFFCURVE",
"388 73 OFFCURVE",
"388 110 CURVE SMOOTH",
"388 340 LINE SMOOTH",
"388 448 OFFCURVE",
"343 491 OFFCURVE",
"244 490 CURVE SMOOTH",
"140 489 OFFCURVE",
"96 445 OFFCURVE",
"96 366 CURVE SMOOTH",
"96 364 OFFCURVE",
"97 363 OFFCURVE",
"99 363 CURVE SMOOTH",
"109 363 LINE SMOOTH",
"111 363 OFFCURVE",
"112 364 OFFCURVE",
"112 366 CURVE SMOOTH",
"112 440 OFFCURVE",
"155 474 OFFCURVE",
"243 474 CURVE SMOOTH",
"337 474 OFFCURVE",
"372 435 OFFCURVE",
"372 339 CURVE SMOOTH",
"372 119 LINE",
"372 110 LINE SMOOTH",
"372 72 OFFCURVE",
"374 38 OFFCURVE",
"377 3 CURVE",
"377 1 OFFCURVE",
"378 0 OFFCURVE",
"380 0 CURVE SMOOTH"
);
},
{
closed = 1;
nodes = (
"239 -12 OFFCURVE",
"299 23 OFFCURVE",
"381 115 CURVE",
"381 138 LINE",
"314 54 OFFCURVE",
"241 3 OFFCURVE",
"180 3 CURVE SMOOTH",
"112 3 OFFCURVE",
"82 43 OFFCURVE",
"82 112 CURVE SMOOTH",
"82 190 OFFCURVE",
"125 230 OFFCURVE",
"234 243 CURVE SMOOTH",
"377 260 LINE",
"377 275 LINE",
"234 258 LINE SMOOTH",
"115 244 OFFCURVE",
"66 199 OFFCURVE",
"66 112 CURVE SMOOTH",
"66 34 OFFCURVE",
"102 -12 OFFCURVE",
"179 -12 CURVE SMOOTH"
);
}
);
width = 483;
},
{
anchors = (
{
name = bottom;
position = "{268, 0}";
},
{
name = ogonek;
position = "{486, 10}";
},
{
name = top;
position = "{260, 500}";
}
);
layerId = "39FE7167-BE3C-4E72-AD2E-460E8E32521A";
paths = (
{
closed = 1;
nodes = (
"473 0 LINE SMOOTH",
"482.875 0 OFFCURVE",
"488 6 OFFCURVE",
"487 16 CURVE SMOOTH",
"483 56 OFFCURVE",
"482 92 OFFCURVE",
"482 131 CURVE SMOOTH",
"482 326 LINE SMOOTH",
"482 458.118 OFFCURVE",
"417.978 512 OFFCURVE",
"261 512 CURVE SMOOTH",
"105.773 512 OFFCURVE",
"33 456 OFFCURVE",
"42 342 CURVE SMOOTH",
"43 333 OFFCURVE",
"48.857 328 OFFCURVE",
"58 328 CURVE SMOOTH",
"193 328 LINE SMOOTH",
"203 328 OFFCURVE",
"209 334 OFFCURVE",
"208 343 CURVE SMOOTH",
"205 372 OFFCURVE",
"220.093 386 OFFCURVE",
"254 386 CURVE SMOOTH",
"290.471 386 OFFCURVE",
"302 373.75 OFFCURVE",
"302 335 CURVE SMOOTH",
"302 133 LINE",
"317 88 LINE",
"321 57 OFFCURVE",
"325 30 OFFCURVE",
"329 12 CURVE SMOOTH",
"330.865 3.608 OFFCURVE",
"335.375 0 OFFCURVE",
"344 0 CURVE SMOOTH"
);
},
{
closed = 1;
nodes = (
"236 -12 OFFCURVE",
"284 36 OFFCURVE",
"331 82 CURVE",
"319 171 LINE",
"285.877 131.743 OFFCURVE",
"258.071 115 OFFCURVE",
"226 115 CURVE SMOOTH",
"201.385 115 OFFCURVE",
"191 126.571 OFFCURVE",
"191 154 CURVE SMOOTH",
"191 189.167 OFFCURVE",
"208 204 OFFCURVE",
"257 209 CURVE SMOOTH",
"315 215 LINE",
"316 300 LINE",
"225 291 LINE SMOOTH",
"70 276 OFFCURVE",
"20 233 OFFCURVE",
"20 130 CURVE SMOOTH",
"20 40.235 OFFCURVE",
"68.556 -12 OFFCURVE",
"152 -12 CURVE SMOOTH"
);
}
);
width = 524;
}
);
leftKerningGroup = a;
rightKerningGroup = a;
rightMetricsKey = u;
unicode = 0061;
},
{
glyphname = ae;
lastChange = "2019-08-22 23:01:14 +0000";
layers = (
{
guideLines = (
{
position = "{377, 296}";
}
);
layerId = "9E4B8FD8-F8AF-4AA7-8E0D-0C907FFB2BDD";
paths = (
{
closed = 1;
nodes = (
"225 -12 OFFCURVE",
"284 19 OFFCURVE",
"350 86 CURVE",
"374 20 OFFCURVE",
"429 -12 OFFCURVE",
"517 -12 CURVE SMOOTH",
"634 -12 OFFCURVE",
"709 37 OFFCURVE",
"709 112 CURVE SMOOTH",
"709 127 OFFCURVE",
"706 135 OFFCURVE",
"699 135 CURVE SMOOTH",
"634 135 LINE SMOOTH",
"627 135 OFFCURVE",
"623 129 OFFCURVE",
"623 118 CURVE SMOOTH",
"623 84 OFFCURVE",
"586 63 OFFCURVE",
"525 63 CURVE SMOOTH",
"446 63 OFFCURVE",
"415 99 OFFCURVE",
"415 191 CURVE SMOOTH",
"415 227 LINE",
"708 227 LINE SMOOTH",
"714 227 OFFCURVE",
"718 231 OFFCURVE",
"718 237 CURVE SMOOTH",
"718 311 LINE SMOOTH",
"718 430 OFFCURVE",
"651 500 OFFCURVE",
"537 500 CURVE SMOOTH",
"470 500 OFFCURVE",
"413 476 OFFCURVE",
"381 433 CURVE",
"354 477 OFFCURVE",
"305 500 OFFCURVE",
"236 500 CURVE SMOOTH",
"132 500 OFFCURVE",
"61 447 OFFCURVE",
"68 372 CURVE SMOOTH",
"69 358 OFFCURVE",
"72 353 OFFCURVE",
"79 353 CURVE SMOOTH",
"145 353 LINE SMOOTH",
"151 353 OFFCURVE",
"154 357 OFFCURVE",
"154 363 CURVE SMOOTH",
"154 404 OFFCURVE",
"184 425 OFFCURVE",
"244 425 CURVE SMOOTH",
"310 425 OFFCURVE",
"334 400 OFFCURVE",
"334 333 CURVE SMOOTH",
"334 296 LINE",
"256 289 LINE SMOOTH",
"105 275 OFFCURVE",
"48 230 OFFCURVE",
"48 125 CURVE SMOOTH",
"48 36 OFFCURVE",
"89 -12 OFFCURVE",
"164 -12 CURVE SMOOTH"
);
},
{
closed = 1;
nodes = (
"151 63 OFFCURVE",
"133 85 OFFCURVE",
"133 131 CURVE SMOOTH",
"133 191 OFFCURVE",
"162 212 OFFCURVE",
"254 220 CURVE SMOOTH",
"334 227 LINE",
"334 201 LINE SMOOTH",
"334 185 OFFCURVE",
"334 167 OFFCURVE",
"336 152 CURVE",
"267 86 OFFCURVE",
"229 63 OFFCURVE",
"189 63 CURVE SMOOTH"
);
},
{
closed = 1;
nodes = (
"415 297 LINE SMOOTH",
"415 382 OFFCURVE",
"454 425 OFFCURVE",
"529 425 CURVE SMOOTH",
"601 425 OFFCURVE",
"633 385 OFFCURVE",
"633 298 CURVE SMOOTH",
"633 296 LINE",
"415 296 LINE"
);
}
);
width = 778;
},
{
layerId = "8E001827-4555-4882-9710-42A9586BB804";
paths = (
{
closed = 1;
nodes = (
"238 -12 OFFCURVE",
"298 21 OFFCURVE",
"378 110 CURVE",
"396 30 OFFCURVE",
"454 -13 OFFCURVE",
"546 -12 CURVE SMOOTH",
"641 -11 OFFCURVE",
"697 38 OFFCURVE",
"697 119 CURVE SMOOTH",
"697 121 OFFCURVE",
"696 122 OFFCURVE",
"694 122 CURVE SMOOTH",
"684 122 LINE SMOOTH",
"682 122 OFFCURVE",
"681 121 OFFCURVE",
"681 119 CURVE SMOOTH",
"681 48 OFFCURVE",
"630 4 OFFCURVE",
"546 4 CURVE SMOOTH",
"444 4 OFFCURVE",
"388 59 OFFCURVE",
"388 165 CURVE SMOOTH",
"388 253 LINE",
"704 253 LINE SMOOTH",
"706 253 OFFCURVE",
"707 254 OFFCURVE",
"707 256 CURVE SMOOTH",
"707 305 LINE SMOOTH",
"707 426 OFFCURVE",
"650 490 OFFCURVE",
"541 490 CURVE SMOOTH",
"461 490 OFFCURVE",
"407 453 OFFCURVE",
"384 385 CURVE",
"373 459 OFFCURVE",
"327 491 OFFCURVE",
"244 490 CURVE SMOOTH",
"140 489 OFFCURVE",
"91 445 OFFCURVE",
"96 366 CURVE",
"96 364 OFFCURVE",
"97 363 OFFCURVE",
"99 363 CURVE SMOOTH",
"109 363 LINE SMOOTH",
"111 363 OFFCURVE",
"112 364 OFFCURVE",
"112 366 CURVE",
"107 440 OFFCURVE",
"155 474 OFFCURVE",
"243 474 CURVE SMOOTH",
"337 474 OFFCURVE",
"372 432 OFFCURVE",
"372 336 CURVE SMOOTH",
"372 268 LINE",
"239 258 LINE SMOOTH",
"120 249 OFFCURVE",
"66 199 OFFCURVE",
"66 112 CURVE SMOOTH",
"66 34 OFFCURVE",
"102 -12 OFFCURVE",
"179 -12 CURVE SMOOTH"
);
},
{
closed = 1;
nodes = (
"112 3 OFFCURVE",
"82 43 OFFCURVE",
"82 112 CURVE SMOOTH",
"82 190 OFFCURVE",
"130 235 OFFCURVE",
"239 243 CURVE SMOOTH",
"372 253 LINE",
"372 165 LINE SMOOTH",
"372 150 OFFCURVE",
"373 138 OFFCURVE",
"374 129 CURVE",
"309 51 OFFCURVE",
"239 3 OFFCURVE",
"180 3 CURVE SMOOTH"
);
},
{
closed = 1;
nodes = (
"388 305 LINE SMOOTH",
"388 415 OFFCURVE",
"445 474 OFFCURVE",
"541 474 CURVE SMOOTH",
"640 474 OFFCURVE",
"691 415 OFFCURVE",
"691 305 CURVE SMOOTH",
"691 269 LINE",
"388 269 LINE"
);
}
);
width = 779;
},
{
layerId = "39FE7167-BE3C-4E72-AD2E-460E8E32521A";
paths = (
{
closed = 1;
nodes = (
"222 -12 OFFCURVE",
"275 14 OFFCURVE",
"334 75 CURVE",
"369 16 OFFCURVE",
"438 -12 OFFCURVE",
"545 -12 CURVE SMOOTH",
"701 -12 OFFCURVE",
"769 38 OFFCURVE",
"769 151 CURVE SMOOTH",
"769 161 OFFCURVE",
"764 166 OFFCURVE",
"754 166 CURVE SMOOTH",
"611 166 LINE SMOOTH",
"601 166 OFFCURVE",
"596 161 OFFCURVE",
"596 153 CURVE SMOOTH",
"596 131 OFFCURVE",
"575 118 OFFCURVE",
"539 118 CURVE SMOOTH",
"499 118 OFFCURVE",
"479 139 OFFCURVE",
"479 181 CURVE SMOOTH",
"479 213 LINE",
"765 213 LINE SMOOTH",
"774 213 OFFCURVE",
"780 219 OFFCURVE",
"780 228 CURVE SMOOTH",
"780 303 LINE SMOOTH",
"780 439 OFFCURVE",
"702 513 OFFCURVE",
"560 513 CURVE SMOOTH",
"501 513 OFFCURVE",
"440 490 OFFCURVE",
"407 453 CURVE",
"379 493 OFFCURVE",
"332 512 OFFCURVE",
"260 512 CURVE SMOOTH",
"106 512 OFFCURVE",
"34 456 OFFCURVE",
"42 342 CURVE SMOOTH",
"43 333 OFFCURVE",
"49 328 OFFCURVE",
"58 328 CURVE SMOOTH",
"193 328 LINE SMOOTH",
"203 328 OFFCURVE",
"209 334 OFFCURVE",
"208 343 CURVE SMOOTH",
"205 372 OFFCURVE",
"220 386 OFFCURVE",
"254 386 CURVE SMOOTH",
"290 386 OFFCURVE",
"302 374 OFFCURVE",
"302 335 CURVE SMOOTH",
"302 300 LINE",
"225 293 LINE SMOOTH",
"72 279 OFFCURVE",
"20 238 OFFCURVE",
"20 130 CURVE SMOOTH",
"20 40 OFFCURVE",
"69 -12 OFFCURVE",
"152 -12 CURVE SMOOTH"
);
},
{
closed = 1;
nodes = (
"202 115 OFFCURVE",
"191 126 OFFCURVE",
"191 154 CURVE SMOOTH",
"191 189 OFFCURVE",
"208 203 OFFCURVE",
"257 208 CURVE SMOOTH",
"302 213 LINE",
"302 197 LINE",
"302 182 OFFCURVE",
"303 168 OFFCURVE",
"305 155 CURVE",
"280 129 OFFCURVE",
"254 115 OFFCURVE",
"231 115 CURVE SMOOTH"
);
},
{
closed = 1;
nodes = (
"479 308 LINE SMOOTH",
"479 361 OFFCURVE",
"498 382 OFFCURVE",
"543 382 CURVE SMOOTH",
"583 382 OFFCURVE",
"605 359 OFFCURVE",
"605 308 CURVE SMOOTH",
"605 306 LINE",
"479 306 LINE"
);
}
);
width = 811;
}
);
leftKerningGroup = a;
leftMetricsKey = a;
rightKerningGroup = e;
rightMetricsKey = e;
unicode = 00E6;
},
{
glyphname = b;
lastChange = "2022-10-25 01:21:35 +0000";
layers = (
{
layerId = "9E4B8FD8-F8AF-4AA7-8E0D-0C907FFB2BDD";
paths = (
{
closed = 1;
nodes = (
"405 -12 OFFCURVE",
"472 58 OFFCURVE",
"472 191 CURVE SMOOTH",
"472 314 LINE SMOOTH",
"472 439 OFFCURVE",
"420 500 OFFCURVE",
"323 500 CURVE SMOOTH",
"261 500 OFFCURVE",
"208 475 OFFCURVE",
"145 416 CURVE",
"141 333 LINE",
"217 401 OFFCURVE",
"258 425 OFFCURVE",
"305 425 CURVE SMOOTH",
"360 425 OFFCURVE",
"387 389 OFFCURVE",
"387 309 CURVE SMOOTH",
"387 199 LINE SMOOTH",
"387 108 OFFCURVE",
"346 63 OFFCURVE",
"256 63 CURVE SMOOTH",
"229 63 OFFCURVE",
"190 67 OFFCURVE",
"160 73 CURVE",
"160 673 LINE SMOOTH",
"160 679 OFFCURVE",
"156 683 OFFCURVE",
"150 683 CURVE SMOOTH",
"85 683 LINE SMOOTH",
"79 683 OFFCURVE",
"75 679 OFFCURVE",
"75 673 CURVE SMOOTH",
"75 8 LINE",
"157 3 OFFCURVE",
"204 -12 OFFCURVE",
"268 -12 CURVE SMOOTH"
);
}
);
width = 536;
},
{
layerId = "8E001827-4555-4882-9710-42A9586BB804";
paths = (
{
closed = 1;
nodes = (
"381 -12 OFFCURVE",
"460 35 OFFCURVE",
"460 152 CURVE SMOOTH",
"460 328 LINE SMOOTH",
"460 439 OFFCURVE",
"415 490 OFFCURVE",
"315 490 CURVE SMOOTH",
"246 490 OFFCURVE",
"178 452 OFFCURVE",
"106 370 CURVE",
"106 349 LINE",
"181 435 OFFCURVE",
"248 474 OFFCURVE",
"315 474 CURVE SMOOTH",
"405 474 OFFCURVE",
"444 429 OFFCURVE",
"444 328 CURVE SMOOTH",
"444 151 LINE SMOOTH",
"444 46 OFFCURVE",
"371 4 OFFCURVE",
"269 4 CURVE SMOOTH",
"215 4 OFFCURVE",
"168 17 OFFCURVE",
"111 28 CURVE",
"111 680 LINE SMOOTH",
"111 682 OFFCURVE",
"110 683 OFFCURVE",
"108 683 CURVE SMOOTH",
"98 683 LINE SMOOTH",
"96 683 OFFCURVE",
"95 682 OFFCURVE",
"95 680 CURVE SMOOTH",
"95 16 LINE",
"161 4 OFFCURVE",
"216 -12 OFFCURVE",
"269 -12 CURVE SMOOTH"
);
}
);
width = 536;
},
{
layerId = "39FE7167-BE3C-4E72-AD2E-460E8E32521A";
paths = (
{
closed = 1;
nodes = (
"444 -12 OFFCURVE",
"514 51 OFFCURVE",
"514 191 CURVE SMOOTH",
"514 350 LINE SMOOTH",
"514 461 OFFCURVE",
"469 512 OFFCURVE",
"373 512 CURVE SMOOTH",
"314 512 OFFCURVE",
"258 488 OFFCURVE",
"209 440 CURVE",
"206 320 LINE",
"236 345 OFFCURVE",
"265 358 OFFCURVE",
"289 358 CURVE SMOOTH",
"321 358 OFFCURVE",
"334 342 OFFCURVE",
"334 304 CURVE SMOOTH",
"334 206 LINE SMOOTH",
"334 156 OFFCURVE",
"315 132 OFFCURVE",
"276 132 CURVE SMOOTH",
"255 132 OFFCURVE",
"239 135 OFFCURVE",
"222 138 CURVE",
"222 668 LINE SMOOTH",
"222 677 OFFCURVE",
"216 683 OFFCURVE",
"207 683 CURVE SMOOTH",
"57 683 LINE SMOOTH",
"48 683 OFFCURVE",
"42 677 OFFCURVE",
"42 668 CURVE SMOOTH",
"42 13 LINE",
"124 6 OFFCURVE",
"191 -12 OFFCURVE",
"287 -12 CURVE SMOOTH"
);
}
);
width = 547;
}
);
leftKerningGroup = h;
leftMetricsKey = h;
rightKerningGroup = o;
rightMetricsKey = "=o+2";
unicode = 0062;
},
{
glyphname = c;
lastChange = "2019-08-22 23:01:14 +0000";
layers = (
{
anchors = (
{
name = bottom;
position = "{271, 0}";
},
{
name = ogonek;
position = "{332, 10}";
},
{
name = top;
position = "{259, 488}";
}
);
layerId = "9E4B8FD8-F8AF-4AA7-8E0D-0C907FFB2BDD";
paths = (
{
closed = 1;
nodes = (
"388 -12 OFFCURVE",
"456 48 OFFCURVE",
"456 143 CURVE SMOOTH",
"456 149 OFFCURVE",
"452 152 OFFCURVE",
"446 152 CURVE SMOOTH",
"380 152 LINE SMOOTH",
"374 152 OFFCURVE",
"371 147 OFFCURVE",
"371 136 CURVE SMOOTH",
"371 94 OFFCURVE",
"331 63 OFFCURVE",
"267 63 CURVE SMOOTH",
"187 63 OFFCURVE",
"147 105 OFFCURVE",
"147 190 CURVE SMOOTH",
"147 298 LINE SMOOTH",
"147 385 OFFCURVE",
"187 425 OFFCURVE",
"268 425 CURVE SMOOTH",
"332 425 OFFCURVE",
"372 397 OFFCURVE",
"372 351 CURVE SMOOTH",
"372 340 OFFCURVE",
"375 335 OFFCURVE",
"381 335 CURVE SMOOTH",
"447 335 LINE SMOOTH",
"454 335 OFFCURVE",
"457 341 OFFCURVE",
"457 358 CURVE SMOOTH",
"457 443 OFFCURVE",
"385 500 OFFCURVE",
"268 500 CURVE SMOOTH",
"135 500 OFFCURVE",
"62 431 OFFCURVE",
"62 306 CURVE SMOOTH",
"62 182 LINE SMOOTH",
"62 57 OFFCURVE",
"132 -12 OFFCURVE",
"266 -12 CURVE SMOOTH"
);
}
);
width = 517;
},
{
anchors = (
{
name = bottom;
position = "{250, 0}";
},
{
name = ogonek;
position = "{336, 10}";
},
{
name = top;
position = "{250, 478}";
}
);
layerId = "8E001827-4555-4882-9710-42A9586BB804";
paths = (
{
closed = 1;
nodes = (
"372 -11 OFFCURVE",
"427 40 OFFCURVE",
"427 139 CURVE SMOOTH",
"427 141 OFFCURVE",
"426 142 OFFCURVE",
"424 142 CURVE SMOOTH",
"414 142 LINE SMOOTH",
"412 142 OFFCURVE",
"411 141 OFFCURVE",
"411 139 CURVE SMOOTH",
"411 49 OFFCURVE",
"361 4 OFFCURVE",
"258 4 CURVE SMOOTH",
"146 4 OFFCURVE",
"90 59 OFFCURVE",
"90 165 CURVE SMOOTH",
"90 305 LINE SMOOTH",
"90 415 OFFCURVE",
"145 474 OFFCURVE",
"253 474 CURVE SMOOTH",
"350 474 OFFCURVE",
"411 426 OFFCURVE",
"411 348 CURVE SMOOTH",
"411 346 OFFCURVE",
"412 345 OFFCURVE",
"414 345 CURVE SMOOTH",
"424 345 LINE SMOOTH",
"426 345 OFFCURVE",
"427 347 OFFCURVE",
"427 348 CURVE SMOOTH",
"427 436 OFFCURVE",
"360 490 OFFCURVE",
"253 490 CURVE SMOOTH",
"135 490 OFFCURVE",
"74 426 OFFCURVE",
"74 305 CURVE SMOOTH",
"74 163 LINE SMOOTH",
"74 50 OFFCURVE",
"138 -13 OFFCURVE",
"258 -12 CURVE SMOOTH"
);
}
);
width = 499;
},
{
anchors = (
{
name = bottom;
position = "{295, 0}";
},
{
name = ogonek;
position = "{337, 10}";
},
{
name = top;
position = "{273, 500}";
}
);
layerId = "39FE7167-BE3C-4E72-AD2E-460E8E32521A";
paths = (
{
closed = 1;
nodes = (
"440 -12 OFFCURVE",
"519 69 OFFCURVE",
"511 192 CURVE SMOOTH",
"510 201 OFFCURVE",
"504 208 OFFCURVE",
"495 208 CURVE SMOOTH",
"359 208 LINE SMOOTH",
"351 208 OFFCURVE",
"344 202 OFFCURVE",
"344 194 CURVE SMOOTH",
"344 160 OFFCURVE",
"326 140 OFFCURVE",
"279 140 CURVE SMOOTH",
"233 140 OFFCURVE",
"211 161 OFFCURVE",
"211 222 CURVE SMOOTH",
"211 279 LINE SMOOTH",
"211 340 OFFCURVE",
"233 361 OFFCURVE",
"280 361 CURVE SMOOTH",
"320 361 OFFCURVE",
"345 344 OFFCURVE",
"345 307 CURVE SMOOTH",
"345 299 OFFCURVE",
"352 293 OFFCURVE",
"360 293 CURVE SMOOTH",
"496 293 LINE SMOOTH",
"505 293 OFFCURVE",
"511 300 OFFCURVE",
"512 309 CURVE SMOOTH",
"524 418 OFFCURVE",
"440 512 OFFCURVE",
"277 512 CURVE SMOOTH",
"121 512 OFFCURVE",
"31 435 OFFCURVE",
"31 296 CURVE SMOOTH",
"31 204 LINE SMOOTH",
"31 65 OFFCURVE",
"121 -12 OFFCURVE",
"278 -12 CURVE SMOOTH"
);
}
);
width = 544;
}
);
leftKerningGroup = o;
leftMetricsKey = o;
rightKerningGroup = c;
unicode = 0063;
},
{
glyphname = d;
lastChange = "2019-08-22 23:01:14 +0000";
layers = (
{
anchors = (
{
name = bottom;
position = "{271, 0}";
},
{
name = center;
position = "{271, 244}";
},
{
name = top;
position = "{271, 488}";
},
{
name = topright;
position = "{522, 488}";
}
);
layerId = "9E4B8FD8-F8AF-4AA7-8E0D-0C907FFB2BDD";
paths = (
{
closed = 1;
nodes = (
"277 -12 OFFCURVE",
"331 19 OFFCURVE",
"399 88 CURVE",
"401 166 LINE",
"322 88 OFFCURVE",
"281 63 OFFCURVE",
"231 63 CURVE SMOOTH",
"176 63 OFFCURVE",
"149 98 OFFCURVE",
"149 169 CURVE SMOOTH",
"149 289 LINE SMOOTH",
"149 379 OFFCURVE",
"185 425 OFFCURVE",
"260 425 CURVE SMOOTH",
"299 425 OFFCURVE",
"354 412 OFFCURVE",
"397 390 CURVE",
"392 463 LINE",
"362 484 OFFCURVE",
"297 500 OFFCURVE",
"245 500 CURVE SMOOTH",
"131 500 OFFCURVE",
"64 425 OFFCURVE",
"64 299 CURVE SMOOTH",
"64 174 LINE SMOOTH",
"64 51 OFFCURVE",
"115 -12 OFFCURVE",
"209 -12 CURVE SMOOTH"
);
},
{
closed = 1;
nodes = (
"464 0 LINE SMOOTH",
"472 0 OFFCURVE",
"476 5 OFFCURVE",
"474 14 CURVE SMOOTH",
"470 33 OFFCURVE",
"467 85 OFFCURVE",
"467 113 CURVE SMOOTH",
"467 673 LINE SMOOTH",
"467 679 OFFCURVE",
"463 683 OFFCURVE",
"457 683 CURVE SMOOTH",
"392 683 LINE SMOOTH",
"386 683 OFFCURVE",
"382 679 OFFCURVE",
"382 673 CURVE SMOOTH",
"382 132 LINE",
"387 87 LINE",
"386 67 OFFCURVE",
"391 31 OFFCURVE",
"394 11 CURVE SMOOTH",
"395 3 OFFCURVE",
"399 0 OFFCURVE",
"406 0 CURVE SMOOTH"
);
}
);
width = 543;
},
{
anchors = (
{
name = bottom;
position = "{264, 0}";
},
{
name = center;
position = "{264, 239}";
},
{
name = top;
position = "{264, 478}";
},
{
name = topright;
position = "{512, 478}";
}
);
layerId = "8E001827-4555-4882-9710-42A9586BB804";
paths = (
{
closed = 1;
nodes = (
"294 -12 OFFCURVE",
"353 29 OFFCURVE",
"425 111 CURVE",
"425 133 LINE",
"360 55 OFFCURVE",
"295 4 OFFCURVE",
"218 4 CURVE SMOOTH",
"132 4 OFFCURVE",
"92 49 OFFCURVE",
"92 149 CURVE SMOOTH",
"92 318 LINE SMOOTH",
"92 425 OFFCURVE",
"157 474 OFFCURVE",
"252 474 CURVE SMOOTH",
"314 474 OFFCURVE",
"366 454 OFFCURVE",
"431 419 CURVE",
"431 437 LINE",
"371 469 OFFCURVE",
"316 490 OFFCURVE",
"252 490 CURVE SMOOTH",
"144 490 OFFCURVE",
"76 434 OFFCURVE",
"76 317 CURVE SMOOTH",
"76 149 LINE SMOOTH",
"76 39 OFFCURVE",
"122 -12 OFFCURVE",
"218 -12 CURVE SMOOTH"
);
},
{
closed = 1;
nodes = (
"439 0 LINE SMOOTH",
"441 0 OFFCURVE",
"442 1 OFFCURVE",
"442 3 CURVE",
"439 39 OFFCURVE",
"437 73 OFFCURVE",
"437 110 CURVE SMOOTH",
"437 680 LINE SMOOTH",
"437 682 OFFCURVE",
"436 683 OFFCURVE",
"434 683 CURVE SMOOTH",
"424 683 LINE SMOOTH",
"422 683 OFFCURVE",
"421 682 OFFCURVE",
"421 680 CURVE SMOOTH",
"421 119 LINE",
"421 110 LINE SMOOTH",
"421 72 OFFCURVE",
"423 39 OFFCURVE",
"426 3 CURVE",
"426 1 OFFCURVE",
"427 0 OFFCURVE",
"429 0 CURVE SMOOTH"
);
}
);
width = 532;
},
{
anchors = (
{
name = bottom;
position = "{279, 0}";
},
{
name = center;
position = "{279, 250}";
},
{
name = top;
position = "{279, 500}";
},
{
name = topright;
position = "{535, 500}";
}
);
layerId = "39FE7167-BE3C-4E72-AD2E-460E8E32521A";
paths = (
{
closed = 1;
nodes = (
"267 -12 OFFCURVE",
"324 45 OFFCURVE",
"366 89 CURVE",
"351 192 LINE",
"329 168 OFFCURVE",
"293 142 OFFCURVE",
"258 142 CURVE SMOOTH",
"225 142 OFFCURVE",
"213 160 OFFCURVE",
"213 196 CURVE SMOOTH",
"213 294 LINE SMOOTH",
"213 341 OFFCURVE",
"230 368 OFFCURVE",
"268 368 CURVE SMOOTH",
"290 368 OFFCURVE",
"320 362 OFFCURVE",
"347 346 CURVE",
"345 480 LINE",
"306 501 OFFCURVE",
"246 512 OFFCURVE",
"206 512 CURVE SMOOTH",
"96 512 OFFCURVE",
"33 457 OFFCURVE",
"33 308 CURVE SMOOTH",
"33 150 LINE SMOOTH",
"33 37 OFFCURVE",
"80 -12 OFFCURVE",
"174 -12 CURVE SMOOTH"
);
},
{
closed = 1;
nodes = (
"501 0 LINE SMOOTH",
"511 0 OFFCURVE",
"516 6 OFFCURVE",
"515 16 CURVE SMOOTH",
"512 51 OFFCURVE",
"510 87 OFFCURVE",
"510 131 CURVE SMOOTH",
"510 668 LINE SMOOTH",
"510 677 OFFCURVE",
"504 683 OFFCURVE",
"495 683 CURVE SMOOTH",
"345 683 LINE SMOOTH",
"336 683 OFFCURVE",
"330 677 OFFCURVE",
"330 668 CURVE SMOOTH",
"330 155 LINE",
"347 88 LINE",
"348 61 OFFCURVE",
"352 33 OFFCURVE",
"357 12 CURVE SMOOTH",
"359 3 OFFCURVE",
"364 0 OFFCURVE",
"372 0 CURVE SMOOTH"
);
}
);
width = 552;
}
);
leftKerningGroup = o;
leftMetricsKey = "=o+2";
rightKerningGroup = d;
rightMetricsKey = u;
unicode = 0064;
},
{
glyphname = eth;
lastChange = "2019-08-22 23:01:14 +0000";
layers = (
{
layerId = "9E4B8FD8-F8AF-4AA7-8E0D-0C907FFB2BDD";
paths = (
{
closed = 1;
nodes = (
"399 -12 OFFCURVE",
"470 62 OFFCURVE",
"470 195 CURVE SMOOTH",
"470 355 LINE SMOOTH",
"470 519 OFFCURVE",
"367 664 OFFCURVE",
"209 693 CURVE SMOOTH",
"198 695 OFFCURVE",
"193 695 OFFCURVE",
"188 687 CURVE SMOOTH",
"161 648 LINE SMOOTH",
"156 640 OFFCURVE",
"158 635 OFFCURVE",
"174 631 CURVE SMOOTH",
"307 598 OFFCURVE",
"404 474 OFFCURVE",
"387 306 CURVE",
"387 197 LINE SMOOTH",
"387 109 OFFCURVE",
"348 60 OFFCURVE",
"266 60 CURVE SMOOTH",
"184 60 OFFCURVE",
"147 94 OFFCURVE",
"147 183 CURVE SMOOTH",
"147 268 LINE SMOOTH",
"147 352 OFFCURVE",
"179 390 OFFCURVE",
"235 390 CURVE SMOOTH",
"293 390 OFFCURVE",
"354 356 OFFCURVE",
"392 296 CURVE",
"392 382 LINE",
"349 439 OFFCURVE",
"290 466 OFFCURVE",
"218 466 CURVE SMOOTH",
"123 466 OFFCURVE",
"62 402 OFFCURVE",
"62 280 CURVE SMOOTH",
"62 175 LINE SMOOTH",
"62 48 OFFCURVE",
"132 -12 OFFCURVE",
"266 -12 CURVE SMOOTH"
);
},
{
closed = 1;
nodes = (
"458 635 LINE SMOOTH",
"463 637 OFFCURVE",
"466 642 OFFCURVE",
"464 647 CURVE SMOOTH",
"447 685 LINE SMOOTH",
"443 693 OFFCURVE",
"440 695 OFFCURVE",
"434 692 CURVE SMOOTH",
"168 572 LINE SMOOTH",
"163 570 OFFCURVE",
"160 565 OFFCURVE",
"162 560 CURVE SMOOTH",
"180 522 LINE SMOOTH",
"184 514 OFFCURVE",
"187 512 OFFCURVE",
"193 515 CURVE SMOOTH"
);
}
);
width = 532;
},
{
layerId = "8E001827-4555-4882-9710-42A9586BB804";
paths = (
{
closed = 1;
nodes = (
"375.02 -12 OFFCURVE",
"446 54.019 OFFCURVE",
"446 161 CURVE SMOOTH",
"446 363 LINE SMOOTH",
"446 528.117 OFFCURVE",
"364 643 OFFCURVE",
"211 694 CURVE SMOOTH",
"209 695 OFFCURVE",
"208 694 OFFCURVE",
"207 693 CURVE SMOOTH",
"202 683 LINE SMOOTH",
"201 682 OFFCURVE",
"201 680 OFFCURVE",
"203 679 CURVE SMOOTH",
"353 632 OFFCURVE",
"430 521.053 OFFCURVE",
"430 363 CURVE SMOOTH",
"430 165 LINE SMOOTH",
"430 64.306 OFFCURVE",
"366.323 4 OFFCURVE",
"260 4 CURVE SMOOTH",
"153.677 4 OFFCURVE",
"90 64.306 OFFCURVE",
"90 165 CURVE SMOOTH",
"90 276 LINE SMOOTH",
"90 364.125 OFFCURVE",
"140.654 419 OFFCURVE",
"222 419 CURVE SMOOTH",
"299 419 OFFCURVE",
"365 377 OFFCURVE",
"438 320 CURVE",
"438 340 LINE",
"371 390 OFFCURVE",
"303 435 OFFCURVE",
"222 435 CURVE SMOOTH",
"132.141 435 OFFCURVE",
"74 373.716 OFFCURVE",
"74 279 CURVE SMOOTH",
"74 161 LINE SMOOTH",
"74 54.019 OFFCURVE",
"144.98 -12 OFFCURVE",
"260 -12 CURVE SMOOTH"
);
},
{
closed = 1;
nodes = (
"443 652 LINE",
"445 653 OFFCURVE",
"445 654 OFFCURVE",
"444 656 CURVE SMOOTH",
"440 666 LINE SMOOTH",
"439 668 OFFCURVE",
"438 668 OFFCURVE",
"436 667 CURVE",
"180 549 LINE",
"178 548 OFFCURVE",
"178 547 OFFCURVE",
"179 545 CURVE SMOOTH",
"183 535 LINE SMOOTH",
"184 533 OFFCURVE",
"185 533 OFFCURVE",
"187 534 CURVE"
);
}
);
width = 520;
},
{
layerId = "39FE7167-BE3C-4E72-AD2E-460E8E32521A";
paths = (
{
closed = 1;
nodes = (
"411 -12 OFFCURVE",
"508 67 OFFCURVE",
"508 206 CURVE SMOOTH",
"508 352 LINE SMOOTH",
"508 535 OFFCURVE",
"432 639 OFFCURVE",
"230 693 CURVE SMOOTH",
"220 696 OFFCURVE",
"215 695 OFFCURVE",
"208 685 CURVE SMOOTH",
"143 597 LINE SMOOTH",
"136 587 OFFCURVE",
"140 579 OFFCURVE",
"151 576 CURVE SMOOTH",
"325 530 OFFCURVE",
"344 485 OFFCURVE",
"328 328 CURVE",
"328 225 LINE SMOOTH",
"328 162 OFFCURVE",
"304 141 OFFCURVE",
"266 141 CURVE SMOOTH",
"228 141 OFFCURVE",
"211 160 OFFCURVE",
"211 196 CURVE SMOOTH",
"211 238 LINE SMOOTH",
"211 287 OFFCURVE",
"228 314 OFFCURVE",
"266 314 CURVE SMOOTH",
"287 314 OFFCURVE",
"318 304 OFFCURVE",
"344 281 CURVE",
"342 415 LINE",
"303 442 OFFCURVE",
"240 458 OFFCURVE",
"198 458 CURVE SMOOTH",
"88 458 OFFCURVE",
"31 400 OFFCURVE",
"31 251 CURVE SMOOTH",
"31 206 LINE SMOOTH",
"31 67 OFFCURVE",
"103 -12 OFFCURVE",
"257 -12 CURVE SMOOTH"
);
},
{
closed = 1;
nodes = (
"458 635 LINE SMOOTH",
"463 638 OFFCURVE",
"467 642 OFFCURVE",
"464 647 CURVE SMOOTH",
"445 682 LINE SMOOTH",
"441 690 OFFCURVE",
"438 693 OFFCURVE",
"432 690 CURVE SMOOTH",
"168 535 LINE SMOOTH",
"163 532 OFFCURVE",
"159 528 OFFCURVE",
"162 523 CURVE SMOOTH",
"182 488 LINE SMOOTH",
"187 480 OFFCURVE",
"189 478 OFFCURVE",
"195 481 CURVE SMOOTH"
);
}
);
width = 539;
}
);
leftKerningGroup = o;
leftMetricsKey = o;
rightKerningGroup = o;
rightMetricsKey = o;
unicode = 00F0;
},
{
glyphname = dcroat;
lastChange = "2019-08-22 23:01:14 +0000";
layers = (
{
components = (
{
name = d;
}
);
layerId = "9E4B8FD8-F8AF-4AA7-8E0D-0C907FFB2BDD";
paths = (
{
closed = 1;
nodes = (
"467 553 LINE",
"538 553 LINE SMOOTH",
"544 553 OFFCURVE",
"548 557 OFFCURVE",
"548 563 CURVE SMOOTH",
"548 613 LINE SMOOTH",
"548 619 OFFCURVE",
"544 623 OFFCURVE",
"538 623 CURVE SMOOTH",
"277 623 LINE SMOOTH",
"271 623 OFFCURVE",
"267 619 OFFCURVE",
"267 613 CURVE SMOOTH",
"267 563 LINE SMOOTH",
"267 557 OFFCURVE",
"271 553 OFFCURVE",
"277 553 CURVE SMOOTH"
);
}
);
width = 542;
},
{
components = (
{
name = d;
}
);
layerId = "8E001827-4555-4882-9710-42A9586BB804";
paths = (
{
closed = 1;
nodes = (
"437 584 LINE",
"541 584 LINE SMOOTH",
"543 584 OFFCURVE",
"544 585 OFFCURVE",
"544 587 CURVE SMOOTH",
"544 597 LINE SMOOTH",
"544 599 OFFCURVE",
"543 600 OFFCURVE",
"541 600 CURVE SMOOTH",
"273 600 LINE SMOOTH",
"271 600 OFFCURVE",
"270 599 OFFCURVE",
"270 597 CURVE SMOOTH",
"270 587 LINE SMOOTH",
"270 585 OFFCURVE",
"271 584 OFFCURVE",
"273 584 CURVE SMOOTH"
);
}
);
width = 532;
},
{
components = (
{
name = d;
}
);
layerId = "39FE7167-BE3C-4E72-AD2E-460E8E32521A";
paths = (
{
closed = 1;
nodes = (
"510 547 LINE",
"550 547 LINE SMOOTH",
"559 547 OFFCURVE",
"565 553 OFFCURVE",
"565 562 CURVE SMOOTH",
"565 636 LINE SMOOTH",
"565 645 OFFCURVE",
"559 651 OFFCURVE",
"550 651 CURVE SMOOTH",
"266 651 LINE SMOOTH",
"257 651 OFFCURVE",
"251 645 OFFCURVE",
"251 636 CURVE SMOOTH",
"251 562 LINE SMOOTH",
"251 553 OFFCURVE",
"257 547 OFFCURVE",
"266 547 CURVE SMOOTH"
);
}
);
width = 562;
}
);
leftKerningGroup = o;
leftMetricsKey = "=o+2";
rightKerningGroup = dcroat;
unicode = 0111;
},
{
glyphname = e;
lastChange = "2019-08-22 23:01:14 +0000";
layers = (
{
anchors = (
{
name = bottom;
position = "{262, 0}";
},
{
name = ogonek;
position = "{374, 11}";
},
{
name = top;
position = "{258, 500}";
}
);
layerId = "9E4B8FD8-F8AF-4AA7-8E0D-0C907FFB2BDD";
paths = (
{
closed = 1;
nodes = (
"382 -12 OFFCURVE",
"455 41 OFFCURVE",
"450 126 CURVE SMOOTH",
"449 131 OFFCURVE",
"445 135 OFFCURVE",
"440 135 CURVE SMOOTH",
"375 135 LINE SMOOTH",
"369 135 OFFCURVE",
"364 131 OFFCURVE",
"364 124 CURVE SMOOTH",
"364 84 OFFCURVE",
"329 63 OFFCURVE",
"266 63 CURVE SMOOTH",
"182 63 OFFCURVE",
"147 101 OFFCURVE",
"147 191 CURVE SMOOTH",
"147 223 LINE",
"449 223 LINE SMOOTH",
"455 223 OFFCURVE",
"459 227 OFFCURVE",
"459 233 CURVE SMOOTH",
"459 311 LINE SMOOTH",
"459 434 OFFCURVE",
"390 500 OFFCURVE",
"261 500 CURVE SMOOTH",
"132 500 OFFCURVE",
"62 432 OFFCURVE",
"62 306 CURVE SMOOTH",
"62 166 LINE SMOOTH",
"62 48 OFFCURVE",
"133 -12 OFFCURVE",
"261 -12 CURVE SMOOTH"
);
},
{
closed = 1;
nodes = (
"147 301 LINE SMOOTH",
"147 383 OFFCURVE",
"185 425 OFFCURVE",
"262 425 CURVE SMOOTH",
"337 425 OFFCURVE",
"374 386 OFFCURVE",
"374 302 CURVE SMOOTH",
"374 296 LINE",
"147 296 LINE"
);
}
);
width = 519;
},
{
anchors = (
{
name = bottom;
position = "{252, 0}";
},
{
name = ogonek;
position = "{352, 10}";
},
{
name = top;
position = "{252, 478}";
}
);
layerId = "8E001827-4555-4882-9710-42A9586BB804";
paths = (
{
closed = 1;
nodes = (
"366 -11 OFFCURVE",
"422 38 OFFCURVE",
"422 119 CURVE SMOOTH",
"422 121 OFFCURVE",
"421 122 OFFCURVE",
"419 122 CURVE SMOOTH",
"409 122 LINE SMOOTH",
"407 122 OFFCURVE",
"406 121 OFFCURVE",
"406 119 CURVE SMOOTH",
"406 48 OFFCURVE",
"355 4 OFFCURVE",
"258 4 CURVE SMOOTH",
"146 4 OFFCURVE",
"90 59 OFFCURVE",
"90 165 CURVE SMOOTH",
"90 248 LINE",
"429 248 LINE SMOOTH",
"431 248 OFFCURVE",
"432 249 OFFCURVE",
"432 251 CURVE SMOOTH",
"432 305 LINE SMOOTH",
"432 426 OFFCURVE",
"371 490 OFFCURVE",
"253 490 CURVE SMOOTH",
"135 490 OFFCURVE",
"74 426 OFFCURVE",
"74 305 CURVE SMOOTH",
"74 163 LINE SMOOTH",
"74 50 OFFCURVE",
"138 -13 OFFCURVE",
"258 -12 CURVE SMOOTH"
);
},
{
closed = 1;
nodes = (
"90 305 LINE SMOOTH",
"90 415 OFFCURVE",
"145 474 OFFCURVE",
"253 474 CURVE SMOOTH",
"361 474 OFFCURVE",
"416 415 OFFCURVE",
"416 305 CURVE SMOOTH",
"416 264 LINE",
"90 264 LINE"
);
}
);
width = 504;
},
{
anchors = (
{
name = bottom;
position = "{278, 0}";
},
{
name = ogonek;
position = "{427, 10}";
},
{
name = top;
position = "{274, 500}";
}
);
layerId = "39FE7167-BE3C-4E72-AD2E-460E8E32521A";
paths = (
{
closed = 1;
nodes = (
"439 -12 OFFCURVE",
"508 37 OFFCURVE",
"508 151 CURVE SMOOTH",
"508 161 OFFCURVE",
"503 166 OFFCURVE",
"493 166 CURVE SMOOTH",
"350 166 LINE SMOOTH",
"341 166 OFFCURVE",
"335 162 OFFCURVE",
"335 153 CURVE SMOOTH",
"335 129 OFFCURVE",
"310 118 OFFCURVE",
"273 118 CURVE SMOOTH",
"226 118 OFFCURVE",
"208 141 OFFCURVE",
"208 181 CURVE SMOOTH",
"208 209 LINE",
"504 209 LINE SMOOTH",
"513 209 OFFCURVE",
"519 215 OFFCURVE",
"519 224 CURVE SMOOTH",
"519 302 LINE SMOOTH",
"519 442 OFFCURVE",
"437 512 OFFCURVE",
"275 512 CURVE SMOOTH",
"106 512 OFFCURVE",
"31 437 OFFCURVE",
"31 293 CURVE SMOOTH",
"31 197 LINE SMOOTH",
"31 58 OFFCURVE",
"104 -12 OFFCURVE",
"279 -12 CURVE SMOOTH"
);
},
{
closed = 1;
nodes = (
"208 305 LINE SMOOTH",
"208 359 OFFCURVE",
"226 381 OFFCURVE",
"277 381 CURVE SMOOTH",
"325 381 OFFCURVE",
"344 360 OFFCURVE",
"344 305 CURVE SMOOTH",
"344 301 LINE",
"208 301 LINE"
);
}
);
width = 550;
}
);
leftKerningGroup = o;
leftMetricsKey = o;
rightKerningGroup = e;
unicode = 0065;
},
{
glyphname = f;
lastChange = "2019-08-22 23:01:14 +0000";
layers = (
{
anchors = (
{
name = bottom;
position = "{184, 0}";
},
{
name = top;
position = "{184, 488}";
}
);
layerId = "9E4B8FD8-F8AF-4AA7-8E0D-0C907FFB2BDD";
paths = (
{
closed = 1;
nodes = (
"182 0 LINE SMOOTH",
"188 0 OFFCURVE",
"192 4 OFFCURVE",
"192 10 CURVE SMOOTH",
"192 415 LINE",
"337 415 LINE SMOOTH",
"343 415 OFFCURVE",
"347 419 OFFCURVE",
"347 425 CURVE SMOOTH",
"347 478 LINE SMOOTH",
"347 484 OFFCURVE",
"343 488 OFFCURVE",
"337 488 CURVE SMOOTH",
"192 488 LINE",
"192 538 LINE SMOOTH",
"192 592 OFFCURVE",
"221 621 OFFCURVE",
"276 621 CURVE SMOOTH",
"300 621 OFFCURVE",
"333 614 OFFCURVE",
"354 605 CURVE SMOOTH",
"372 597 OFFCURVE",
"377 601 OFFCURVE",
"377 609 CURVE SMOOTH",
"377 662 LINE SMOOTH",
"377 669 OFFCURVE",
"371 674 OFFCURVE",
"358 679 CURVE SMOOTH",
"335 688 OFFCURVE",
"300 695 OFFCURVE",
"270 695 CURVE SMOOTH",
"168 695 OFFCURVE",
"107 638 OFFCURVE",
"107 540 CURVE SMOOTH",
"107 488 LINE",
"30 488 LINE SMOOTH",
"24 488 OFFCURVE",
"20 484 OFFCURVE",
"20 478 CURVE SMOOTH",
"20 425 LINE SMOOTH",
"20 419 OFFCURVE",
"24 415 OFFCURVE",
"30 415 CURVE SMOOTH",
"107 415 LINE",
"107 10 LINE SMOOTH",
"107 4 OFFCURVE",
"111 0 OFFCURVE",
"117 0 CURVE SMOOTH"
);
}
);
width = 367;
},
{
anchors = (
{
name = bottom;
position = "{175, 0}";
},
{
name = top;
position = "{175, 478}";
}
);
layerId = "8E001827-4555-4882-9710-42A9586BB804";
paths = (
{
closed = 1;
nodes = (
"135 0 LINE SMOOTH",
"137 0 OFFCURVE",
"138 1 OFFCURVE",
"138 3 CURVE SMOOTH",
"138 462 LINE",
"323 462 LINE SMOOTH",
"325 462 OFFCURVE",
"326 463 OFFCURVE",
"326 465 CURVE SMOOTH",
"326 475 LINE SMOOTH",
"326 477 OFFCURVE",
"325 478 OFFCURVE",
"323 478 CURVE SMOOTH",
"138 478 LINE",
"138 538 LINE SMOOTH",
"138 636 OFFCURVE",
"168 679 OFFCURVE",
"261 679 CURVE SMOOTH",
"287 679 OFFCURVE",
"320 676 OFFCURVE",
"347 667 CURVE",
"349 666 OFFCURVE",
"350 667 OFFCURVE",
"350 669 CURVE SMOOTH",
"350 680 LINE SMOOTH",
"350 681 OFFCURVE",
"350 682 OFFCURVE",
"348 683 CURVE",
"328 690 OFFCURVE",
"291 695 OFFCURVE",
"261 695 CURVE SMOOTH",
"162 695 OFFCURVE",
"122 649 OFFCURVE",
"122 539 CURVE SMOOTH",
"122 478 LINE",
"35 478 LINE SMOOTH",
"33 478 OFFCURVE",
"32 477 OFFCURVE",
"32 475 CURVE SMOOTH",
"32 465 LINE SMOOTH",
"32 463 OFFCURVE",
"33 462 OFFCURVE",
"35 462 CURVE SMOOTH",
"122 462 LINE",
"122 3 LINE SMOOTH",
"122 1 OFFCURVE",
"123 0 OFFCURVE",
"125 0 CURVE SMOOTH"
);
}
);
width = 345;
},
{
anchors = (
{
name = bottom;
position = "{204, 0}";
},
{
name = top;
position = "{204, 500}";
}
);
layerId = "39FE7167-BE3C-4E72-AD2E-460E8E32521A";
paths = (
{
closed = 1;
nodes = (
"258 0 LINE SMOOTH",
"266 0 OFFCURVE",
"273 7 OFFCURVE",
"273 15 CURVE SMOOTH",
"273 352 LINE",
"372 352 LINE SMOOTH",
"380 352 OFFCURVE",
"387 359 OFFCURVE",
"387 367 CURVE SMOOTH",
"387 484 LINE SMOOTH",
"387 493 OFFCURVE",
"382 500 OFFCURVE",
"371 500 CURVE SMOOTH",
"273 500 LINE",
"273 508 LINE SMOOTH",
"273 541 OFFCURVE",
"288 557 OFFCURVE",
"330 557 CURVE SMOOTH",
"360 557 OFFCURVE",
"385 552 OFFCURVE",
"406 546 CURVE SMOOTH",
"418 543 OFFCURVE",
"424 547 OFFCURVE",
"424 559 CURVE SMOOTH",
"424 668 LINE SMOOTH",
"424 675 OFFCURVE",
"422 680 OFFCURVE",
"414 682 CURVE SMOOTH",
"390 688 OFFCURVE",
"338 695 OFFCURVE",
"281 695 CURVE SMOOTH",
"156 695 OFFCURVE",
"93 640 OFFCURVE",
"93 523 CURVE SMOOTH",
"93 500 LINE",
"25 500 LINE SMOOTH",
"17 500 OFFCURVE",
"10 493 OFFCURVE",
"10 485 CURVE SMOOTH",
"10 367 LINE SMOOTH",
"10 359 OFFCURVE",
"17 352 OFFCURVE",
"25 352 CURVE SMOOTH",
"93 352 LINE",
"93 15 LINE SMOOTH",
"93 7 OFFCURVE",
"100 0 OFFCURVE",
"108 0 CURVE SMOOTH"
);
}
);
width = 408;
}
);
leftKerningGroup = f;
rightKerningGroup = f;
unicode = 0066;
},
{
glyphname = g;
lastChange = "2019-08-22 23:01:14 +0000";
layers = (
{
anchors = (
{
name = bottom;
position = "{260, 0}";
},
{
name = top;
position = "{260, 488}";
}
);
guideLines = (
{
angle = 90;
position = "{79, 247}";
}
);
layerId = "9E4B8FD8-F8AF-4AA7-8E0D-0C907FFB2BDD";
paths = (
{
closed = 1;
nodes = (
"414 -197 OFFCURVE",
"483 -156 OFFCURVE",
"483 -54 CURVE SMOOTH",
"483 32 OFFCURVE",
"444 77 OFFCURVE",
"365 82 CURVE SMOOTH",
"199 92 LINE SMOOTH",
"165 94 OFFCURVE",
"150 103 OFFCURVE",
"150 127 CURVE SMOOTH",
"150 149 OFFCURVE",
"163 167 OFFCURVE",
"192 179 CURVE",
"138 211 LINE",
"90 175 OFFCURVE",
"72 151 OFFCURVE",
"72 109 CURVE SMOOTH",
"72 48 OFFCURVE",
"112 20 OFFCURVE",
"154 18 CURVE SMOOTH",
"339 8 LINE SMOOTH",
"382 6 OFFCURVE",
"399 -11 OFFCURVE",
"399 -50 CURVE SMOOTH",
"399 -107 OFFCURVE",
"364 -125 OFFCURVE",
"259 -125 CURVE SMOOTH",
"158 -125 OFFCURVE",
"123 -107 OFFCURVE",
"123 -54 CURVE SMOOTH",
"123 -17 OFFCURVE",
"141 12 OFFCURVE",
"181 24 CURVE",
"114 51 LINE",
"61 25 OFFCURVE",
"35 -15 OFFCURVE",
"35 -70 CURVE SMOOTH",
"35 -156 OFFCURVE",
"99 -197 OFFCURVE",
"255 -197 CURVE SMOOTH"
);
},
{
closed = 1;
nodes = (
"389 158 OFFCURVE",
"447 212 OFFCURVE",
"447 328 CURVE SMOOTH",
"447 444 OFFCURVE",
"388 500 OFFCURVE",
"266 500 CURVE SMOOTH",
"138 500 OFFCURVE",
"79 445 OFFCURVE",
"79 329 CURVE SMOOTH",
"79 213 OFFCURVE",
"137 158 OFFCURVE",
"263 158 CURVE SMOOTH"
);
},
{
closed = 1;
nodes = (
"189 232 OFFCURVE",
"164 257 OFFCURVE",
"164 328 CURVE SMOOTH",
"164 400 OFFCURVE",
"190 426 OFFCURVE",
"263 426 CURVE SMOOTH",
"336 426 OFFCURVE",
"362 400 OFFCURVE",
"362 328 CURVE SMOOTH",
"362 257 OFFCURVE",
"337 232 OFFCURVE",
"263 232 CURVE SMOOTH"
);
},
{
closed = 1;
nodes = (
"398 528 OFFCURVE",
"406 567 OFFCURVE",
"419 608 CURVE SMOOTH",
"421 614 OFFCURVE",
"419 618 OFFCURVE",
"411 618 CURVE SMOOTH",
"348 618 LINE SMOOTH",
"341 618 OFFCURVE",
"338 614 OFFCURVE",
"336 606 CURVE SMOOTH",
"329 577 OFFCURVE",
"322 536 OFFCURVE",
"315 474 CURVE",
"385 444 LINE"
);
}
);
width = 517;
},
{
anchors = (
{
name = bottom;
position = "{252, 0}";
},
{
name = top;
position = "{252, 478}";
}
);
layerId = "8E001827-4555-4882-9710-42A9586BB804";
paths = (
{
closed = 1;
nodes = (
"403 -197 OFFCURVE",
"456 -160 OFFCURVE",
"456 -68 CURVE SMOOTH",
"456 16 OFFCURVE",
"416 44 OFFCURVE",
"331 50 CURVE SMOOTH",
"183 60 LINE SMOOTH",
"117 64 OFFCURVE",
"102 91 OFFCURVE",
"102 120 CURVE SMOOTH",
"102 159 OFFCURVE",
"128 181 OFFCURVE",
"168 203 CURVE",
"153 213 LINE",
"113 188 OFFCURVE",
"86 162 OFFCURVE",
"86 121 CURVE SMOOTH",
"86 79 OFFCURVE",
"109 50 OFFCURVE",
"169 46 CURVE SMOOTH",
"326 35 LINE SMOOTH",
"409 29 OFFCURVE",
"440 5 OFFCURVE",
"440 -68 CURVE SMOOTH",
"440 -147 OFFCURVE",
"395 -181 OFFCURVE",
"253 -181 CURVE SMOOTH",
"117 -181 OFFCURVE",
"64 -151 OFFCURVE",
"64 -74 CURVE SMOOTH",
"64 -2 OFFCURVE",
"99 30 OFFCURVE",
"178 55 CURVE",
"153 59 LINE",
"81 35 OFFCURVE",
"48 -1 OFFCURVE",
"48 -74 CURVE SMOOTH",
"48 -160 OFFCURVE",
"103 -197 OFFCURVE",
"253 -197 CURVE SMOOTH"
);
},
{
closed = 1;
nodes = (
"372 180 OFFCURVE",
"431 234 OFFCURVE",
"431 335 CURVE SMOOTH",
"431 436 OFFCURVE",
"372 490 OFFCURVE",
"261 490 CURVE SMOOTH",
"150 490 OFFCURVE",
"91 436 OFFCURVE",
"91 335 CURVE SMOOTH",
"91 234 OFFCURVE",
"150 180 OFFCURVE",
"261 180 CURVE SMOOTH"
);
},
{
closed = 1;
nodes = (
"158 196 OFFCURVE",
"107 242 OFFCURVE",
"107 335 CURVE SMOOTH",
"107 428 OFFCURVE",
"158 474 OFFCURVE",
"261 474 CURVE SMOOTH",
"364 474 OFFCURVE",
"415 428 OFFCURVE",
"415 335 CURVE SMOOTH",
"415 242 OFFCURVE",
"364 196 OFFCURVE",
"261 196 CURVE SMOOTH"
);
},
{
closed = 1;
nodes = (
"362 515 OFFCURVE",
"374 570 OFFCURVE",
"385 604 CURVE SMOOTH",
"386 607 OFFCURVE",
"385 608 OFFCURVE",
"382 608 CURVE SMOOTH",
"373 608 LINE SMOOTH",
"371 608 OFFCURVE",
"369 607 OFFCURVE",
"368 604 CURVE SMOOTH",
"357 571 OFFCURVE",
"346 515 OFFCURVE",
"339 470 CURVE",
"355 470 LINE"
);
}
);
width = 501;
},
{
anchors = (
{
name = bottom;
position = "{260, 0}";
},
{
name = top;
position = "{260, 500}";
}
);
guideLines = (
{
position = "{273, -197}";
}
);
layerId = "39FE7167-BE3C-4E72-AD2E-460E8E32521A";
paths = (
{
closed = 1;
nodes = (
"441 -197 OFFCURVE",
"520 -147 OFFCURVE",
"520 -34 CURVE SMOOTH",
"520 62 OFFCURVE",
"479 113 OFFCURVE",
"362 121 CURVE SMOOTH",
"211 131 LINE SMOOTH",
"192 132 OFFCURVE",
"187 137 OFFCURVE",
"187 146 CURVE SMOOTH",
"187 155 OFFCURVE",
"192 167 OFFCURVE",
"215 174 CURVE",
"110 207 LINE",
"57 180 OFFCURVE",
"39 140 OFFCURVE",
"39 95 CURVE SMOOTH",
"39 38 OFFCURVE",
"74 1 OFFCURVE",
"141 -4 CURVE SMOOTH",
"318 -17 LINE SMOOTH",
"336 -18 OFFCURVE",
"344 -26 OFFCURVE",
"344 -41 CURVE SMOOTH",
"344 -62 OFFCURVE",
"333 -70 OFFCURVE",
"261 -69 CURVE SMOOTH",
"204 -68 OFFCURVE",
"185 -60 OFFCURVE",
"185 -39 CURVE SMOOTH",
"185 -24 OFFCURVE",
"193 -10 OFFCURVE",
"215 1 CURVE",
"81 35 LINE",
"26 6 OFFCURVE",
"7 -35 OFFCURVE",
"7 -79 CURVE SMOOTH",
"7 -156 OFFCURVE",
"80 -197 OFFCURVE",
"252 -197 CURVE SMOOTH"
);
},
{
closed = 1;
nodes = (
"410 162 OFFCURVE",
"479 218 OFFCURVE",
"479 334 CURVE SMOOTH",
"479 455 OFFCURVE",
"411 512 OFFCURVE",
"265 512 CURVE SMOOTH",
"119 512 OFFCURVE",
"51 455 OFFCURVE",
"51 334 CURVE SMOOTH",
"51 218 OFFCURVE",
"120 162 OFFCURVE",
"265 162 CURVE SMOOTH"
);
},
{
closed = 1;
nodes = (
"230 286 OFFCURVE",
"219 302 OFFCURVE",
"219 337 CURVE SMOOTH",
"219 372 OFFCURVE",
"230 388 OFFCURVE",
"265 388 CURVE SMOOTH",
"300 388 OFFCURVE",
"311 372 OFFCURVE",
"311 337 CURVE SMOOTH",
"311 302 OFFCURVE",
"300 286 OFFCURVE",
"265 286 CURVE SMOOTH"
);
},
{
closed = 1;
nodes = (
"418 504 OFFCURVE",
"430 559 OFFCURVE",
"447 609 CURVE SMOOTH",
"451 620 OFFCURVE",
"447 626 OFFCURVE",
"434 626 CURVE SMOOTH",
"322 626 LINE SMOOTH",
"316 626 OFFCURVE",
"311 622 OFFCURVE",
"310 614 CURVE SMOOTH",
"306 582 OFFCURVE",
"301 536 OFFCURVE",
"303 496 CURVE",
"417 457 LINE"
);
}
);
width = 526;
}
);
leftKerningGroup = g;
rightKerningGroup = g;
unicode = 0067;
},
{
glyphname = h;
lastChange = "2019-08-22 23:01:14 +0000";
layers = (
{
anchors = (
{
name = bottom;
position = "{286, 0}";
},
{
name = center;
position = "{276, 244}";
},
{
name = top;
position = "{240, 655}";
}
);
layerId = "9E4B8FD8-F8AF-4AA7-8E0D-0C907FFB2BDD";
paths = (
{
closed = 1;
nodes = (
"471 0 LINE SMOOTH",
"477 0 OFFCURVE",
"481 4 OFFCURVE",
"481 10 CURVE SMOOTH",
"481 333 LINE SMOOTH",
"481 443 OFFCURVE",
"430 500 OFFCURVE",
"334 500 CURVE SMOOTH",
"266 500 OFFCURVE",
"211 471 OFFCURVE",
"146 402 CURVE",
"145 324 LINE",
"209 393 OFFCURVE",
"261 425 OFFCURVE",
"315 425 CURVE SMOOTH",
"369 425 OFFCURVE",
"396 394 OFFCURVE",
"396 329 CURVE SMOOTH",
"396 10 LINE SMOOTH",
"396 4 OFFCURVE",
"400 0 OFFCURVE",
"406 0 CURVE SMOOTH"
);
},
{
closed = 1;
nodes = (
"150 0 LINE SMOOTH",
"156 0 OFFCURVE",
"160 4 OFFCURVE",
"160 10 CURVE SMOOTH",
"160 673 LINE SMOOTH",
"160 679 OFFCURVE",
"156 683 OFFCURVE",
"150 683 CURVE SMOOTH",
"85 683 LINE SMOOTH",
"79 683 OFFCURVE",
"75 679 OFFCURVE",
"75 673 CURVE SMOOTH",
"75 10 LINE SMOOTH",
"75 4 OFFCURVE",
"79 0 OFFCURVE",
"85 0 CURVE SMOOTH"
);
}
);
width = 556;
},
{
anchors = (
{
name = bottom;
position = "{280, 0}";
},
{
name = center;
position = "{280, 239}";
},
{
name = top;
position = "{280, 478}";
}
);
layerId = "8E001827-4555-4882-9710-42A9586BB804";
paths = (
{
closed = 1;
nodes = (
"460 0 LINE SMOOTH",
"462 0 OFFCURVE",
"463 1 OFFCURVE",
"463 3 CURVE SMOOTH",
"463 327 LINE SMOOTH",
"463 441 OFFCURVE",
"417 490 OFFCURVE",
"329 490 CURVE SMOOTH",
"253 490 OFFCURVE",
"179 444 OFFCURVE",
"107 365 CURVE",
"107 344 LINE",
"177 422 OFFCURVE",
"250 474 OFFCURVE",
"327 474 CURVE SMOOTH",
"409 474 OFFCURVE",
"447 428 OFFCURVE",
"447 325 CURVE SMOOTH",
"447 3 LINE SMOOTH",
"447 1 OFFCURVE",
"448 0 OFFCURVE",
"450 0 CURVE SMOOTH"
);
},
{
closed = 1;
nodes = (
"108 0 LINE SMOOTH",
"110 0 OFFCURVE",
"111 1 OFFCURVE",
"111 3 CURVE SMOOTH",
"111 680 LINE SMOOTH",
"111 682 OFFCURVE",
"110 683 OFFCURVE",
"108 683 CURVE SMOOTH",
"98 683 LINE SMOOTH",
"96 683 OFFCURVE",
"95 682 OFFCURVE",
"95 680 CURVE SMOOTH",
"95 3 LINE SMOOTH",
"95 1 OFFCURVE",
"96 0 OFFCURVE",
"98 0 CURVE SMOOTH"
);
}
);
width = 558;
},
{
anchors = (
{
name = bottom;
position = "{282, 0}";
},
{
name = center;
position = "{282, 250}";
},
{
name = top;
position = "{282, 500}";
}
);
layerId = "39FE7167-BE3C-4E72-AD2E-460E8E32521A";
paths = (
{
closed = 1;
nodes = (
"506 0 LINE SMOOTH",
"515 0 OFFCURVE",
"521 6 OFFCURVE",
"521 15 CURVE SMOOTH",
"521 350 LINE SMOOTH",
"521 463 OFFCURVE",
"474 512 OFFCURVE",
"380 512 CURVE SMOOTH",
"288 512 OFFCURVE",
"230 456 OFFCURVE",
"188 413 CURVE",
"203 308 LINE",
"225 332 OFFCURVE",
"261 358 OFFCURVE",
"296 358 CURVE SMOOTH",
"329 358 OFFCURVE",
"341 340 OFFCURVE",
"341 304 CURVE SMOOTH",
"341 15 LINE SMOOTH",
"341 6 OFFCURVE",
"347 0 OFFCURVE",
"356 0 CURVE SMOOTH"
);
},
{
closed = 1;
nodes = (
"207 0 LINE SMOOTH",
"216 0 OFFCURVE",
"222 6 OFFCURVE",
"222 15 CURVE SMOOTH",
"222 668 LINE SMOOTH",
"222 677 OFFCURVE",
"216 683 OFFCURVE",
"207 683 CURVE SMOOTH",
"57 683 LINE SMOOTH",
"48 683 OFFCURVE",
"42 677 OFFCURVE",
"42 668 CURVE SMOOTH",
"42 15 LINE SMOOTH",
"42 6 OFFCURVE",
"48 0 OFFCURVE",
"57 0 CURVE SMOOTH"
);
}
);
width = 563;
}
);
leftKerningGroup = h;
rightKerningGroup = n;
rightMetricsKey = n;
unicode = 0068;
},
{
glyphname = hbar;
lastChange = "2022-10-25 01:21:35 +0000";
layers = (
{
components = (
{
name = h;
}
);
layerId = "9E4B8FD8-F8AF-4AA7-8E0D-0C907FFB2BDD";
paths = (
{
closed = 1;
nodes = (
"75 553 LINE",
"265 553 LINE SMOOTH",
"271 553 OFFCURVE",
"275 557 OFFCURVE",
"275 563 CURVE SMOOTH",
"275 613 LINE SMOOTH",
"275 619 OFFCURVE",
"271 623 OFFCURVE",
"265 623 CURVE SMOOTH",
"4 623 LINE SMOOTH",
"-2 623 OFFCURVE",
"-6 619 OFFCURVE",
"-6 613 CURVE SMOOTH",
"-6 563 LINE SMOOTH",
"-6 557 OFFCURVE",
"-2 553 OFFCURVE",
"4 553 CURVE SMOOTH"
);
}
);
width = 556;
},
{
components = (
{
name = h;
transform = "{1, 0, 0, 1, -1, 0}";
}
);
layerId = "8E001827-4555-4882-9710-42A9586BB804";
paths = (
{
closed = 1;
nodes = (
"95 584 LINE",
"259 584 LINE SMOOTH",
"261 584 OFFCURVE",
"262 585 OFFCURVE",
"262 587 CURVE SMOOTH",
"262 597 LINE SMOOTH",
"262 599 OFFCURVE",
"261 600 OFFCURVE",
"259 600 CURVE SMOOTH",
"-9 600 LINE SMOOTH",
"-11 600 OFFCURVE",
"-12 599 OFFCURVE",
"-12 597 CURVE SMOOTH",
"-12 587 LINE SMOOTH",
"-12 585 OFFCURVE",
"-11 584 OFFCURVE",
"-9 584 CURVE SMOOTH"
);
}
);
width = 557;
},
{
components = (
{
name = h;
transform = "{1, 0, 0, 1, 10, 0}";
}
);
layerId = "39FE7167-BE3C-4E72-AD2E-460E8E32521A";
rightMetricsKey = "=h";
paths = (
{
closed = 1;
nodes = (
"52 547 LINE",
"296 547 LINE SMOOTH",
"305 547 OFFCURVE",
"311 553 OFFCURVE",
"311 562 CURVE SMOOTH",
"311 636 LINE SMOOTH",
"311 645 OFFCURVE",
"305 651 OFFCURVE",
"296 651 CURVE SMOOTH",
"12 651 LINE SMOOTH",
"3 651 OFFCURVE",
"-3 645 OFFCURVE",
"-3 636 CURVE SMOOTH",
"-3 562 LINE SMOOTH",
"-3 553 OFFCURVE",
"3 547 OFFCURVE",
"12 547 CURVE SMOOTH"
);
}
);
width = 573;
}
);
leftKerningGroup = hbar;
leftMetricsKey = "=|dcroat";
rightKerningGroup = n;
rightMetricsKey = h;
unicode = 0127;
},
{
glyphname = idotless;
lastChange = "2022-10-25 01:21:35 +0000";
layers = (
{
anchors = (
{
name = bottom;
position = "{118, 0}";
},
{
name = ogonek;
position = "{165, 10}";
},
{
name = top;
position = "{118, 488}";
}
);
layerId = "9E4B8FD8-F8AF-4AA7-8E0D-0C907FFB2BDD";
paths = (
{
closed = 1;
nodes = (
"150 0 LINE SMOOTH",
"156 0 OFFCURVE",
"160 4 OFFCURVE",
"160 10 CURVE SMOOTH",
"160 478 LINE SMOOTH",
"160 484 OFFCURVE",
"156 488 OFFCURVE",
"150 488 CURVE SMOOTH",
"85 488 LINE SMOOTH",
"79 488 OFFCURVE",
"75 484 OFFCURVE",
"75 478 CURVE SMOOTH",
"75 10 LINE SMOOTH",
"75 4 OFFCURVE",
"79 0 OFFCURVE",
"85 0 CURVE SMOOTH"
);
}
);
width = 235;
},
{
anchors = (
{
name = bottom;
position = "{103, 0}";
},
{
name = ogonek;
position = "{124, 10}";
},
{
name = top;
position = "{103, 478}";
}
);
layerId = "8E001827-4555-4882-9710-42A9586BB804";
paths = (
{
closed = 1;
nodes = (
"108 0 LINE SMOOTH",
"110 0 OFFCURVE",
"111 1 OFFCURVE",
"111 3 CURVE SMOOTH",
"111 475 LINE SMOOTH",
"111 477 OFFCURVE",
"110 478 OFFCURVE",
"108 478 CURVE SMOOTH",
"98 478 LINE SMOOTH",
"96 478 OFFCURVE",
"95 477 OFFCURVE",
"95 475 CURVE SMOOTH",
"95 3 LINE SMOOTH",
"95 1 OFFCURVE",
"96 0 OFFCURVE",
"98 0 CURVE SMOOTH"
);
}
);
width = 206;
},
{
anchors = (
{
name = bottom;
position = "{132, 0}";
},
{
name = ogonek;
position = "{225, 10}";
},
{
name = top;
position = "{132, 500}";
}
);
layerId = "39FE7167-BE3C-4E72-AD2E-460E8E32521A";
paths = (
{
closed = 1;
nodes = (
"207 0 LINE SMOOTH",
"216 0 OFFCURVE",
"222 6 OFFCURVE",
"222 15 CURVE SMOOTH",
"222 485 LINE SMOOTH",
"222 494 OFFCURVE",
"216 500 OFFCURVE",
"207 500 CURVE SMOOTH",
"57 500 LINE SMOOTH",
"48 500 OFFCURVE",
"42 494 OFFCURVE",
"42 485 CURVE SMOOTH",
"42 15 LINE SMOOTH",
"42 6 OFFCURVE",
"48 0 OFFCURVE",
"57 0 CURVE SMOOTH"
);
}
);
width = 264;
}
);
leftKerningGroup = n;
leftMetricsKey = u;
rightKerningGroup = u;
rightMetricsKey = n;
unicode = 0131;
},
{
glyphname = jdotless;
lastChange = "2019-08-22 23:01:14 +0000";
layers = (
{
anchors = (
{
name = bottom;
position = "{118, 0}";
},
{
name = top;
position = "{118, 488}";
}
);
guideLines = (
{
angle = 90;
position = "{-57, -152}";
},
{
position = "{22, -123}";
}
);
layerId = "9E4B8FD8-F8AF-4AA7-8E0D-0C907FFB2BDD";
paths = (
{
closed = 1;
nodes = (
"124 -141 OFFCURVE",
"160 -60 OFFCURVE",
"160 59 CURVE SMOOTH",
"160 478 LINE SMOOTH",
"160 484 OFFCURVE",
"156 488 OFFCURVE",
"150 488 CURVE SMOOTH",
"85 488 LINE SMOOTH",
"79 488 OFFCURVE",
"75 484 OFFCURVE",
"75 478 CURVE SMOOTH",
"75 64 LINE SMOOTH",
"75 -28 OFFCURVE",
"44 -88 OFFCURVE",
"-8 -124 CURVE SMOOTH",
"-14 -128 OFFCURVE",
"-15 -132 OFFCURVE",
"-11 -138 CURVE SMOOTH",
"28 -187 LINE SMOOTH",
"32 -192 OFFCURVE",
"37 -193 OFFCURVE",
"42 -190 CURVE SMOOTH"
);
}
);
width = 236;
},
{
anchors = (
{
name = bottom;
position = "{103, 0}";
},
{
name = top;
position = "{103, 478}";
}
);
layerId = "8E001827-4555-4882-9710-42A9586BB804";
paths = (
{
closed = 1;
nodes = (
"83 -117 OFFCURVE",
"111 -77 OFFCURVE",
"111 25 CURVE SMOOTH",
"111 475 LINE SMOOTH",
"111 477 OFFCURVE",
"110 478 OFFCURVE",
"108 478 CURVE SMOOTH",
"98 478 LINE SMOOTH",
"96 478 OFFCURVE",
"95 477 OFFCURVE",
"95 475 CURVE SMOOTH",
"95 25 LINE SMOOTH",
"95 -67 OFFCURVE",
"69 -106 OFFCURVE",
"7 -168 CURVE SMOOTH",
"6 -169 OFFCURVE",
"6 -171 OFFCURVE",
"7 -172 CURVE SMOOTH",
"14 -182 LINE SMOOTH",
"15 -183 OFFCURVE",
"17 -183 OFFCURVE",
"18 -182 CURVE SMOOTH"
);
}
);
width = 206;
},
{
anchors = (
{
name = bottom;
position = "{135, 0}";
},
{
name = top;
position = "{135, 500}";
}
);
layerId = "39FE7167-BE3C-4E72-AD2E-460E8E32521A";
paths = (
{
closed = 1;
nodes = (
"189 -127 OFFCURVE",
"222 -45 OFFCURVE",
"222 101 CURVE SMOOTH",
"222 485 LINE SMOOTH",
"222 493 OFFCURVE",
"215 500 OFFCURVE",
"207 500 CURVE SMOOTH",
"57 500 LINE SMOOTH",
"49 500 OFFCURVE",
"42 493 OFFCURVE",
"42 485 CURVE SMOOTH",
"42 99 LINE SMOOTH",
"42 16 OFFCURVE",
"22 -33 OFFCURVE",
"-22 -67 CURVE SMOOTH",
"-30 -73 OFFCURVE",
"-30 -84 OFFCURVE",
"-24 -90 CURVE SMOOTH",
"65 -189 LINE SMOOTH",
"69 -194 OFFCURVE",
"76 -195 OFFCURVE",
"81 -192 CURVE SMOOTH"
);
}
);
width = 264;
}
);
leftKerningGroup = j;
rightKerningGroup = j;
unicode = 0237;
},
{
glyphname = k;
lastChange = "2019-08-22 23:01:14 +0000";
layers = (
{
anchors = (
{
name = bottom;
position = "{255, 0}";
},
{
name = top;
position = "{246, 488}";
}
);
layerId = "9E4B8FD8-F8AF-4AA7-8E0D-0C907FFB2BDD";
paths = (
{
closed = 1;
nodes = (
"150 0 LINE SMOOTH",
"156 0 OFFCURVE",
"160 4 OFFCURVE",
"160 10 CURVE SMOOTH",
"160 172 LINE",
"230 243 LINE",
"376 7 LINE",
"379 3 OFFCURVE",
"383 0 OFFCURVE",
"388 0 CURVE SMOOTH",
"465 0 LINE SMOOTH",
"473 0 OFFCURVE",
"476 5 OFFCURVE",
"472 12 CURVE SMOOTH",
"291 306 LINE",
"457 476 LINE SMOOTH",
"463 482 OFFCURVE",
"461 488 OFFCURVE",
"452 488 CURVE SMOOTH",
"364 488 LINE SMOOTH",
"359 488 OFFCURVE",
"355 487 OFFCURVE",
"352 483 CURVE SMOOTH",
"234 356 LINE SMOOTH",
"208 329 OFFCURVE",
"184 303 OFFCURVE",
"160 276 CURVE",
"159 276 LINE",
"160 322 OFFCURVE",
"160 368 OFFCURVE",
"160 414 CURVE SMOOTH",
"160 673 LINE SMOOTH",
"160 679 OFFCURVE",
"156 683 OFFCURVE",
"150 683 CURVE SMOOTH",
"85 683 LINE SMOOTH",
"79 683 OFFCURVE",
"75 679 OFFCURVE",
"75 673 CURVE SMOOTH",
"75 10 LINE SMOOTH",
"75 4 OFFCURVE",
"79 0 OFFCURVE",
"85 0 CURVE SMOOTH"
);
}
);
width = 491;
},
{
anchors = (
{
name = bottom;
position = "{246, 0}";
},
{
name = top;
position = "{241, 478}";
}
);
layerId = "8E001827-4555-4882-9710-42A9586BB804";
paths = (
{
closed = 1;
nodes = (
"108 0 LINE SMOOTH",
"110 0 OFFCURVE",
"111 1 OFFCURVE",
"111 3 CURVE SMOOTH",
"111 166 LINE",
"224 279 LINE",
"428 2 LINE",
"429 0 OFFCURVE",
"430 0 OFFCURVE",
"431 0 CURVE SMOOTH",
"444 0 LINE SMOOTH",
"446 0 OFFCURVE",
"447 2 OFFCURVE",
"446 4 CURVE",
"235 291 LINE",
"418 474 LINE SMOOTH",
"420 476 OFFCURVE",
"419 478 OFFCURVE",
"417 478 CURVE SMOOTH",
"402 478 LINE SMOOTH",
"401 478 OFFCURVE",
"399 477 OFFCURVE",
"398 476 CURVE SMOOTH",
"199 275 LINE SMOOTH",
"170 246 OFFCURVE",
"141 217 OFFCURVE",
"112 188 CURVE",
"111 188 LINE",
"111 237 OFFCURVE",
"111 285 OFFCURVE",
"111 334 CURVE SMOOTH",
"111 680 LINE SMOOTH",
"111 682 OFFCURVE",
"110 683 OFFCURVE",
"108 683 CURVE SMOOTH",
"98 683 LINE SMOOTH",
"96 683 OFFCURVE",
"95 682 OFFCURVE",
"95 680 CURVE SMOOTH",
"95 3 LINE SMOOTH",
"95 1 OFFCURVE",
"96 0 OFFCURVE",
"98 0 CURVE SMOOTH"
);
}
);
width = 471;
},
{
anchors = (
{
name = bottom;
position = "{282, 0}";
},
{
name = top;
position = "{281, 500}";
}
);
guideLines = (
{
angle = 90;
position = "{548, 392}";
}
);
layerId = "39FE7167-BE3C-4E72-AD2E-460E8E32521A";
paths = (
{
closed = 1;
nodes = (
"207 0 LINE SMOOTH",
"216 0 OFFCURVE",
"222 6 OFFCURVE",
"222 15 CURVE SMOOTH",
"222 113 LINE",
"256 155 LINE",
"352 9 LINE SMOOTH",
"356 3 OFFCURVE",
"362 0 OFFCURVE",
"370 0 CURVE SMOOTH",
"547 0 LINE SMOOTH",
"559 0 OFFCURVE",
"563 8 OFFCURVE",
"556 18 CURVE SMOOTH",
"378 274 LINE",
"543 482 LINE SMOOTH",
"551 492 OFFCURVE",
"547 500 OFFCURVE",
"534 500 CURVE SMOOTH",
"354 500 LINE SMOOTH",
"346 500 OFFCURVE",
"341 497 OFFCURVE",
"337 491 CURVE SMOOTH",
"283 413 LINE SMOOTH",
"263 384 OFFCURVE",
"240 347 OFFCURVE",
"221 312 CURVE",
"217 312 LINE",
"220 358 OFFCURVE",
"222 405 OFFCURVE",
"222 450 CURVE SMOOTH",
"222 668 LINE SMOOTH",
"222 677 OFFCURVE",
"216 683 OFFCURVE",
"207 683 CURVE SMOOTH",
"57 683 LINE SMOOTH",
"48 683 OFFCURVE",
"42 677 OFFCURVE",
"42 668 CURVE SMOOTH",
"42 15 LINE SMOOTH",
"42 6 OFFCURVE",
"48 0 OFFCURVE",
"57 0 CURVE SMOOTH"
);
}
);
width = 563;
}
);
leftKerningGroup = h;
leftMetricsKey = h;
rightKerningGroup = k;
unicode = 006B;
},
{
glyphname = kgreenlandic;
lastChange = "2019-08-22 23:01:14 +0000";
layers = (
{
anchors = (
{
name = bottom;
position = "{246, 0}";
},
{
name = top;
position = "{244, 488}";
}
);
layerId = "9E4B8FD8-F8AF-4AA7-8E0D-0C907FFB2BDD";
paths = (
{
closed = 1;
nodes = (
"150 0 LINE SMOOTH",
"156 0 OFFCURVE",
"160 4 OFFCURVE",
"160 10 CURVE SMOOTH",
"160 172 LINE",
"230 243 LINE",
"376 7 LINE",
"379 3 OFFCURVE",
"383 0 OFFCURVE",
"388 0 CURVE SMOOTH",
"465 0 LINE SMOOTH",
"473 0 OFFCURVE",
"476 5 OFFCURVE",
"472 12 CURVE SMOOTH",
"291 306 LINE",
"457 476 LINE SMOOTH",
"463 482 OFFCURVE",
"461 488 OFFCURVE",
"452 488 CURVE SMOOTH",
"364 488 LINE SMOOTH",
"359 488 OFFCURVE",
"355 487 OFFCURVE",
"352 483 CURVE",
"234 356 LINE SMOOTH",
"208 329 OFFCURVE",
"184 303 OFFCURVE",
"160 276 CURVE",
"159 276 LINE",
"160 322 OFFCURVE",
"160 368 OFFCURVE",
"160 414 CURVE SMOOTH",
"160 478 LINE SMOOTH",
"160 484 OFFCURVE",
"156 488 OFFCURVE",
"150 488 CURVE SMOOTH",
"85 488 LINE SMOOTH",
"79 488 OFFCURVE",
"75 484 OFFCURVE",
"75 478 CURVE SMOOTH",
"75 10 LINE SMOOTH",
"75 4 OFFCURVE",
"79 0 OFFCURVE",
"85 0 CURVE SMOOTH"
);
}
);
width = 491;
},
{
anchors = (
{
name = bottom;
position = "{237, 0}";
},
{
name = top;
position = "{237, 478}";
}
);
layerId = "8E001827-4555-4882-9710-42A9586BB804";
paths = (
{
closed = 1;
nodes = (
"108 0 LINE SMOOTH",
"110 0 OFFCURVE",
"111 1 OFFCURVE",
"111 3 CURVE SMOOTH",
"111 166 LINE",
"224 279 LINE",
"428 2 LINE",
"429 0 OFFCURVE",
"430 0 OFFCURVE",
"431 0 CURVE SMOOTH",
"444 0 LINE SMOOTH",
"446 0 OFFCURVE",
"447 2 OFFCURVE",
"446 4 CURVE",
"235 291 LINE",
"418 474 LINE SMOOTH",
"420 476 OFFCURVE",
"419 478 OFFCURVE",
"417 478 CURVE SMOOTH",
"402 478 LINE SMOOTH",
"401 478 OFFCURVE",
"399 477 OFFCURVE",
"398 476 CURVE SMOOTH",
"199 275 LINE SMOOTH",
"170 246 OFFCURVE",
"141 217 OFFCURVE",
"112 188 CURVE",
"111 188 LINE",
"111 237 OFFCURVE",
"111 285 OFFCURVE",
"111 334 CURVE SMOOTH",
"111 475 LINE SMOOTH",
"111 477 OFFCURVE",
"110 478 OFFCURVE",
"108 478 CURVE SMOOTH",
"98 478 LINE SMOOTH",
"96 478 OFFCURVE",
"95 477 OFFCURVE",
"95 475 CURVE SMOOTH",
"95 3 LINE SMOOTH",
"95 1 OFFCURVE",
"96 0 OFFCURVE",
"98 0 CURVE SMOOTH"
);
}
);
width = 471;
},
{
anchors = (
{
name = bottom;
position = "{282, 0}";
},
{
name = top;
position = "{282, 500}";
}
);
layerId = "39FE7167-BE3C-4E72-AD2E-460E8E32521A";
paths = (
{
closed = 1;
nodes = (
"207 0 LINE SMOOTH",
"216 0 OFFCURVE",
"222 6 OFFCURVE",
"222 15 CURVE SMOOTH",
"222 113 LINE",
"256 155 LINE",
"352 9 LINE SMOOTH",
"356 3 OFFCURVE",
"362 0 OFFCURVE",
"370 0 CURVE SMOOTH",
"547 0 LINE SMOOTH",
"559 0 OFFCURVE",
"563 8 OFFCURVE",
"556 18 CURVE SMOOTH",
"378 274 LINE",
"543 482 LINE SMOOTH",
"551 492 OFFCURVE",
"547 500 OFFCURVE",
"534 500 CURVE SMOOTH",
"354 500 LINE SMOOTH",
"346 500 OFFCURVE",
"341 497 OFFCURVE",
"337 491 CURVE SMOOTH",
"283 413 LINE SMOOTH",
"263 384 OFFCURVE",
"240 347 OFFCURVE",
"221 312 CURVE",
"217 312 LINE",
"220 358 OFFCURVE",
"222 405 OFFCURVE",
"222 450 CURVE SMOOTH",
"222 485 LINE SMOOTH",
"222 494 OFFCURVE",
"216 500 OFFCURVE",
"207 500 CURVE SMOOTH",
"57 500 LINE SMOOTH",
"48 500 OFFCURVE",
"42 494 OFFCURVE",
"42 485 CURVE SMOOTH",
"42 15 LINE SMOOTH",
"42 6 OFFCURVE",
"48 0 OFFCURVE",
"57 0 CURVE SMOOTH"
);
}
);
width = 563;
}
);
leftKerningGroup = u;
leftMetricsKey = u;
rightKerningGroup = k;
rightMetricsKey = k;
unicode = 0138;
},
{
glyphname = l;
lastChange = "2019-08-22 23:01:14 +0000";
layers = (
{
anchors = (
{
name = bottom;
position = "{118, 0}";
},
{
name = center;
position = "{118, 244}";
},
{
name = top;
position = "{118, 683}";
},
{
name = topright;
position = "{215, 488}";
}
);
layerId = "9E4B8FD8-F8AF-4AA7-8E0D-0C907FFB2BDD";
paths = (
{
closed = 1;
nodes = (
"150 0 LINE SMOOTH",
"156 0 OFFCURVE",
"160 4 OFFCURVE",
"160 10 CURVE SMOOTH",
"160 673 LINE SMOOTH",
"160 679 OFFCURVE",
"156 683 OFFCURVE",
"150 683 CURVE SMOOTH",
"85 683 LINE SMOOTH",
"79 683 OFFCURVE",
"75 679 OFFCURVE",
"75 673 CURVE SMOOTH",
"75 10 LINE SMOOTH",
"75 4 OFFCURVE",
"79 0 OFFCURVE",
"85 0 CURVE SMOOTH"
);
}
);
width = 235;
},
{
anchors = (
{
name = bottom;
position = "{103, 0}";
},
{
name = center;
position = "{103, 239}";
},
{
name = top;
position = "{103, 683}";
},
{
name = topright;
position = "{186, 478}";
}
);
layerId = "8E001827-4555-4882-9710-42A9586BB804";
paths = (
{
closed = 1;
nodes = (
"108 0 LINE SMOOTH",
"110 0 OFFCURVE",
"111 1 OFFCURVE",
"111 3 CURVE SMOOTH",
"111 680 LINE SMOOTH",
"111 682 OFFCURVE",
"110 683 OFFCURVE",
"108 683 CURVE SMOOTH",
"98 683 LINE SMOOTH",
"96 683 OFFCURVE",
"95 682 OFFCURVE",
"95 680 CURVE SMOOTH",
"95 3 LINE SMOOTH",
"95 1 OFFCURVE",
"96 0 OFFCURVE",
"98 0 CURVE SMOOTH"
);
}
);
width = 206;
},
{
anchors = (
{
name = bottom;
position = "{134, 0}";
},
{
name = center;
position = "{132, 250}";
},
{
name = top;
position = "{131, 683}";
},
{
name = topright;
position = "{244, 500}";
}
);
layerId = "39FE7167-BE3C-4E72-AD2E-460E8E32521A";
paths = (
{
closed = 1;
nodes = (
"207 0 LINE SMOOTH",
"216 0 OFFCURVE",
"222 6 OFFCURVE",
"222 15 CURVE SMOOTH",
"222 668 LINE SMOOTH",
"222 677 OFFCURVE",
"216 683 OFFCURVE",
"207 683 CURVE SMOOTH",
"57 683 LINE SMOOTH",
"48 683 OFFCURVE",
"42 677 OFFCURVE",
"42 668 CURVE SMOOTH",
"42 15 LINE SMOOTH",
"42 6 OFFCURVE",
"48 0 OFFCURVE",
"57 0 CURVE SMOOTH"
);
}
);
width = 264;
}
);
leftKerningGroup = h;
leftMetricsKey = h;
rightKerningGroup = l;
rightMetricsKey = "=|h";
unicode = 006C;
},
{
glyphname = lslash;
lastChange = "2019-08-22 23:01:14 +0000";
layers = (
{
components = (
{
name = l;
}
);
layerId = "9E4B8FD8-F8AF-4AA7-8E0D-0C907FFB2BDD";
paths = (
{
closed = 1;
nodes = (
"75 368 LINE",
"234 443 LINE SMOOTH",
"239 445 OFFCURVE",
"242 449 OFFCURVE",
"242 454 CURVE SMOOTH",
"242 511 LINE SMOOTH",
"242 518 OFFCURVE",
"237 522 OFFCURVE",
"230 519 CURVE SMOOTH",
"1 411 LINE SMOOTH",
"-4 409 OFFCURVE",
"-7 405 OFFCURVE",
"-7 400 CURVE SMOOTH",
"-7 343 LINE SMOOTH",
"-7 336 OFFCURVE",
"-2 332 OFFCURVE",
"5 335 CURVE SMOOTH"
);
}
);
width = 235;
},
{
components = (
{
name = l;
transform = "{1, 0, 0, 1, 1, 0}";
}
);
layerId = "8E001827-4555-4882-9710-42A9586BB804";
paths = (
{
closed = 1;
nodes = (
"96 412 LINE",
"200 458 LINE SMOOTH",
"202 459 OFFCURVE",
"202 460 OFFCURVE",
"202 462 CURVE SMOOTH",
"202 474 LINE SMOOTH",
"202 477 OFFCURVE",
"200 476 OFFCURVE",
"198 475 CURVE SMOOTH",
"8 390 LINE SMOOTH",
"6 389 OFFCURVE",
"6 388 OFFCURVE",
"6 386 CURVE SMOOTH",
"6 374 LINE SMOOTH",
"6 371 OFFCURVE",
"8 372 OFFCURVE",
"10 373 CURVE SMOOTH"
);
}
);
width = 208;
},
{
components = (
{
name = l;
transform = "{1, 0, 0, 1, 6, 0}";
}
);
layerId = "39FE7167-BE3C-4E72-AD2E-460E8E32521A";
paths = (
{
closed = 1;
nodes = (
"48 318 LINE",
"268 384 LINE SMOOTH",
"276 386 OFFCURVE",
"281 393 OFFCURVE",
"281 401 CURVE SMOOTH",
"281 489 LINE SMOOTH",
"281 499 OFFCURVE",
"274 505 OFFCURVE",
"264 502 CURVE SMOOTH",
"5 425 LINE SMOOTH",
"-3 423 OFFCURVE",
"-7 416 OFFCURVE",
"-7 408 CURVE SMOOTH",
"-7 320 LINE SMOOTH",
"-7 310 OFFCURVE",
"0 304 OFFCURVE",
"10 307 CURVE SMOOTH"
);
}
);
width = 274;
}
);
leftKerningGroup = lslash;
rightKerningGroup = lslash;
unicode = 0142;
},
{
glyphname = m;
lastChange = "2022-10-25 01:21:35 +0000";
layers = (
{
anchors = (
{
name = bottom;
position = "{423, 0}";
},
{
name = top;
position = "{423, 488}";
}
);
layerId = "9E4B8FD8-F8AF-4AA7-8E0D-0C907FFB2BDD";
paths = (
{
closed = 1;
nodes = (
"150 0 LINE SMOOTH",
"156 0 OFFCURVE",
"160 4 OFFCURVE",
"160 10 CURVE SMOOTH",
"160 340 LINE",
"221 399 OFFCURVE",
"264 425 OFFCURVE",
"308 425 CURVE SMOOTH",
"357 425 OFFCURVE",
"380 393 OFFCURVE",
"380 329 CURVE SMOOTH",
"380 10 LINE SMOOTH",
"380 4 OFFCURVE",
"384 0 OFFCURVE",
"390 0 CURVE SMOOTH",
"455 0 LINE SMOOTH",
"461 0 OFFCURVE",
"465 4 OFFCURVE",
"465 10 CURVE SMOOTH",
"465 340 LINE",
"526 399 OFFCURVE",
"569 425 OFFCURVE",
"613 425 CURVE SMOOTH",
"662 425 OFFCURVE",
"685 393 OFFCURVE",
"685 329 CURVE SMOOTH",
"685 10 LINE SMOOTH",
"685 4 OFFCURVE",
"689 0 OFFCURVE",
"695 0 CURVE SMOOTH",
"760 0 LINE SMOOTH",
"766 0 OFFCURVE",
"770 4 OFFCURVE",
"770 10 CURVE SMOOTH",
"770 334 LINE SMOOTH",
"770 443 OFFCURVE",
"723 500 OFFCURVE",
"634 500 CURVE SMOOTH",
"570 500 OFFCURVE",
"520 472 OFFCURVE",
"456 407 CURVE",
"439 468 OFFCURVE",
"397 500 OFFCURVE",
"329 500 CURVE SMOOTH",
"267 500 OFFCURVE",
"218 474 OFFCURVE",
"158 414 CURVE",
"156 438 OFFCURVE",
"152 461 OFFCURVE",
"149 481 CURVE SMOOTH",
"148 487 OFFCURVE",
"146 488 OFFCURVE",
"139 488 CURVE SMOOTH",
"79 488 LINE SMOOTH",
"71 488 OFFCURVE",
"67 483 OFFCURVE",
"68 476 CURVE SMOOTH",
"73 444 OFFCURVE",
"75 402 OFFCURVE",
"75 366 CURVE SMOOTH",
"75 10 LINE SMOOTH",
"75 4 OFFCURVE",
"79 0 OFFCURVE",
"85 0 CURVE SMOOTH"
);
}
);
width = 845;
},
{
anchors = (
{
name = bottom;
position = "{422, 0}";
},
{
name = top;
position = "{422, 478}";
}
);
layerId = "8E001827-4555-4882-9710-42A9586BB804";
paths = (
{
closed = 1;
nodes = (
"108 0 LINE SMOOTH",
"110 0 OFFCURVE",
"111 1 OFFCURVE",
"111 3 CURVE SMOOTH",
"111 348 LINE",
"185 428 OFFCURVE",
"249 474 OFFCURVE",
"308 474 CURVE SMOOTH",
"380 474 OFFCURVE",
"414 424 OFFCURVE",
"414 336 CURVE SMOOTH",
"414 3 LINE SMOOTH",
"414 1 OFFCURVE",
"415 0 OFFCURVE",
"417 0 CURVE SMOOTH",
"427 0 LINE SMOOTH",
"429 0 OFFCURVE",
"430 1 OFFCURVE",
"430 3 CURVE SMOOTH",
"430 348 LINE",
"504 428 OFFCURVE",
"568 474 OFFCURVE",
"627 474 CURVE SMOOTH",
"699 474 OFFCURVE",
"733 424 OFFCURVE",
"733 336 CURVE SMOOTH",
"733 3 LINE SMOOTH",
"733 1 OFFCURVE",
"734 0 OFFCURVE",
"736 0 CURVE SMOOTH",
"746 0 LINE SMOOTH",
"748 0 OFFCURVE",
"749 1 OFFCURVE",
"749 3 CURVE SMOOTH",
"749 338 LINE SMOOTH",
"749 434 OFFCURVE",
"709 490 OFFCURVE",
"629 490 CURVE SMOOTH",
"565 490 OFFCURVE",
"502 447 OFFCURVE",
"428 369 CURVE",
"421 446 OFFCURVE",
"381 490 OFFCURVE",
"310 490 CURVE SMOOTH",
"247 490 OFFCURVE",
"183 447 OFFCURVE",
"111 370 CURVE",
"111 409 OFFCURVE",
"109 441 OFFCURVE",
"106 475 CURVE",
"106 477 OFFCURVE",
"105 478 OFFCURVE",
"103 478 CURVE SMOOTH",
"93 478 LINE SMOOTH",
"91 478 OFFCURVE",
"90 477 OFFCURVE",
"90 475 CURVE",
"93 440 OFFCURVE",
"95 405 OFFCURVE",
"95 368 CURVE SMOOTH",
"95 3 LINE SMOOTH",
"95 1 OFFCURVE",
"96 0 OFFCURVE",
"98 0 CURVE SMOOTH"
);
}
);
width = 844;
},
{
anchors = (
{
name = bottom;
position = "{415, 0}";
},
{
name = top;
position = "{415, 500}";
}
);
layerId = "39FE7167-BE3C-4E72-AD2E-460E8E32521A";
paths = (
{
closed = 1;
nodes = (
"207 0 LINE SMOOTH",
"216 0 OFFCURVE",
"222 6 OFFCURVE",
"222 15 CURVE SMOOTH",
"222 330 LINE",
"238 344 OFFCURVE",
"257 358 OFFCURVE",
"282 358 CURVE SMOOTH",
"314 358 OFFCURVE",
"325 340 OFFCURVE",
"325 304 CURVE SMOOTH",
"325 15 LINE SMOOTH",
"325 6 OFFCURVE",
"331 0 OFFCURVE",
"340 0 CURVE SMOOTH",
"490 0 LINE SMOOTH",
"499 0 OFFCURVE",
"505 6 OFFCURVE",
"505 15 CURVE SMOOTH",
"505 330 LINE",
"521 344 OFFCURVE",
"540 358 OFFCURVE",
"565 358 CURVE SMOOTH",
"597 358 OFFCURVE",
"608 340 OFFCURVE",
"608 304 CURVE SMOOTH",
"608 15 LINE SMOOTH",
"608 6 OFFCURVE",
"614 0 OFFCURVE",
"623 0 CURVE SMOOTH",
"773 0 LINE SMOOTH",
"782 0 OFFCURVE",
"788 6 OFFCURVE",
"788 15 CURVE SMOOTH",
"788 350 LINE SMOOTH",
"788 463 OFFCURVE",
"741 512 OFFCURVE",
"647 512 CURVE SMOOTH",
"575 512 OFFCURVE",
"522 471 OFFCURVE",
"486 435 CURVE",
"468 487 OFFCURVE",
"437 512 OFFCURVE",
"364 512 CURVE SMOOTH",
"288 512 OFFCURVE",
"241 468 OFFCURVE",
"204 429 CURVE",
"202 450 OFFCURVE",
"199 472 OFFCURVE",
"195 488 CURVE SMOOTH",
"193 497 OFFCURVE",
"188 500 OFFCURVE",
"180 500 CURVE SMOOTH",
"51 500 LINE SMOOTH",
"41 500 OFFCURVE",
"36 494 OFFCURVE",
"37 484 CURVE SMOOTH",
"40 449 OFFCURVE",
"42 413 OFFCURVE",
"42 369 CURVE SMOOTH",
"42 15 LINE SMOOTH",
"42 6 OFFCURVE",
"48 0 OFFCURVE",
"57 0 CURVE SMOOTH"
);
}
);
width = 830;
}
);
leftKerningGroup = n;
leftMetricsKey = n;
rightKerningGroup = n;
rightMetricsKey = n;
unicode = 006D;
},
{
glyphname = n;
lastChange = "2019-08-22 23:01:14 +0000";
layers = (
{
anchors = (
{
name = apo;
position = "{7, 488}";
},
{
name = bottom;
position = "{286, 0}";
},
{
name = top;
position = "{282, 488}";
}
);
layerId = "9E4B8FD8-F8AF-4AA7-8E0D-0C907FFB2BDD";
paths = (
{
closed = 1;
nodes = (
"471 0 LINE SMOOTH",
"477 0 OFFCURVE",
"481 4 OFFCURVE",
"481 10 CURVE SMOOTH",
"481 333 LINE SMOOTH",
"481 443 OFFCURVE",
"429 500 OFFCURVE",
"333 500 CURVE SMOOTH",
"264 500 OFFCURVE",
"211 471 OFFCURVE",
"143 400 CURVE",
"142 323 LINE",
"218 398 OFFCURVE",
"262 425 OFFCURVE",
"314 425 CURVE SMOOTH",
"369 425 OFFCURVE",
"396 395 OFFCURVE",
"396 329 CURVE SMOOTH",
"396 10 LINE SMOOTH",
"396 4 OFFCURVE",
"400 0 OFFCURVE",
"406 0 CURVE SMOOTH"
);
},
{
closed = 1;
nodes = (
"150 0 LINE SMOOTH",
"156 0 OFFCURVE",
"160 4 OFFCURVE",
"160 10 CURVE SMOOTH",
"160 360 LINE",
"160 386 LINE",
"159 412 OFFCURVE",
"154 461 OFFCURVE",
"150 478 CURVE SMOOTH",
"148 486 OFFCURVE",
"146 488 OFFCURVE",
"139 488 CURVE SMOOTH",
"78 488 LINE SMOOTH",
"70 488 OFFCURVE",
"67 483 OFFCURVE",
"68 475 CURVE SMOOTH",
"71 451 OFFCURVE",
"75 400 OFFCURVE",
"75 366 CURVE SMOOTH",
"75 10 LINE SMOOTH",
"75 4 OFFCURVE",
"79 0 OFFCURVE",
"85 0 CURVE SMOOTH"
);
}
);
width = 556;
},
{
anchors = (
{
name = apo;
position = "{9, 488}";
},
{
name = bottom;
position = "{280, 0}";
},
{
name = top;
position = "{280, 478}";
}
);
layerId = "8E001827-4555-4882-9710-42A9586BB804";
paths = (
{
closed = 1;
nodes = (
"460 0 LINE SMOOTH",
"462 0 OFFCURVE",
"463 1 OFFCURVE",
"463 3 CURVE SMOOTH",
"463 327 LINE SMOOTH",
"463 441 OFFCURVE",
"417 490 OFFCURVE",
"329 490 CURVE SMOOTH",
"253 490 OFFCURVE",
"179 444 OFFCURVE",
"107 365 CURVE",
"107 344 LINE",
"177 422 OFFCURVE",
"250 474 OFFCURVE",
"327 474 CURVE SMOOTH",
"409 474 OFFCURVE",
"447 426 OFFCURVE",
"447 325 CURVE SMOOTH",
"447 3 LINE SMOOTH",
"447 1 OFFCURVE",
"448 0 OFFCURVE",
"450 0 CURVE SMOOTH"
);
},
{
closed = 1;
nodes = (
"108 0 LINE SMOOTH",
"110 0 OFFCURVE",
"111 1 OFFCURVE",
"111 3 CURVE SMOOTH",
"111 359 LINE",
"111 368 LINE",
"111 405 OFFCURVE",
"109 441 OFFCURVE",
"106 475 CURVE SMOOTH",
"106 477 OFFCURVE",
"105 478 OFFCURVE",
"103 478 CURVE SMOOTH",
"93 478 LINE SMOOTH",
"91 478 OFFCURVE",
"90 477 OFFCURVE",
"90 475 CURVE SMOOTH",
"93 440 OFFCURVE",
"95 403 OFFCURVE",
"95 368 CURVE SMOOTH",
"95 3 LINE SMOOTH",
"95 1 OFFCURVE",
"96 0 OFFCURVE",
"98 0 CURVE SMOOTH"
);
}
);
width = 558;
},
{
anchors = (
{
name = apo;
position = "{-37, 500}";
},
{
name = bottom;
position = "{288, 0}";
},
{
name = top;
position = "{279, 500}";
}
);
layerId = "39FE7167-BE3C-4E72-AD2E-460E8E32521A";
paths = (
{
closed = 1;
nodes = (
"506 0 LINE SMOOTH",
"515 0 OFFCURVE",
"521 6 OFFCURVE",
"521 15 CURVE SMOOTH",
"521 350 LINE SMOOTH",
"521 463 OFFCURVE",
"474 512 OFFCURVE",
"380 512 CURVE SMOOTH",
"288 512 OFFCURVE",
"230 456 OFFCURVE",
"188 413 CURVE",
"203 308 LINE",
"225 332 OFFCURVE",
"261 358 OFFCURVE",
"296 358 CURVE SMOOTH",
"329 358 OFFCURVE",
"341 340 OFFCURVE",
"341 304 CURVE SMOOTH",
"341 15 LINE SMOOTH",
"341 6 OFFCURVE",
"347 0 OFFCURVE",
"356 0 CURVE SMOOTH"
);
},
{
closed = 1;
nodes = (
"207 0 LINE SMOOTH",
"216 0 OFFCURVE",
"222 6 OFFCURVE",
"222 15 CURVE SMOOTH",
"222 345 LINE",
"205 412 LINE",
"204 439 OFFCURVE",
"200 467 OFFCURVE",
"195 488 CURVE SMOOTH",
"193 497 OFFCURVE",
"188 500 OFFCURVE",
"180 500 CURVE SMOOTH",
"51 500 LINE SMOOTH",
"41 500 OFFCURVE",
"36 494 OFFCURVE",
"37 484 CURVE SMOOTH",
"40 449 OFFCURVE",
"42 413 OFFCURVE",
"42 369 CURVE SMOOTH",
"42 15 LINE SMOOTH",
"42 6 OFFCURVE",
"48 0 OFFCURVE",
"57 0 CURVE SMOOTH"
);
}
);
width = 563;
}
);
leftKerningGroup = n;
rightKerningGroup = n;
unicode = 006E;
},
{
glyphname = eng;
lastChange = "2019-08-22 23:01:14 +0000";
layers = (
{
layerId = "9E4B8FD8-F8AF-4AA7-8E0D-0C907FFB2BDD";
paths = (
{
closed = 1;
nodes = (
"442 -144 OFFCURVE",
"481 -63 OFFCURVE",
"481 59 CURVE SMOOTH",
"481 333 LINE SMOOTH",
"481 443 OFFCURVE",
"429 500 OFFCURVE",
"333 500 CURVE SMOOTH",
"269 500 OFFCURVE",
"219 475 OFFCURVE",
"158 415 CURVE",
"156 439 OFFCURVE",
"153 466 OFFCURVE",
"150 478 CURVE SMOOTH",
"148 486 OFFCURVE",
"146 488 OFFCURVE",
"139 488 CURVE SMOOTH",
"78 488 LINE SMOOTH",
"70 488 OFFCURVE",
"67 483 OFFCURVE",
"68 475 CURVE SMOOTH",
"71 451 OFFCURVE",
"75 400 OFFCURVE",
"75 366 CURVE SMOOTH",
"75 10 LINE SMOOTH",
"75 4 OFFCURVE",
"79 0 OFFCURVE",
"85 0 CURVE SMOOTH",
"150 0 LINE SMOOTH",
"156 0 OFFCURVE",
"160 4 OFFCURVE",
"160 10 CURVE SMOOTH",
"160 340 LINE",
"225 402 OFFCURVE",
"266 425 OFFCURVE",
"314 425 CURVE SMOOTH",
"369 425 OFFCURVE",
"396 395 OFFCURVE",
"396 329 CURVE SMOOTH",
"396 64 LINE SMOOTH",
"396 -28 OFFCURVE",
"366 -87 OFFCURVE",
"313 -124 CURVE SMOOTH",
"307 -128 OFFCURVE",
"306 -132 OFFCURVE",
"310 -138 CURVE SMOOTH",
"349 -187 LINE SMOOTH",
"353 -192 OFFCURVE",
"358 -193 OFFCURVE",
"363 -190 CURVE SMOOTH"
);
}
);
width = 556;
},
{
layerId = "8E001827-4555-4882-9710-42A9586BB804";
paths = (
{
closed = 1;
nodes = (
"435 -104 OFFCURVE",
"463 -59 OFFCURVE",
"463 38 CURVE SMOOTH",
"463 327 LINE SMOOTH",
"463 441 OFFCURVE",
"417 490 OFFCURVE",
"329 490 CURVE SMOOTH",
"254 490 OFFCURVE",
"182 446 OFFCURVE",
"111 369 CURVE",
"111 406 OFFCURVE",
"109 441 OFFCURVE",
"106 475 CURVE",
"106 477 OFFCURVE",
"105 478 OFFCURVE",
"103 478 CURVE SMOOTH",
"93 478 LINE SMOOTH",
"91 478 OFFCURVE",
"90 477 OFFCURVE",
"90 475 CURVE",
"93 440 OFFCURVE",
"95 403 OFFCURVE",
"95 368 CURVE SMOOTH",
"95 3 LINE SMOOTH",
"95 1 OFFCURVE",
"96 0 OFFCURVE",
"98 0 CURVE SMOOTH",
"108 0 LINE SMOOTH",
"110 0 OFFCURVE",
"111 1 OFFCURVE",
"111 3 CURVE SMOOTH",
"111 348 LINE",
"180 424 OFFCURVE",
"251 474 OFFCURVE",
"327 474 CURVE SMOOTH",
"409 474 OFFCURVE",
"447 428 OFFCURVE",
"447 325 CURVE SMOOTH",
"447 38 LINE SMOOTH",
"447 -54 OFFCURVE",
"421 -93 OFFCURVE",
"359 -155 CURVE SMOOTH",
"358 -156 OFFCURVE",
"358 -158 OFFCURVE",
"359 -159 CURVE SMOOTH",
"366 -169 LINE SMOOTH",
"367 -170 OFFCURVE",
"369 -170 OFFCURVE",
"370 -169 CURVE SMOOTH"
);
}
);
width = 558;
},
{
layerId = "39FE7167-BE3C-4E72-AD2E-460E8E32521A";
leftMetricsKey = "=n";
rightMetricsKey = "=n";
paths = (
{
closed = 1;
nodes = (
"488 -127 OFFCURVE",
"521 -45 OFFCURVE",
"521 101 CURVE SMOOTH",
"521 350 LINE SMOOTH",
"521 463 OFFCURVE",
"474 512 OFFCURVE",
"380 512 CURVE SMOOTH",
"299 512 OFFCURVE",
"245 469 OFFCURVE",
"204 429 CURVE",
"202 450 OFFCURVE",
"199 471 OFFCURVE",
"195 488 CURVE SMOOTH",
"193 497 OFFCURVE",
"188 500 OFFCURVE",
"180 500 CURVE SMOOTH",
"51 500 LINE SMOOTH",
"41 500 OFFCURVE",
"36 494 OFFCURVE",
"37 484 CURVE SMOOTH",
"40 449 OFFCURVE",
"42 413 OFFCURVE",
"42 369 CURVE SMOOTH",
"42 15 LINE SMOOTH",
"42 6 OFFCURVE",
"48 0 OFFCURVE",
"57 0 CURVE SMOOTH",
"207 0 LINE SMOOTH",
"216 0 OFFCURVE",
"222 6 OFFCURVE",
"222 15 CURVE SMOOTH",
"222 326 LINE",
"243 343 OFFCURVE",
"270 358 OFFCURVE",
"296 358 CURVE SMOOTH",
"329 358 OFFCURVE",
"341 340 OFFCURVE",
"341 304 CURVE SMOOTH",
"341 99 LINE SMOOTH",
"341 16 OFFCURVE",
"321 -34 OFFCURVE",
"277 -67 CURVE SMOOTH",
"269 -73 OFFCURVE",
"269 -84 OFFCURVE",
"275 -90 CURVE SMOOTH",
"364 -189 LINE SMOOTH",
"368 -194 OFFCURVE",
"375 -195 OFFCURVE",
"380 -192 CURVE SMOOTH"
);
}
);
width = 563;
}
);
leftKerningGroup = n;
leftMetricsKey = n;
rightKerningGroup = n;
rightMetricsKey = n;
unicode = 014B;
},
{
glyphname = o;
lastChange = "2019-08-22 23:01:14 +0000";
layers = (
{
anchors = (
{
name = bottom;
position = "{268, 0}";
},
{
name = center;
position = "{268, 244}";
},
{
name = ogonek;
position = "{482, 10}";
},
{
name = top;
position = "{268, 488}";
},
{
name = topright;
position = "{516, 488}";
}
);
layerId = "9E4B8FD8-F8AF-4AA7-8E0D-0C907FFB2BDD";
paths = (
{
closed = 1;
nodes = (
"404 -12 OFFCURVE",
"474 53 OFFCURVE",
"474 186 CURVE SMOOTH",
"474 302 LINE SMOOTH",
"474 435 OFFCURVE",
"402 500 OFFCURVE",
"268 500 CURVE SMOOTH",
"132 500 OFFCURVE",
"62 435 OFFCURVE",
"62 302 CURVE SMOOTH",
"62 186 LINE SMOOTH",
"62 53 OFFCURVE",
"133 -12 OFFCURVE",
"268 -12 CURVE SMOOTH"
);
},
{
closed = 1;
nodes = (
"183 63 OFFCURVE",
"147 106 OFFCURVE",
"147 194 CURVE SMOOTH",
"147 294 LINE SMOOTH",
"147 382 OFFCURVE",
"183 425 OFFCURVE",
"268 425 CURVE SMOOTH",
"353 425 OFFCURVE",
"389 382 OFFCURVE",
"389 294 CURVE SMOOTH",
"389 194 LINE SMOOTH",
"389 106 OFFCURVE",
"353 63 OFFCURVE",
"268 63 CURVE SMOOTH"
);
}
);
width = 536;
},
{
anchors = (
{
name = bottom;
position = "{260, 0}";
},
{
name = center;
position = "{260, 239}";
},
{
name = ogonek;
position = "{474, 10}";
},
{
name = top;
position = "{260, 478}";
},
{
name = topright;
position = "{508, 478}";
}
);
layerId = "8E001827-4555-4882-9710-42A9586BB804";
paths = (
{
closed = 1;
nodes = (
"375 -12 OFFCURVE",
"446 53 OFFCURVE",
"446 163 CURVE SMOOTH",
"446 315 LINE SMOOTH",
"446 426 OFFCURVE",
"376 490 OFFCURVE",
"260 490 CURVE SMOOTH",
"145 490 OFFCURVE",
"74 424 OFFCURVE",
"74 315 CURVE SMOOTH",
"74 163 LINE SMOOTH",
"74 52 OFFCURVE",
"144 -12 OFFCURVE",
"260 -12 CURVE SMOOTH"
);
},
{
closed = 1;
nodes = (
"154 4 OFFCURVE",
"90 63 OFFCURVE",
"90 167 CURVE SMOOTH",
"90 311 LINE SMOOTH",
"90 415 OFFCURVE",
"154 474 OFFCURVE",
"260 474 CURVE SMOOTH",
"366 474 OFFCURVE",
"430 415 OFFCURVE",
"430 311 CURVE SMOOTH",
"430 167 LINE SMOOTH",
"430 63 OFFCURVE",
"366 4 OFFCURVE",
"260 4 CURVE SMOOTH"
);
}
);
width = 520;
},
{
anchors = (
{
name = bottom;
position = "{279, 0}";
},
{
name = center;
position = "{279, 250}";
},
{
name = ogonek;
position = "{500, 10}";
},
{
name = top;
position = "{279, 500}";
},
{
name = topright;
position = "{535, 500}";
}
);
layerId = "39FE7167-BE3C-4E72-AD2E-460E8E32521A";
paths = (
{
closed = 1;
nodes = (
"433 -12 OFFCURVE",
"527 60 OFFCURVE",
"527 204 CURVE SMOOTH",
"527 296 LINE SMOOTH",
"527 439 OFFCURVE",
"433 512 OFFCURVE",
"279 512 CURVE SMOOTH",
"125 512 OFFCURVE",
"31 439 OFFCURVE",
"31 296 CURVE SMOOTH",
"31 204 LINE SMOOTH",
"31 60 OFFCURVE",
"125 -12 OFFCURVE",
"279 -12 CURVE SMOOTH"
);
},
{
closed = 1;
nodes = (
"233 139 OFFCURVE",
"211 160 OFFCURVE",
"211 220 CURVE SMOOTH",
"211 280 LINE SMOOTH",
"211 340 OFFCURVE",
"233 361 OFFCURVE",
"279 361 CURVE SMOOTH",
"325 361 OFFCURVE",
"347 340 OFFCURVE",
"347 280 CURVE SMOOTH",
"347 220 LINE SMOOTH",
"347 160 OFFCURVE",
"325 139 OFFCURVE",
"279 139 CURVE SMOOTH"
);
}
);
width = 558;
}
);
leftKerningGroup = o;
rightKerningGroup = o;
unicode = 006F;
},
{
glyphname = oslash;
lastChange = "2019-08-22 23:01:14 +0000";
layers = (
{
anchors = (
{
name = top;
position = "{270, 488}";
}
);
components = (
{
name = o;
}
);
layerId = "9E4B8FD8-F8AF-4AA7-8E0D-0C907FFB2BDD";
paths = (
{
closed = 1;
nodes = (
"78 -51 LINE SMOOTH",
"83 -51 OFFCURVE",
"88 -49 OFFCURVE",
"91 -45 CURVE",
"151 34 LINE",
"180 71 LINE",
"405 364 LINE",
"438 408 LINE",
"529 526 LINE",
"534 532 OFFCURVE",
"531 538 OFFCURVE",
"523 538 CURVE SMOOTH",
"458 538 LINE SMOOTH",
"453 538 OFFCURVE",
"448 536 OFFCURVE",
"445 532 CURVE",
"388 457 LINE",
"359 420 LINE",
"120 108 LINE",
"104 88 LINE",
"7 -39 LINE",
"2 -45 OFFCURVE",
"5 -51 OFFCURVE",
"13 -51 CURVE SMOOTH"
);
}
);
width = 536;
},
{
anchors = (
{
name = top;
position = "{251, 478}";
}
);
components = (
{
name = o;
}
);
layerId = "8E001827-4555-4882-9710-42A9586BB804";
paths = (
{
closed = 1;
nodes = (
"43 -51 LINE SMOOTH",
"44 -51 OFFCURVE",
"45 -51 OFFCURVE",
"46 -49 CURVE",
"119 46 LINE",
"123 52 LINE",
"404 421 LINE",
"408 426 LINE",
"490 534 LINE SMOOTH",
"491 536 OFFCURVE",
"490 538 OFFCURVE",
"488 538 CURVE SMOOTH",
"477 538 LINE SMOOTH",
"476 538 OFFCURVE",
"475 538 OFFCURVE",
"474 536 CURVE SMOOTH",
"397 435 LINE",
"393 430 LINE",
"112 62 LINE",
"109 58 LINE",
"29 -47 LINE",
"28 -49 OFFCURVE",
"29 -51 OFFCURVE",
"31 -51 CURVE SMOOTH"
);
}
);
width = 520;
},
{
anchors = (
{
name = top;
position = "{279, 500}";
}
);
components = (
{
name = o;
}
);
layerId = "39FE7167-BE3C-4E72-AD2E-460E8E32521A";
paths = (
{
closed = 1;
nodes = (
"162 -52 LINE SMOOTH",
"170 -52 OFFCURVE",
"176 -49 OFFCURVE",
"180 -42 CURVE SMOOTH",
"218 16 LINE",
"251 130 LINE",
"367 338 LINE",
"454 412 LINE",
"532 533 LINE SMOOTH",
"538 543 OFFCURVE",
"534 551 OFFCURVE",
"522 551 CURVE SMOOTH",
"396 551 LINE SMOOTH",
"388 551 OFFCURVE",
"382 548 OFFCURVE",
"378 541 CURVE SMOOTH",
"348 495 LINE",
"311 375 LINE",
"203 180 LINE",
"103 86 LINE",
"26 -34 LINE SMOOTH",
"20 -44 OFFCURVE",
"24 -52 OFFCURVE",
"36 -52 CURVE SMOOTH"
);
}
);
width = 558;
}
);
leftKerningGroup = o;
rightKerningGroup = o;
unicode = 00F8;
},
{
glyphname = oe;
lastChange = "2022-10-25 01:21:35 +0000";
layers = (
{
layerId = "9E4B8FD8-F8AF-4AA7-8E0D-0C907FFB2BDD";
paths = (
{
closed = 1;
nodes = (
"332 -12 OFFCURVE",
"380 9 OFFCURVE",
"419 66 CURVE",
"456 9 OFFCURVE",
"504 -12 OFFCURVE",
"579 -12 CURVE SMOOTH",
"693 -12 OFFCURVE",
"767 39 OFFCURVE",
"767 123 CURVE SMOOTH",
"767 131 OFFCURVE",
"764 135 OFFCURVE",
"757 135 CURVE SMOOTH",
"692 135 LINE SMOOTH",
"685 135 OFFCURVE",
"681 131 OFFCURVE",
"681 120 CURVE SMOOTH",
"681 86 OFFCURVE",
"645 63 OFFCURVE",
"583 63 CURVE SMOOTH",
"499 63 OFFCURVE",
"464 101 OFFCURVE",
"464 191 CURVE SMOOTH",
"464 223 LINE",
"766 223 LINE SMOOTH",
"772 223 OFFCURVE",
"776 227 OFFCURVE",
"776 233 CURVE SMOOTH",
"776 311 LINE SMOOTH",
"776 432 OFFCURVE",
"708 500 OFFCURVE",
"588 500 CURVE SMOOTH",
"514 500 OFFCURVE",
"454 474 OFFCURVE",
"422 420 CURVE",
"393 474 OFFCURVE",
"336 500 OFFCURVE",
"259 500 CURVE SMOOTH",
"131 500 OFFCURVE",
"62 432 OFFCURVE",
"62 306 CURVE SMOOTH",
"62 182 LINE SMOOTH",
"62 56 OFFCURVE",
"131 -12 OFFCURVE",
"260 -12 CURVE SMOOTH"
);
},
{
closed = 1;
nodes = (
"185 63 OFFCURVE",
"147 105 OFFCURVE",
"147 190 CURVE SMOOTH",
"147 298 LINE SMOOTH",
"147 383 OFFCURVE",
"185 425 OFFCURVE",
"263 425 CURVE SMOOTH",
"341 425 OFFCURVE",
"379 383 OFFCURVE",
"379 298 CURVE SMOOTH",
"379 190 LINE SMOOTH",
"379 105 OFFCURVE",
"341 63 OFFCURVE",
"263 63 CURVE SMOOTH"
);
},
{
closed = 1;
nodes = (
"464 299 LINE SMOOTH",
"464 382 OFFCURVE",
"502 425 OFFCURVE",
"579 425 CURVE SMOOTH",
"654 425 OFFCURVE",
"691 384 OFFCURVE",
"691 300 CURVE SMOOTH",
"691 296 LINE",
"464 296 LINE"
);
}
);
width = 836;
},
{
layerId = "8E001827-4555-4882-9710-42A9586BB804";
paths = (
{
closed = 1;
nodes = (
"341 -12 OFFCURVE",
"405 27 OFFCURVE",
"425 106 CURVE",
"442 27 OFFCURVE",
"506 -13 OFFCURVE",
"602 -12 CURVE SMOOTH",
"710 -11 OFFCURVE",
"766 38 OFFCURVE",
"766 119 CURVE SMOOTH",
"766 121 OFFCURVE",
"765 122 OFFCURVE",
"763 122 CURVE SMOOTH",
"753 122 LINE SMOOTH",
"751 122 OFFCURVE",
"750 121 OFFCURVE",
"750 119 CURVE SMOOTH",
"750 48 OFFCURVE",
"699 4 OFFCURVE",
"602 4 CURVE SMOOTH",
"490 4 OFFCURVE",
"434 59 OFFCURVE",
"434 165 CURVE SMOOTH",
"434 248 LINE",
"773 248 LINE SMOOTH",
"775 248 OFFCURVE",
"776 249 OFFCURVE",
"776 251 CURVE SMOOTH",
"776 305 LINE SMOOTH",
"776 426 OFFCURVE",
"715 490 OFFCURVE",
"597 490 CURVE SMOOTH",
"504 490 OFFCURVE",
"445 450 OFFCURVE",
"426 369 CURVE",
"409 448 OFFCURVE",
"343 490 OFFCURVE",
"254 490 CURVE SMOOTH",
"145 490 OFFCURVE",
"74 424 OFFCURVE",
"74 315 CURVE SMOOTH",
"74 163 LINE SMOOTH",
"74 52 OFFCURVE",
"144 -12 OFFCURVE",
"254 -12 CURVE SMOOTH"
);
},
{
closed = 1;
nodes = (
"154 4 OFFCURVE",
"90 63 OFFCURVE",
"90 167 CURVE SMOOTH",
"90 311 LINE SMOOTH",
"90 415 OFFCURVE",
"154 474 OFFCURVE",
"254 474 CURVE SMOOTH",
"354 474 OFFCURVE",
"418 415 OFFCURVE",
"418 311 CURVE SMOOTH",
"418 167 LINE SMOOTH",
"418 63 OFFCURVE",
"354 4 OFFCURVE",
"254 4 CURVE SMOOTH"
);
},
{
closed = 1;
nodes = (
"434 305 LINE SMOOTH",
"434 415 OFFCURVE",
"489 474 OFFCURVE",
"597 474 CURVE SMOOTH",
"705 474 OFFCURVE",
"760 415 OFFCURVE",
"760 305 CURVE SMOOTH",
"760 264 LINE",
"434 264 LINE"
);
}
);
width = 848;
},
{
layerId = "39FE7167-BE3C-4E72-AD2E-460E8E32521A";
paths = (
{
closed = 1;
nodes = (
"340 -12 OFFCURVE",
"388 1 OFFCURVE",
"428 43 CURVE",
"468 1 OFFCURVE",
"523 -12 OFFCURVE",
"595 -12 CURVE SMOOTH",
"755 -12 OFFCURVE",
"824 37 OFFCURVE",
"824 151 CURVE SMOOTH",
"824 161 OFFCURVE",
"819 166 OFFCURVE",
"809 166 CURVE SMOOTH",
"666 166 LINE SMOOTH",
"657 166 OFFCURVE",
"651 162 OFFCURVE",
"651 153 CURVE SMOOTH",
"651 129 OFFCURVE",
"626 118 OFFCURVE",
"589 118 CURVE SMOOTH",
"542 118 OFFCURVE",
"524 141 OFFCURVE",
"524 181 CURVE SMOOTH",
"524 209 LINE",
"820 209 LINE SMOOTH",
"829 209 OFFCURVE",
"835 215 OFFCURVE",
"835 224 CURVE SMOOTH",
"835 303 LINE SMOOTH",
"835 443 OFFCURVE",
"755 512 OFFCURVE",
"596 512 CURVE SMOOTH",
"530 512 OFFCURVE",
"470 492 OFFCURVE",
"429 455 CURVE",
"389 498 OFFCURVE",
"338 512 OFFCURVE",
"268 512 CURVE SMOOTH",
"125 512 OFFCURVE",
"31 434 OFFCURVE",
"31 294 CURVE SMOOTH",
"31 206 LINE SMOOTH",
"31 67 OFFCURVE",
"125 -12 OFFCURVE",
"268 -12 CURVE SMOOTH"
);
},
{
closed = 1;
nodes = (
"233 139 OFFCURVE",
"211 160 OFFCURVE",
"211 220 CURVE SMOOTH",
"211 280 LINE SMOOTH",
"211 340 OFFCURVE",
"233 361 OFFCURVE",
"279 361 CURVE SMOOTH",
"325 361 OFFCURVE",
"347 340 OFFCURVE",
"347 280 CURVE SMOOTH",
"347 220 LINE SMOOTH",
"347 160 OFFCURVE",
"325 139 OFFCURVE",
"279 139 CURVE SMOOTH"
);
},
{
closed = 1;
nodes = (
"524 305 LINE SMOOTH",
"524 359 OFFCURVE",
"542 381 OFFCURVE",
"593 381 CURVE SMOOTH",
"641 381 OFFCURVE",
"660 360 OFFCURVE",
"660 305 CURVE SMOOTH",
"660 301 LINE",
"524 301 LINE"
);
}
);
width = 866;
}
);
leftKerningGroup = o;
leftMetricsKey = o;
rightKerningGroup = e;
rightMetricsKey = e;
unicode = 0153;
},
